<svg xmlns="http://www.w3.org/2000/svg" width="32" height="32" fill="none" viewBox="0 0 32 32">
  <path fill-rule="evenodd" stroke="#fff" stroke-linecap="round" stroke-linejoin="round" stroke-width="2" d="M28 16c0 6.627-5.373 12-12 12S4 22.627 4 16 9.373 4 16 4s12 5.373 12 12Z" clip-rule="evenodd"/>
  <path fill="#2F8AF5" d="m12 15.4-.6 8.6 7.2-4.8-5 .8-1.6-4.6Z"/>
  <path fill="#2F8AF5" d="m11.425 23.983-.023-.013.23-3.293a6.392 6.392 0 0 0 2.557 1.463l-2.764 1.843ZM14.4 18.8 12.8 14l7.8-5.8-1.2 9.8-5 .8Z"/>
  <path fill="#2F8AF5" d="m20.233 11.2.367-3-2.403 1.787c.755.276 1.444.69 2.036 1.212Z"/>
</svg>
