<svg xmlns="http://www.w3.org/2000/svg" width="160" height="59" fill="none" viewBox="0 0 160 59">
  <path fill="#fff" fill-rule="evenodd" d="M22.116 23.03h19.768v16.41c0 .975-.776 1.765-1.732 1.765h-1.98v4.997c0 1.27-.994 2.298-2.22 2.298-1.23 0-2.222-1.029-2.222-2.298v-4.997h-3.458v4.997c0 1.27-.996 2.298-2.222 2.298-1.227 0-2.222-1.029-2.222-2.298v-4.997H23.85c-.956 0-1.734-.79-1.734-1.765V23.03Zm-3.873-.134c-1.24 0-2.243 1.039-2.243 2.32v9.068c0 1.28 1.004 2.32 2.243 2.32 1.239 0 2.242-1.04 2.242-2.32v-9.067c0-1.282-1.003-2.32-2.242-2.32Zm23.64-1.52H22.117c.244-2.868 2.071-5.337 4.701-6.766l-1.88-2.811a.84.84 0 0 1 .216-1.155.808.808 0 0 1 1.134.219l2.048 3.066a11 11 0 0 1 7.332 0l2.048-3.065a.805.805 0 0 1 1.132-.22.84.84 0 0 1 .215 1.155l-1.877 2.81c2.63 1.43 4.455 3.898 4.699 6.768ZM28.925 17.48c0-.616-.489-1.114-1.093-1.114-.605 0-1.094.498-1.094 1.114 0 .615.49 1.113 1.095 1.113.603 0 1.092-.498 1.092-1.113Zm8.477 0c0-.616-.49-1.114-1.094-1.114-.605 0-1.093.498-1.093 1.114 0 .615.488 1.113 1.093 1.113.604 0 1.094-.498 1.094-1.113Zm8.358 5.414c-1.238 0-2.244 1.04-2.244 2.322v9.07c0 1.283 1.006 2.323 2.244 2.323 1.24 0 2.241-1.04 2.241-2.322v-9.071c0-1.282-1.002-2.322-2.241-2.322Z" clip-rule="evenodd"/>
  <path fill="#fff" d="M63.625 19.5h-1.781l.011-.92h1.77c.61 0 1.117-.127 1.523-.38a2.38 2.38 0 0 0 .915-1.079c.206-.465.31-1.008.31-1.629v-.521c0-.489-.059-.922-.176-1.301a2.632 2.632 0 0 0-.515-.967 2.178 2.178 0 0 0-.832-.603 2.86 2.86 0 0 0-1.12-.205h-1.92v-.926h1.922c.558 0 1.068.094 1.529.281.46.184.857.451 1.19.803.335.347.593.77.773 1.265.18.492.27 1.047.27 1.664v.51a4.88 4.88 0 0 1-.27 1.67 3.403 3.403 0 0 1-1.998 2.063 4.389 4.389 0 0 1-1.6.275Zm-1.178-8.531V19.5h-1.13v-8.531h1.13ZM68.74 16.4v-.134c0-.457.067-.881.2-1.272a3.02 3.02 0 0 1 .574-1.025c.25-.293.552-.52.908-.68a2.819 2.819 0 0 1 1.195-.246c.445 0 .846.082 1.201.246.36.16.664.387.914.68.254.289.448.63.58 1.025.133.39.2.815.2 1.272v.134c0 .457-.067.881-.2 1.272-.132.39-.326.732-.58 1.025a2.64 2.64 0 0 1-.908.68c-.351.16-.75.24-1.195.24-.445 0-.846-.08-1.201-.24a2.72 2.72 0 0 1-.914-.68 3.098 3.098 0 0 1-.575-1.025 3.949 3.949 0 0 1-.199-1.272Zm1.084-.134v.134c0 .317.037.616.112.897.074.277.185.523.333.738.153.215.342.385.569.51.227.121.49.182.79.182.298 0 .558-.061.78-.182.227-.125.414-.295.563-.51.148-.215.26-.46.334-.738a3.34 3.34 0 0 0 .117-.897v-.134c0-.313-.04-.608-.117-.885a2.277 2.277 0 0 0-.34-.744 1.615 1.615 0 0 0-.563-.516 1.577 1.577 0 0 0-.785-.187c-.297 0-.558.062-.785.187-.223.125-.41.297-.563.516-.148.215-.26.463-.334.744a3.41 3.41 0 0 0-.11.885Zm7.653 2.109 1.629-5.215h.714l-.14 1.037-1.66 5.303h-.697l.153-1.125ZM76.38 13.16l1.388 5.274.1 1.066h-.732l-1.84-6.34h1.084Zm4.998 5.233 1.324-5.233h1.078l-1.84 6.34h-.726l.164-1.107Zm-1.4-5.233 1.593 5.127.182 1.213h-.692l-1.705-5.315-.14-1.025h.761Zm6 1.354V19.5h-1.085v-6.34h1.026l.058 1.354Zm-.258 1.576-.452-.018c.004-.433.069-.834.194-1.2.125-.372.3-.694.527-.968a2.35 2.35 0 0 1 1.858-.861c.312 0 .593.043.843.129.25.082.463.215.64.398.179.184.316.422.41.715.093.29.14.643.14 1.06V19.5h-1.09v-4.166c0-.332-.049-.598-.147-.797a.9.9 0 0 0-.427-.44 1.535 1.535 0 0 0-.692-.14c-.27 0-.515.057-.738.17a1.76 1.76 0 0 0-.568.469c-.156.199-.28.427-.37.685a2.507 2.507 0 0 0-.128.809Zm6.984-5.59v9h-1.09v-9h1.09Zm1.453 5.9v-.134c0-.457.067-.881.2-1.272a3.02 3.02 0 0 1 .574-1.025c.25-.293.552-.52.908-.68a2.82 2.82 0 0 1 1.195-.246c.446 0 .846.082 1.201.246.36.16.664.387.914.68.254.289.448.63.58 1.025.133.39.2.815.2 1.272v.134c0 .457-.067.881-.2 1.272-.132.39-.326.732-.58 1.025a2.64 2.64 0 0 1-.908.68c-.351.16-.75.24-1.195.24-.445 0-.846-.08-1.201-.24a2.72 2.72 0 0 1-.914-.68 3.098 3.098 0 0 1-.575-1.025 3.949 3.949 0 0 1-.199-1.272Zm1.084-.134v.134c0 .317.037.616.111.897.075.277.186.523.335.738.152.215.341.385.568.51.226.121.49.182.79.182.298 0 .557-.061.78-.182.227-.125.414-.295.563-.51.148-.215.26-.46.334-.738a3.34 3.34 0 0 0 .117-.897v-.134a3.25 3.25 0 0 0-.117-.885 2.28 2.28 0 0 0-.34-.744 1.615 1.615 0 0 0-.563-.516 1.578 1.578 0 0 0-.785-.187c-.297 0-.558.062-.785.187-.223.125-.41.297-.563.516-.148.215-.26.463-.334.744a3.41 3.41 0 0 0-.11.885Zm9.785 2.15v-3.264c0-.25-.05-.466-.152-.65a.999.999 0 0 0-.445-.434 1.619 1.619 0 0 0-.739-.152 1.73 1.73 0 0 0-.72.14 1.256 1.256 0 0 0-.481.37.81.81 0 0 0-.17.492h-1.084c0-.227.059-.451.176-.674.117-.223.285-.424.504-.603a2.52 2.52 0 0 1 .797-.434 3.14 3.14 0 0 1 1.043-.164c.461 0 .867.078 1.219.234.355.157.632.393.832.71.203.312.304.704.304 1.177v2.953c0 .211.018.436.053.674.039.238.096.443.17.615v.094h-1.131a2 2 0 0 1-.129-.498 4.054 4.054 0 0 1-.047-.586Zm.188-2.76.012.762h-1.096c-.309 0-.584.025-.826.076-.243.047-.446.12-.61.217a.978.978 0 0 0-.504.879c0 .2.045.38.135.545a.98.98 0 0 0 .404.392c.184.094.409.141.674.141.332 0 .625-.07.879-.211.254-.14.455-.313.604-.516.152-.203.234-.4.246-.591l.463.521a1.59 1.59 0 0 1-.223.545 2.605 2.605 0 0 1-1.201 1.025 2.33 2.33 0 0 1-.926.176c-.43 0-.807-.084-1.131-.252a1.937 1.937 0 0 1-.75-.674 1.781 1.781 0 0 1-.263-.955c0-.34.066-.638.199-.896.133-.262.324-.479.574-.65.25-.176.551-.31.902-.399.352-.09.744-.135 1.178-.135h1.26Zm6.597 2.614V10.5h1.09v9h-.996l-.094-1.23Zm-4.265-1.87v-.123c0-.484.058-.924.176-1.318.121-.399.291-.74.509-1.025.223-.286.487-.504.791-.657a2.255 2.255 0 0 1 1.032-.234c.398 0 .746.07 1.043.21.3.138.554.339.761.604.211.262.377.579.498.95.122.37.205.79.252 1.26v.538a5.523 5.523 0 0 1-.252 1.254 2.954 2.954 0 0 1-.498.95 2.088 2.088 0 0 1-.761.603 2.531 2.531 0 0 1-1.055.205c-.371 0-.711-.08-1.02-.24a2.417 2.417 0 0 1-.791-.674 3.296 3.296 0 0 1-.509-1.02 4.46 4.46 0 0 1-.176-1.283Zm1.09-.123v.123c0 .317.031.614.093.891.067.277.168.521.305.732.137.211.311.377.522.498.211.118.463.176.755.176.36 0 .655-.076.885-.228a1.71 1.71 0 0 0 .563-.604c.14-.25.25-.521.328-.814v-1.412a3.125 3.125 0 0 0-.205-.621 1.907 1.907 0 0 0-.34-.54 1.474 1.474 0 0 0-.51-.38 1.648 1.648 0 0 0-.709-.141c-.297 0-.553.063-.767.188-.211.12-.385.289-.522.503a2.339 2.339 0 0 0-.305.739 4.076 4.076 0 0 0-.093.89Zm12.252-4.552-2.825 7.775h-1.154l3.252-8.531h.744l-.017.756Zm2.367 7.775-2.83-7.775-.018-.756h.744l3.264 8.531h-1.16Zm-.147-3.158v.926h-4.793v-.926h4.793Zm5.596-.188h-2.279v-.92h2.279c.441 0 .799-.07 1.072-.21.274-.141.473-.336.598-.586.129-.25.193-.536.193-.856a1.82 1.82 0 0 0-.193-.826 1.426 1.426 0 0 0-.598-.621c-.273-.16-.631-.24-1.072-.24h-2.016V19.5h-1.13v-8.531h3.146c.645 0 1.19.111 1.635.334.445.222.783.531 1.014.925.23.391.345.838.345 1.342 0 .547-.115 1.014-.345 1.4a2.215 2.215 0 0 1-1.014.885c-.445.2-.99.3-1.635.3Zm5.555-5.185V19.5h-1.131v-8.531h1.131Zm5.15 0-3.545 3.978-1.992 2.069-.187-1.207 1.5-1.653 2.865-3.187h1.359Zm-1.09 8.531-3.158-4.16.674-.897 3.832 5.057h-1.348Zm-69.741 8.45L62.93 43.5h-2.31l6.504-17.063h1.488l-.035 1.512Zm4.734 15.55-5.66-15.55-.035-1.512h1.489L75.633 43.5h-2.32Zm-.293-6.316v1.851h-9.585v-1.851h9.585Zm6.739-3.657V43.5H77.59V30.82h2.05l.118 2.707Zm-.516 3.153-.902-.035a7.63 7.63 0 0 1 .387-2.403 5.996 5.996 0 0 1 1.054-1.933 4.698 4.698 0 0 1 1.617-1.266 4.772 4.772 0 0 1 2.098-.457 5.17 5.17 0 0 1 1.688.258c.5.164.925.43 1.277.797.36.367.633.843.82 1.43.188.577.281 1.285.281 2.12V43.5h-2.18v-8.332c0-.664-.097-1.195-.292-1.594-.196-.406-.48-.699-.856-.879-.375-.187-.836-.28-1.382-.28a3.2 3.2 0 0 0-1.477.339 3.545 3.545 0 0 0-1.137.937 4.717 4.717 0 0 0-.738 1.371 5.01 5.01 0 0 0-.258 1.618Zm19.606 4.36V25.5h2.179v18h-1.992l-.187-2.46Zm-8.532-3.74v-.245c0-.97.118-1.848.352-2.637.242-.797.582-1.48 1.02-2.05a4.613 4.613 0 0 1 1.581-1.313c.618-.313 1.305-.47 2.063-.47.797 0 1.492.142 2.086.423.601.273 1.11.676 1.523 1.207.422.523.754 1.156.996 1.898.243.742.411 1.582.504 2.52v1.078c-.086.93-.253 1.766-.504 2.508-.242.742-.574 1.375-.996 1.898a4.17 4.17 0 0 1-1.523 1.207c-.602.274-1.305.41-2.11.41a4.36 4.36 0 0 1-2.039-.48 4.812 4.812 0 0 1-1.582-1.348 6.568 6.568 0 0 1-1.019-2.039 8.977 8.977 0 0 1-.352-2.566Zm2.18-.245v.246c0 .633.063 1.226.188 1.781.132.555.335 1.043.609 1.465.273.422.621.754 1.043.996.422.234.926.352 1.512.352.718 0 1.308-.153 1.77-.458a3.409 3.409 0 0 0 1.124-1.206c.281-.5.5-1.044.656-1.63v-2.824a6.254 6.254 0 0 0-.41-1.242 3.827 3.827 0 0 0-.68-1.078 2.939 2.939 0 0 0-1.019-.762c-.398-.187-.871-.28-1.418-.28-.594 0-1.105.124-1.535.374a2.99 2.99 0 0 0-1.043 1.008 4.658 4.658 0 0 0-.61 1.476 8.09 8.09 0 0 0-.187 1.782Zm14.074-4.242V43.5h-2.168V30.82h2.11l.058 1.992Zm3.961-2.063-.011 2.016a3.147 3.147 0 0 0-.516-.07 5.486 5.486 0 0 0-.539-.024c-.5 0-.942.078-1.324.234a2.747 2.747 0 0 0-.973.657 3.148 3.148 0 0 0-.633 1.007 4.866 4.866 0 0 0-.293 1.266l-.609.352c0-.766.074-1.485.222-2.157a5.896 5.896 0 0 1 .715-1.781c.321-.523.727-.93 1.219-1.219.5-.297 1.094-.445 1.781-.445.157 0 .336.02.539.059.203.03.344.066.422.105Zm1.196 6.55v-.269c0-.914.132-1.761.398-2.543a6.047 6.047 0 0 1 1.148-2.05 5.126 5.126 0 0 1 1.817-1.36c.711-.328 1.508-.492 2.39-.492.891 0 1.692.164 2.403.492.719.32 1.328.774 1.828 1.36a5.94 5.94 0 0 1 1.16 2.05 7.85 7.85 0 0 1 .399 2.543v.27c0 .914-.133 1.761-.399 2.543a6.087 6.087 0 0 1-1.16 2.05 5.322 5.322 0 0 1-1.816 1.36c-.704.32-1.5.48-2.391.48s-1.692-.16-2.402-.48a5.44 5.44 0 0 1-1.829-1.36 6.2 6.2 0 0 1-1.148-2.05 7.843 7.843 0 0 1-.398-2.543Zm2.168-.269v.27c0 .633.074 1.23.222 1.793a4.73 4.73 0 0 0 .668 1.476c.305.43.684.77 1.137 1.02.453.242.98.363 1.582.363.594 0 1.113-.121 1.558-.363.454-.25.829-.59 1.126-1.02.296-.43.519-.922.667-1.476.157-.563.235-1.16.235-1.793v-.27a6.47 6.47 0 0 0-.235-1.77 4.56 4.56 0 0 0-.679-1.488 3.232 3.232 0 0 0-1.125-1.03c-.446-.25-.969-.376-1.571-.376-.593 0-1.117.125-1.57.375-.445.25-.82.594-1.125 1.031-.297.43-.519.926-.668 1.489a6.84 6.84 0 0 0-.222 1.77Zm14.449-6.21V43.5h-2.18V30.82h2.18ZM126 27.456c0-.352.105-.648.316-.89.219-.243.539-.364.961-.364.414 0 .731.121.95.363.226.243.339.54.339.891 0 .336-.113.625-.339.867-.219.235-.536.352-.95.352-.422 0-.742-.117-.961-.352a1.276 1.276 0 0 1-.316-.867Zm13.816 13.582V25.5h2.18v18h-1.992l-.188-2.46Zm-8.531-3.738v-.246c0-.97.117-1.848.352-2.637.242-.797.582-1.48 1.019-2.05a4.622 4.622 0 0 1 1.582-1.313c.617-.313 1.305-.47 2.063-.47.797 0 1.492.142 2.086.423a4.016 4.016 0 0 1 1.523 1.207c.422.523.754 1.156.996 1.898s.41 1.582.504 2.52v1.078c-.086.93-.254 1.766-.504 2.508-.242.742-.574 1.375-.996 1.898a4.172 4.172 0 0 1-1.523 1.207c-.602.274-1.305.41-2.11.41a4.36 4.36 0 0 1-2.039-.48 4.822 4.822 0 0 1-1.582-1.348 6.574 6.574 0 0 1-1.019-2.039 8.956 8.956 0 0 1-.352-2.566Zm2.18-.246v.246c0 .633.062 1.226.187 1.781a4.66 4.66 0 0 0 .61 1.465c.273.422.621.754 1.043.996.422.234.925.352 1.511.352.719 0 1.309-.153 1.77-.458a3.403 3.403 0 0 0 1.125-1.206c.281-.5.5-1.044.656-1.63v-2.824a6.254 6.254 0 0 0-.41-1.242 3.812 3.812 0 0 0-.68-1.078 2.935 2.935 0 0 0-1.019-.762c-.399-.187-.871-.28-1.418-.28-.594 0-1.106.124-1.535.374-.422.242-.77.578-1.043 1.008a4.652 4.652 0 0 0-.61 1.476 8.091 8.091 0 0 0-.187 1.782Z"/>
</svg>
