<svg xmlns="http://www.w3.org/2000/svg" width="32" height="32" fill="none" viewBox="0 0 32 32">
  <path fill="#fff" d="m23.327 23.31-.5.866.5-.867Zm2.732-.733-.866-.5.866.5Zm.666-1.154-.866-.5.866.5Zm-.732-2.732-.5.866.5-.866Zm0-5.382.5.867-.5-.867Zm.733-2.732.866-.5-.866.5Zm-.667-1.154-.866.5.866-.5Zm-2.732-.732.5.866-.5-.866Zm-14.654 0 .5-.866-.5.866Zm-2.732.732-.866-.5.866.5Zm-.667 1.154-.866-.5.866.5Zm.732 2.732-.5.867.5-.867Zm0 5.382.5.866-.5-.866Zm-.732 2.732.866-.5-.866.5Zm.667 1.154-.866.5.866-.5Zm2.732.732.5.866-.5-.866Zm3.966 1.042-.374.928.374-.928Zm-3.388-1.375.5.866-.5-.866Zm1.199.11.617-.787-.617.786Zm0-14.171-.618-.787.618.787Zm-3.867 4.728-.5.865.5-.865ZM22.75 9.024l.5.866-.5-.866Zm-1.199-.11-.617.787.617-.786Zm3.362 5.82-.99.14.99-.14Zm.505-1.092.5.866-.5-.866Zm0 4.716.5-.866-.5.866Zm-3.867 4.727.617.787-.617-.787Zm1.2-.11.5-.865-.5.866Zm-3.39 1.377-.373-.928.374.928ZM15.334 27a1 1 0 0 1-1-1h-2a3 3 0 0 0 3 3v-2Zm1.334 0h-1.334v2h1.334v-2Zm1-1a1 1 0 0 1-1 1v2a3 3 0 0 0 3-3h-2Zm0-.665V26h2v-.665h-2Zm3.266-3.036a7.99 7.99 0 0 1-1.946 1.125l.748 1.855a9.994 9.994 0 0 0 2.432-1.407L20.933 22.3Zm2.894.144-.578-.333-1 1.732.578.334 1-1.733Zm1.366-.366a1 1 0 0 1-1.366.366l-1 1.732a3 3 0 0 0 4.098-1.098l-1.732-1Zm.666-1.154-.666 1.154 1.732 1 .667-1.154-1.732-1Zm-.366-1.366a1 1 0 0 1 .367 1.366l1.732 1a3 3 0 0 0-1.098-4.098l-1 1.732Zm-.576-.333.576.333 1-1.732-.576-.333-1 1.732ZM24 16c0 .383-.027.759-.078 1.126l1.98.28c.065-.46.098-.93.098-1.406h-2Zm-.078-1.126c.051.367.078.743.078 1.126h2c0-.476-.033-.945-.098-1.405l-1.98.279Zm1.572-2.43-.577.332 1 1.732.576-.332-1-1.733Zm.366-1.367a1 1 0 0 1-.366 1.366l1 1.732a3 3 0 0 0 1.098-4.098l-1.732 1Zm-.667-1.154.666 1.154 1.733-1-.667-1.154-1.732 1Zm-1.366-.366a1 1 0 0 1 1.366.366l1.732-1a3 3 0 0 0-4.098-1.098l1 1.732Zm-.578.333.578-.333-1-1.732-.578.333 1 1.732Zm-4.262-1.314a7.99 7.99 0 0 1 1.946 1.125l1.234-1.573a9.99 9.99 0 0 0-2.432-1.407l-.748 1.855ZM17.667 6v.665h2V6h-2Zm-1-1a1 1 0 0 1 1 1h2a3 3 0 0 0-3-3v2Zm-1.334 0h1.334V3h-1.334v2Zm-1 1a1 1 0 0 1 1-1V3a3 3 0 0 0-3 3h2Zm0 .665V6h-2v.665h2Zm-3.266 3.037a7.99 7.99 0 0 1 1.946-1.126l-.748-1.855a9.99 9.99 0 0 0-2.433 1.407l1.235 1.574Zm-2.894-.145.578.333 1-1.732-.578-.333-1 1.732Zm-1.366.366a1 1 0 0 1 1.366-.366l1-1.732a3 3 0 0 0-4.098 1.098l1.732 1Zm-.667 1.154.667-1.154-1.732-1-.667 1.154 1.732 1Zm.366 1.366a1 1 0 0 1-.366-1.366l-1.732-1a3 3 0 0 0 1.098 4.098l1-1.732Zm.577.333-.577-.333-1 1.732.577.333 1-1.732ZM8 16c0-.383.027-.759.079-1.126l-1.981-.279C6.033 15.055 6 15.524 6 16h2Zm.079 1.126A8.078 8.078 0 0 1 8 16H6c0 .476.033.945.098 1.405l1.98-.279Zm-1.573 2.43.577-.332-1-1.732-.577.333 1 1.732Zm-.366 1.367a1 1 0 0 1 .366-1.366l-1-1.732a3 3 0 0 0-1.098 4.098l1.732-1Zm.667 1.154-.667-1.154-1.732 1 .667 1.154 1.732-1Zm1.366.366a1 1 0 0 1-1.366-.366l-1.732 1a3 3 0 0 0 4.098 1.098l-1-1.732Zm.578-.333-.578.333 1 1.732.578-.333-1-1.732Zm4.262 1.314a7.995 7.995 0 0 1-1.946-1.125l-1.234 1.573a9.99 9.99 0 0 0 2.432 1.407l.748-1.855ZM14.333 26v-.665h-2V26h2Zm-2.068-.721a.146.146 0 0 1 .062.045.051.051 0 0 1 .006.012h2c0-.893-.58-1.614-1.32-1.912l-.748 1.855Zm-2.514-1.437c-.001 0-.001 0 0 0h.013a.14.14 0 0 1 .069.03l1.234-1.573c-.629-.494-1.543-.635-2.316-.19l1 1.733Zm-3.653-6.437a.14.14 0 0 1-.008.075.045.045 0 0 1-.007.012l1 1.732c.772-.446 1.107-1.308.996-2.098l-1.981.279Zm3.734-9.277a.14.14 0 0 1-.068.03H9.75l-1 1.732c.774.446 1.688.305 2.317-.188L9.832 8.128Zm-3.749 6.38.007.012a.14.14 0 0 1 .008.075l1.98.279c.112-.79-.223-1.652-.995-2.098l-1 1.732Zm13.652-7.787a.142.142 0 0 1-.062-.045l-.006-.012h-2c0 .893.58 1.614 1.32 1.912l.748-1.855Zm2.514 1.437c.001 0 .001 0 0 0h-.013a.14.14 0 0 1-.069-.03L20.933 9.7c.629.493 1.543.635 2.316.19l-1-1.733Zm-9.916-1.493v-.001a.051.051 0 0 1-.006.012.14.14 0 0 1-.062.045l.748 1.855c.74-.298 1.32-1.019 1.32-1.911h-2Zm13.569 7.93a.141.141 0 0 1 .008-.075l.007-.012-1-1.732c-.772.446-1.107 1.308-.995 2.098l1.98-.279Zm.015 2.897-.007-.012a.141.141 0 0 1-.008-.075l-1.98-.279c-.112.79.223 1.652.995 2.098l1-1.732Zm-3.75 6.38a.139.139 0 0 1 .07-.03h.013l1-1.732c-.774-.446-1.688-.305-2.317.189l1.234 1.573Zm-2.5 1.463v.001l.006-.012a.14.14 0 0 1 .062-.045l-.748-1.855c-.74.298-1.32 1.019-1.32 1.912h2Z"/>
  <circle cx="16" cy="16" r="4" fill="#30CC6E"/>
</svg>
