<svg xmlns="http://www.w3.org/2000/svg" width="175" height="59" fill="none" viewBox="0 0 175 59">
  <path fill="#fff" d="M37.737 30.382c-.015-2.54 1.135-4.456 3.456-5.868-1.298-1.863-3.262-2.887-5.851-3.085-2.451-.194-5.133 1.431-6.115 1.431-1.038 0-3.411-1.364-5.278-1.364-3.854.06-7.949 3.078-7.949 9.218 0 1.815.331 3.689.993 5.619.885 2.54 4.077 8.766 7.406 8.666 1.74-.041 2.972-1.237 5.237-1.237 2.198 0 3.336 1.237 5.278 1.237 3.359-.049 6.245-5.708 7.086-8.257-4.504-2.127-4.263-6.23-4.263-6.36ZM33.828 19.02c1.886-2.243 1.715-4.285 1.659-5.019-1.666.097-3.593 1.136-4.69 2.414-1.21 1.371-1.92 3.067-1.767 4.978 1.8.138 3.444-.79 4.798-2.373Zm23.588.48h-1.781l.012-.92h1.769c.61 0 1.117-.127 1.524-.38a2.38 2.38 0 0 0 .913-1.079c.207-.465.311-1.008.311-1.629v-.521c0-.489-.059-.922-.176-1.301a2.633 2.633 0 0 0-.515-.967 2.178 2.178 0 0 0-.832-.603 2.86 2.86 0 0 0-1.12-.205H55.6v-.926h1.922c.558 0 1.068.094 1.529.281.46.184.857.451 1.19.803.335.347.593.77.773 1.265.18.492.27 1.047.27 1.664v.51c0 .617-.09 1.174-.27 1.67a3.403 3.403 0 0 1-1.998 2.063 4.389 4.389 0 0 1-1.6.275Zm-1.178-8.531V19.5h-1.13v-8.531h1.13Zm6.293 5.431v-.134c0-.457.067-.881.2-1.272a3.02 3.02 0 0 1 .574-1.025c.25-.293.552-.52.908-.68a2.819 2.819 0 0 1 1.195-.246c.445 0 .846.082 1.201.246.36.16.664.387.914.68.254.289.448.63.58 1.025.133.39.2.815.2 1.272v.134c0 .457-.067.881-.2 1.272-.132.39-.326.732-.58 1.025a2.64 2.64 0 0 1-.908.68c-.351.16-.75.24-1.195.24-.445 0-.846-.08-1.201-.24a2.72 2.72 0 0 1-.914-.68 3.098 3.098 0 0 1-.575-1.025 3.949 3.949 0 0 1-.199-1.272Zm1.084-.134v.134c0 .317.037.616.112.897.074.277.185.523.334.738.152.215.341.385.568.51.227.121.49.182.79.182.298 0 .558-.061.78-.182.227-.125.414-.295.563-.51a2.36 2.36 0 0 0 .334-.738 3.34 3.34 0 0 0 .117-.897v-.134c0-.313-.04-.608-.117-.885a2.28 2.28 0 0 0-.34-.744 1.617 1.617 0 0 0-.563-.516 1.578 1.578 0 0 0-.785-.187c-.297 0-.558.062-.785.187-.223.125-.41.297-.563.516-.148.215-.26.463-.333.744a3.406 3.406 0 0 0-.112.885Zm7.653 2.109 1.629-5.215h.714l-.14 1.037-1.659 5.303h-.697l.153-1.125Zm-1.096-5.215 1.389 5.274.1 1.066h-.733l-1.84-6.34h1.084Zm4.998 5.233 1.324-5.233h1.078l-1.84 6.34h-.726l.164-1.107Zm-1.4-5.233 1.593 5.127.182 1.213h-.692l-1.705-5.315-.14-1.025h.761Zm6 1.354V19.5h-1.084v-6.34h1.025l.058 1.354Zm-.258 1.576-.451-.018c.003-.433.068-.834.193-1.2.125-.372.3-.694.527-.968a2.35 2.35 0 0 1 1.858-.861c.312 0 .593.043.843.129.25.082.463.215.64.398.179.184.316.422.41.715.093.29.14.643.14 1.06V19.5h-1.09v-4.166c0-.332-.049-.598-.146-.797a.9.9 0 0 0-.428-.44 1.535 1.535 0 0 0-.692-.14c-.27 0-.515.057-.738.17a1.76 1.76 0 0 0-.568.469c-.157.199-.28.427-.37.685a2.507 2.507 0 0 0-.128.809Zm6.984-5.59v9h-1.09v-9h1.09Zm1.453 5.9v-.134c0-.457.067-.881.2-1.272a3.02 3.02 0 0 1 .574-1.025c.25-.293.552-.52.908-.68a2.819 2.819 0 0 1 1.195-.246c.446 0 .846.082 1.201.246.36.16.664.387.914.68.254.289.448.63.58 1.025.133.39.2.815.2 1.272v.134c0 .457-.067.881-.2 1.272-.132.39-.326.732-.58 1.025a2.64 2.64 0 0 1-.908.68c-.351.16-.75.24-1.195.24-.445 0-.846-.08-1.201-.24a2.719 2.719 0 0 1-.914-.68 3.098 3.098 0 0 1-.575-1.025 3.949 3.949 0 0 1-.199-1.272Zm1.084-.134v.134c0 .317.037.616.111.897.075.277.186.523.334.738.153.215.342.385.569.51.226.121.49.182.79.182.298 0 .557-.061.78-.182.227-.125.414-.295.563-.51.148-.215.26-.46.334-.738a3.34 3.34 0 0 0 .117-.897v-.134c0-.313-.04-.608-.117-.885a2.277 2.277 0 0 0-.34-.744 1.615 1.615 0 0 0-.563-.516 1.577 1.577 0 0 0-.785-.187c-.297 0-.558.062-.785.187-.223.125-.41.297-.563.516-.148.215-.26.463-.334.744a3.41 3.41 0 0 0-.11.885Zm9.785 2.15v-3.264c0-.25-.05-.466-.152-.65a.996.996 0 0 0-.445-.434 1.627 1.627 0 0 0-.739-.152c-.273 0-.513.047-.72.14a1.255 1.255 0 0 0-.48.37.81.81 0 0 0-.17.492h-1.085c0-.227.059-.451.176-.674.117-.223.285-.424.504-.603a2.52 2.52 0 0 1 .797-.434c.312-.11.66-.164 1.043-.164.46 0 .867.078 1.219.234.355.157.632.393.832.71.203.312.304.704.304 1.177v2.953c0 .211.018.436.053.674.04.238.096.443.17.615v.094h-1.13a2.031 2.031 0 0 1-.13-.498 4.024 4.024 0 0 1-.047-.586Zm.188-2.76.012.762h-1.096c-.309 0-.584.025-.826.076-.243.047-.446.12-.61.217a.979.979 0 0 0-.504.879c0 .2.045.38.135.545a.98.98 0 0 0 .404.392c.184.094.409.141.674.141.332 0 .625-.07.88-.211.253-.14.454-.313.603-.516.152-.203.234-.4.246-.591l.463.521a1.572 1.572 0 0 1-.223.545 2.625 2.625 0 0 1-1.201 1.025 2.328 2.328 0 0 1-.926.176 2.42 2.42 0 0 1-1.13-.252 1.933 1.933 0 0 1-.75-.674 1.784 1.784 0 0 1-.264-.955c0-.34.066-.638.199-.896a1.73 1.73 0 0 1 .574-.65c.25-.176.55-.31.902-.399a4.76 4.76 0 0 1 1.178-.135h1.26Zm6.598 2.614V10.5h1.089v9h-.996l-.093-1.23Zm-4.266-1.87v-.123c0-.484.058-.924.176-1.318.121-.399.291-.74.509-1.025.223-.286.487-.504.791-.657a2.255 2.255 0 0 1 1.032-.234c.398 0 .746.07 1.043.21.3.138.554.339.761.604.211.262.377.579.498.95.122.37.206.79.252 1.26v.538a5.523 5.523 0 0 1-.252 1.254 2.954 2.954 0 0 1-.498.95 2.088 2.088 0 0 1-.761.603 2.531 2.531 0 0 1-1.055.205c-.371 0-.711-.08-1.02-.24a2.417 2.417 0 0 1-.791-.674 3.296 3.296 0 0 1-.509-1.02 4.46 4.46 0 0 1-.176-1.283Zm1.09-.123v.123c0 .317.031.614.093.891.067.277.168.521.305.732.137.211.311.377.522.498.211.118.463.176.756.176.359 0 .654-.076.884-.228a1.71 1.71 0 0 0 .563-.604c.14-.25.25-.521.328-.814v-1.412a3.125 3.125 0 0 0-.205-.621 1.907 1.907 0 0 0-.34-.54 1.474 1.474 0 0 0-.51-.38 1.648 1.648 0 0 0-.709-.141c-.297 0-.553.063-.767.188-.211.12-.385.289-.522.503a2.339 2.339 0 0 0-.305.739 4.076 4.076 0 0 0-.093.89Zm8.642.123v-.134c0-.457.067-.881.2-1.272a3.01 3.01 0 0 1 .574-1.025c.25-.293.552-.52.908-.68a2.817 2.817 0 0 1 1.195-.246c.446 0 .846.082 1.201.246.36.16.664.387.914.68.254.289.448.63.581 1.025.132.39.199.815.199 1.272v.134c0 .457-.067.881-.199 1.272a3.05 3.05 0 0 1-.581 1.025 2.64 2.64 0 0 1-.908.68c-.351.16-.75.24-1.195.24-.445 0-.846-.08-1.201-.24a2.715 2.715 0 0 1-.914-.68 3.083 3.083 0 0 1-.574-1.025c-.133-.39-.2-.815-.2-1.272Zm1.084-.134v.134c0 .317.037.616.112.897.074.277.185.523.334.738.152.215.341.385.568.51.227.121.49.182.791.182.297 0 .557-.061.779-.182.227-.125.414-.295.563-.51.148-.215.26-.46.334-.738a3.34 3.34 0 0 0 .117-.897v-.134c0-.313-.039-.608-.117-.885a2.282 2.282 0 0 0-.34-.744 1.618 1.618 0 0 0-.563-.516 1.575 1.575 0 0 0-.785-.187c-.297 0-.558.062-.785.187-.223.125-.41.297-.562.516-.149.215-.26.463-.334.744a3.376 3.376 0 0 0-.112.885Zm7.131-1.752V19.5h-1.084v-6.34h1.026l.058 1.354Zm-.258 1.576-.451-.018c.004-.433.069-.834.194-1.2.125-.372.3-.694.527-.968a2.347 2.347 0 0 1 1.857-.861c.313 0 .594.043.844.129.25.082.463.215.639.398.179.184.316.422.41.715.094.29.141.643.141 1.06V19.5h-1.09v-4.166c0-.332-.049-.598-.147-.797a.896.896 0 0 0-.428-.44 1.533 1.533 0 0 0-.691-.14 1.6 1.6 0 0 0-.738.17c-.219.113-.408.27-.569.469a2.36 2.36 0 0 0-.369.685 2.504 2.504 0 0 0-.129.809Zm11.438-2.93v.832h-3.428v-.832h3.428Zm-2.268-1.54h1.084v6.31c0 .215.033.377.1.486a.47.47 0 0 0 .258.217c.105.035.218.053.34.053.089 0 .183-.008.281-.024.101-.02.178-.035.228-.047l.006.885a2.541 2.541 0 0 1-.34.076 2.577 2.577 0 0 1-.498.041c-.265 0-.51-.053-.732-.158a1.173 1.173 0 0 1-.533-.527c-.129-.25-.194-.586-.194-1.008v-6.305Zm4.623-1.12v9h-1.084v-9h1.084Zm-.258 5.59-.451-.018c.004-.433.069-.834.194-1.2.125-.372.3-.694.527-.968a2.35 2.35 0 0 1 1.857-.861c.313 0 .594.043.844.129.25.082.463.215.639.398.18.184.316.422.41.715.094.29.141.643.141 1.06V19.5h-1.09v-4.166c0-.332-.049-.598-.147-.797a.898.898 0 0 0-.427-.44 1.537 1.537 0 0 0-.692-.14 1.61 1.61 0 0 0-.738.17 1.76 1.76 0 0 0-.568.469c-.157.199-.28.427-.37.685a2.504 2.504 0 0 0-.129.809Zm8.415 3.527c-.442 0-.842-.074-1.202-.223a2.73 2.73 0 0 1-.92-.638 2.842 2.842 0 0 1-.585-.973 3.561 3.561 0 0 1-.206-1.23v-.246c0-.516.077-.975.229-1.377a3.07 3.07 0 0 1 .621-1.032c.262-.28.559-.494.891-.638a2.554 2.554 0 0 1 1.031-.217c.453 0 .844.078 1.172.234.332.157.603.375.814.657.211.277.367.605.469.984.102.375.152.785.152 1.23v.487h-4.734v-.885h3.65v-.082a2.7 2.7 0 0 0-.175-.82 1.477 1.477 0 0 0-.469-.657c-.215-.171-.508-.257-.879-.257a1.477 1.477 0 0 0-1.213.615 2.31 2.31 0 0 0-.346.744 3.77 3.77 0 0 0-.123 1.014v.246c0 .3.041.584.123.85.086.261.209.492.369.69.165.2.362.356.592.47.235.113.5.17.797.17.383 0 .707-.079.973-.235.265-.156.498-.365.697-.627l.656.522c-.136.207-.31.404-.521.591-.211.188-.471.34-.779.457a3.018 3.018 0 0 1-1.084.176ZM62.426 27.95 56.777 43.5H54.47l6.504-17.063h1.488l-.035 1.512ZM67.16 43.5 61.5 27.95l-.035-1.512h1.488L69.481 43.5h-2.32Zm-.293-6.316v1.851h-9.586v-1.851h9.586Zm6.739-3.926v15.117h-2.18V30.82h1.992l.188 2.438Zm8.542 3.797v.246c0 .922-.109 1.777-.328 2.566a6.327 6.327 0 0 1-.96 2.04 4.371 4.371 0 0 1-1.536 1.347c-.61.32-1.308.48-2.097.48-.805 0-1.516-.132-2.133-.398a4.207 4.207 0 0 1-1.57-1.16 5.928 5.928 0 0 1-1.032-1.828 10.58 10.58 0 0 1-.515-2.403v-1.312c.093-.938.27-1.778.527-2.52.258-.742.598-1.375 1.02-1.898.43-.531.949-.934 1.558-1.207.61-.281 1.313-.422 2.11-.422.796 0 1.503.156 2.12.469a4.269 4.269 0 0 1 1.56 1.312c.421.57.737 1.254.948 2.051.22.789.328 1.668.328 2.637Zm-2.18.246v-.246a7.63 7.63 0 0 0-.199-1.782 4.5 4.5 0 0 0-.62-1.476 2.958 2.958 0 0 0-1.055-1.008c-.43-.25-.942-.375-1.535-.375-.547 0-1.024.094-1.43.281a3.091 3.091 0 0 0-1.02.762 4.041 4.041 0 0 0-.691 1.078 6.28 6.28 0 0 0-.387 1.242v3.035c.156.547.375 1.063.656 1.547.282.477.657.864 1.126 1.16.468.29 1.058.434 1.769.434.586 0 1.09-.121 1.512-.363.43-.25.781-.59 1.054-1.02.282-.43.489-.922.621-1.476.133-.563.2-1.16.2-1.793Zm7.114-4.043v15.117h-2.18V30.82h1.992l.188 2.438Zm8.543 3.797v.246a9.58 9.58 0 0 1-.328 2.566 6.35 6.35 0 0 1-.961 2.04 4.37 4.37 0 0 1-1.535 1.347c-.61.32-1.309.48-2.098.48-.805 0-1.516-.132-2.133-.398a4.207 4.207 0 0 1-1.57-1.16 5.926 5.926 0 0 1-1.031-1.828 10.585 10.585 0 0 1-.516-2.403v-1.312c.094-.938.27-1.778.528-2.52.257-.742.597-1.375 1.019-1.898a4.19 4.19 0 0 1 1.559-1.207c.609-.281 1.312-.422 2.109-.422.797 0 1.504.156 2.121.469a4.27 4.27 0 0 1 1.559 1.312c.421.57.738 1.254.949 2.051.219.789.328 1.668.328 2.637Zm-2.18.246v-.246a7.63 7.63 0 0 0-.199-1.782 4.502 4.502 0 0 0-.621-1.476 2.957 2.957 0 0 0-1.055-1.008c-.43-.25-.941-.375-1.535-.375-.547 0-1.023.094-1.43.281a3.091 3.091 0 0 0-1.02.762 4.043 4.043 0 0 0-.69 1.078 6.214 6.214 0 0 0-.387 1.242v3.035c.156.547.375 1.063.656 1.547a3.4 3.4 0 0 0 1.125 1.16c.469.29 1.059.434 1.77.434.585 0 1.09-.121 1.511-.363.43-.25.782-.59 1.055-1.02.281-.43.488-.922.621-1.476.133-.563.2-1.16.2-1.793Zm20.321 1.886c0-.398-.063-.75-.188-1.054-.117-.313-.328-.594-.633-.844-.297-.25-.711-.488-1.242-.715a17.291 17.291 0 0 0-1.992-.691 18.264 18.264 0 0 1-2.285-.832 7.968 7.968 0 0 1-1.746-1.067 4.206 4.206 0 0 1-1.114-1.37c-.257-.516-.386-1.106-.386-1.77 0-.664.136-1.278.41-1.84a4.297 4.297 0 0 1 1.172-1.465 5.674 5.674 0 0 1 1.84-.984c.71-.235 1.503-.352 2.378-.352 1.282 0 2.368.246 3.258.738.899.485 1.582 1.122 2.051 1.91a4.79 4.79 0 0 1 .703 2.508h-2.25c0-.64-.137-1.207-.41-1.699-.273-.5-.687-.89-1.242-1.172-.555-.289-1.258-.433-2.11-.433-.804 0-1.468.12-1.992.363-.523.242-.914.57-1.172.984a2.69 2.69 0 0 0-.375 1.418c0 .36.075.688.223.985.156.289.395.558.715.808.328.25.742.48 1.242.692.508.21 1.113.414 1.817.61.968.273 1.804.577 2.507.913.703.336 1.282.715 1.735 1.137.461.414.8.887 1.019 1.418.227.523.34 1.117.34 1.781 0 .695-.141 1.324-.422 1.887a4.094 4.094 0 0 1-1.207 1.441c-.523.399-1.152.707-1.887.926-.726.21-1.539.316-2.437.316a8.45 8.45 0 0 1-2.332-.328 6.945 6.945 0 0 1-2.074-.984 5.151 5.151 0 0 1-1.489-1.617c-.367-.649-.55-1.399-.55-2.25h2.25c0 .586.113 1.09.339 1.511.227.414.536.758.926 1.032.399.273.848.476 1.348.609a6.595 6.595 0 0 0 1.582.188c.789 0 1.457-.11 2.004-.329.547-.218.961-.53 1.242-.937.289-.406.434-.887.434-1.441Zm10.136-8.367v1.664h-6.855V30.82h6.855Zm-4.535-3.082h2.168V40.36c0 .43.067.754.199.973a.953.953 0 0 0 .516.434c.211.07.438.105.68.105.179 0 .367-.016.562-.047.203-.039.356-.07.457-.093l.012 1.769a5.074 5.074 0 0 1-.68.152 5.16 5.16 0 0 1-.996.082 3.382 3.382 0 0 1-1.465-.316c-.445-.211-.8-.563-1.066-1.055-.258-.5-.387-1.172-.387-2.015v-12.61Zm6.27 9.563v-.27c0-.914.133-1.761.398-2.543a6.05 6.05 0 0 1 1.149-2.05 5.122 5.122 0 0 1 1.816-1.36c.711-.328 1.508-.492 2.391-.492.89 0 1.691.164 2.402.492.719.32 1.328.774 1.828 1.36a5.924 5.924 0 0 1 1.16 2.05 7.85 7.85 0 0 1 .399 2.543v.27c0 .914-.133 1.761-.399 2.543a6.07 6.07 0 0 1-1.16 2.05 5.312 5.312 0 0 1-1.816 1.36c-.703.32-1.5.48-2.391.48s-1.691-.16-2.402-.48a5.425 5.425 0 0 1-1.828-1.36 6.202 6.202 0 0 1-1.149-2.05 7.87 7.87 0 0 1-.398-2.543Zm2.168-.27v.27c0 .633.074 1.23.222 1.793a4.73 4.73 0 0 0 .668 1.476c.305.43.684.77 1.137 1.02.453.242.98.363 1.582.363.594 0 1.113-.121 1.559-.363.453-.25.828-.59 1.125-1.02a4.73 4.73 0 0 0 .668-1.476c.156-.563.234-1.16.234-1.793v-.27c0-.625-.078-1.215-.234-1.77a4.563 4.563 0 0 0-.68-1.488 3.232 3.232 0 0 0-1.125-1.03c-.445-.25-.969-.376-1.57-.376-.594 0-1.118.125-1.571.375-.445.25-.82.594-1.125 1.031-.297.43-.519.926-.668 1.489a6.84 6.84 0 0 0-.222 1.77Zm14.261-4.218V43.5h-2.168V30.82h2.11l.058 1.992Zm3.961-2.063-.011 2.016a3.147 3.147 0 0 0-.516-.07 5.486 5.486 0 0 0-.539-.024c-.5 0-.941.078-1.324.234a2.747 2.747 0 0 0-.973.657 3.165 3.165 0 0 0-.633 1.007 4.866 4.866 0 0 0-.293 1.266l-.609.352c0-.766.074-1.485.223-2.157a5.869 5.869 0 0 1 .714-1.781c.321-.523.727-.93 1.219-1.219.5-.297 1.094-.445 1.781-.445.157 0 .336.02.539.059.204.03.344.066.422.105Zm7.032 12.984c-.883 0-1.684-.148-2.403-.445a5.45 5.45 0 0 1-1.84-1.277 5.686 5.686 0 0 1-1.171-1.946 7.121 7.121 0 0 1-.411-2.46v-.493c0-1.031.153-1.949.457-2.754.305-.812.719-1.5 1.243-2.062a5.317 5.317 0 0 1 1.781-1.277 5.115 5.115 0 0 1 2.062-.434c.907 0 1.688.156 2.344.469.664.312 1.207.75 1.629 1.312.422.555.734 1.211.938 1.969.203.75.304 1.57.304 2.46v.974h-9.469V36h7.301v-.164a5.403 5.403 0 0 0-.351-1.64 2.954 2.954 0 0 0-.938-1.313c-.43-.344-1.015-.516-1.758-.516a2.95 2.95 0 0 0-2.425 1.23c-.297.407-.528.903-.692 1.489-.164.586-.246 1.262-.246 2.027v.492c0 .602.082 1.168.246 1.7.172.523.418.984.738 1.383.329.398.723.71 1.184.937.469.227 1 .34 1.594.34.765 0 1.414-.156 1.945-.469a4.83 4.83 0 0 0 1.395-1.254l1.312 1.043a6.05 6.05 0 0 1-1.043 1.184c-.422.375-.941.68-1.558.914-.61.234-1.332.351-2.168.351Z"/>
</svg>
