<svg xmlns="http://www.w3.org/2000/svg" width="162" height="60" fill="none" viewBox="0 0 162 60">
  <path fill="#fff" fill-rule="evenodd" d="M94.562 38.096a5.274 5.274 0 1 0 0-10.548 5.274 5.274 0 0 0 0 10.548Zm0-2.26c1.248 0 2.26-1.35 2.26-3.014 0-1.665-1.012-3.014-2.26-3.014-1.249 0-2.26 1.35-2.26 3.014 0 1.664 1.011 3.014 2.26 3.014Z" clip-rule="evenodd"/>
  <path fill="#fff" d="M26 42.993h4.52l10.737-21.66L39.185 17 26 42.993Zm13.185-7.723-4.144 7.723h8.288l-4.144-7.723Zm2.26-5.085 6.404 12.808h4.52l-8.663-16.952-2.26 4.144Z"/>
  <path fill="#fff" fill-rule="evenodd" d="M60.28 37.907h3.58l1.13-3.201h5.085l1.13 3.201h3.39L69.7 24.157h-3.767l-5.651 13.75Zm5.275-5.462h4.144l-1.884-6.027-2.26 6.027Z" clip-rule="evenodd"/>
  <path fill="#fff" d="M75.726 26.418v-2.449h12.431v2.449H83.26v11.49h-3.013v-11.49h-4.521Zm26.37-3.202v14.691h2.449V35.46l1.695-1.695 2.825 4.143h3.579l-3.956-6.027 3.956-3.767h-3.767l-4.332 4.332v-9.23h-2.449Z"/>
  <path fill="#fff" fill-rule="evenodd" d="M118.86 27.736c-4.521 0-5.526 3.642-5.463 5.463 0 2.26 1.846 4.897 5.463 4.897 3.616 0 5.148-2.01 5.462-3.014h-3.202c-.063.377-.603 1.13-2.26 1.13-1.658 0-2.323-1.632-2.449-2.448h7.911v-1.13c.063-1.633-.942-4.898-5.462-4.898Zm.188 2.072c-1.959 0-2.449 1.381-2.449 2.072h4.898c0-.69-.49-2.072-2.449-2.072Z" clip-rule="evenodd"/>
  <path fill="#fff" d="M126.205 27.925v9.794h3.014v-6.216c0-.565.452-1.695 2.26-1.695.503 0 1.507.49 1.507 2.449v5.462H136v-7.91c0-.754-.603-2.261-3.014-2.261-2.411 0-3.516 1.256-3.767 1.884v-1.507h-3.014Z"/>
</svg>
