<svg xmlns="http://www.w3.org/2000/svg" width="163" height="60" fill="none" viewBox="0 0 163 60">
  <path fill="#fff" fill-rule="evenodd" d="m35.838 21.712 5.747 5.747 3.344-3.344L35.84 15l-9.092 9.091 3.344 3.345 5.747-5.724ZM21 29.838l3.344-3.344 3.368 3.344-3.368 3.368L21 29.838Zm26.332-3.344-3.345 3.344 3.368 3.345 3.345-3.345-3.368-3.344ZM35.838 37.987l-5.747-5.746-3.344 3.344 9.091 9.115 9.091-9.091-3.344-3.368-5.747 5.746Zm0-11.493-3.344 3.344 3.344 3.368 3.368-3.368-3.368-3.344Zm22.537 3.593h5.8c2.75 0 4.55-1.061 4.575-3.231v-.025c0-1.591-.875-2.363-2.275-2.893.875-.458 1.6-1.206 1.6-2.532v-.049c0-1.832-1.525-3.038-4.025-3.038h-5.675v11.768Zm5.25-9.501c1.125 0 1.75.434 1.75 1.205v.049c0 .892-.75 1.254-1.925 1.254h-2.475v-2.508h2.65Zm.475 4.654c1.375 0 1.975.482 1.975 1.278v.024c0 .868-.725 1.278-1.9 1.278h-3.2v-2.58H64.1Zm7.575-6.921v11.768h2.675V18.32h-2.675ZM80.6 22.61l5.9 7.476h2.3V18.32h-2.65v7.234l-5.725-7.234H77.95v11.768h2.65v-7.476Zm19.125 4.823 1.125 2.653h2.825l-5.25-11.865H95.95l-5.225 11.865h2.75l1.1-2.653h5.15Zm-4.2-2.266 1.625-3.81 1.625 3.81h-3.25Zm12.75-2.557 5.9 7.476h2.3V18.32h-2.65v7.234L108.1 18.32h-2.475v11.768h2.65v-7.476Zm10.8 1.833c.05 3.28 2.85 5.908 6.25 5.86 2.35 0 3.75-.82 5-2.098l-1.7-1.664c-.95.844-1.8 1.375-3.2 1.375-2.1 0-3.55-1.664-3.55-3.69v-.024c0-2.026 1.5-3.666 3.55-3.666 1.225 0 2.175.507 3.125 1.327l1.7-1.905c-1.125-1.061-2.5-1.809-4.8-1.809-3.75 0-6.375 2.725-6.375 6.077v.217Zm22.6-6.125h-9.2v11.768h9.275v-2.29h-6.625v-2.46h5.75V23.02h-5.75v-2.387h6.55v-2.315Zm-30.9 15.192h-1.5v8.32h6.05v-1.326h-4.55V33.51Zm13.25 8.344h1.6l-3.8-8.392h-1.4l-3.775 8.392h1.55l.875-2.001h4.075l.875 2.001Zm-4.4-3.303 1.475-3.328 1.5 3.328h-2.975Zm13.125-1.013c.625-.338 1.225-.869 1.225-1.881 0-1.303-1.1-2.147-2.825-2.147h-3.875v8.344h4c1.925 0 3.2-.795 3.2-2.29 0-1.134-.725-1.689-1.725-2.026Zm-1.825-2.701c.975 0 1.525.386 1.525 1.06 0 .772-.65 1.134-1.625 1.158h-2.075v-2.218h2.175Zm.225 3.448c1.2 0 1.775.41 1.775 1.134 0 .747-.625 1.133-1.65 1.157h-2.525v-2.29h2.4Zm11.35 1.206c0-1.399-.95-2.026-2.775-2.46-1.675-.386-2.05-.675-2.05-1.326 0-.555.525-.989 1.4-.989a4.108 4.108 0 0 1 2.35.868l.825-1.109a4.818 4.818 0 0 0-3.125-1.037c-1.725 0-2.95.989-2.95 2.436 0 1.543 1.05 2.074 2.875 2.508 1.6.337 1.95.675 1.95 1.278 0 .65-.575 1.06-1.525 1.06-1.075 0-1.9-.385-2.725-1.084l-.925 1.037c.975.868 2.275 1.326 3.6 1.326 1.8 0 3.075-.94 3.075-2.508Zm-36.85-2.484h-47.3v1.399h47.3v-1.399Z" clip-rule="evenodd"/>
</svg>
