<svg xmlns="http://www.w3.org/2000/svg" width="163" height="60" fill="none" viewBox="0 0 163 60">
  <path fill="#fff" d="M131.5 20.31h-5.201l-3.009 12.698-.423 1.742c-.29.08-.581.158-.871.211a8.463 8.463 0 0 1-1.663.159c-.66 0-1.188-.106-1.584-.29-.37-.185-.66-.45-.819-.82-.158-.342-.211-.765-.184-1.24.026-.475.132-1.003.264-1.531l1.584-6.6 1.029-4.382h-5.306l-2.402 10.137a18.763 18.763 0 0 0-.502 3.485c-.053 1.109.132 2.06.502 2.93.369.845 1.029 1.505 1.927 2.007.897.501 2.191.739 3.828.739 1.135 0 2.138-.106 2.983-.29.026 0 .079-.027.105-.027-.237 1.056-.712 1.9-1.452 2.56-.765.66-1.874 1.004-3.352 1.004-.634 0-1.215-.026-1.743-.106L114.182 47c.686.079 1.452.132 2.296.132 1.584 0 2.957-.185 4.145-.528 1.188-.37 2.191-.898 3.063-1.637.844-.74 1.557-1.663 2.138-2.746.581-1.109 1.03-2.402 1.373-3.933l3.59-15.101.713-2.878Zm-21.869 10.848a12.001 12.001 0 0 0-.29 3.986c.132 1.346.66 3.38 1.162 4.409h-5.016c-.608-1.03-.581-1.531-.713-1.848a9.504 9.504 0 0 1-2.165 1.32c-.792.343-1.663.528-2.666.528-1.162 0-2.165-.211-2.984-.607a5.636 5.636 0 0 1-2.032-1.637c-.528-.686-.898-1.478-1.136-2.402-.237-.924-.343-1.901-.343-2.957 0-1.61.29-3.116.845-4.541.58-1.426 1.373-2.666 2.376-3.722s3.458-3.406 7.471-3.406h8.052l-2.561 10.877Zm-3.669-6.468c-2.429 0-2.878 0-3.881.501-.713.37-1.294.924-1.795 1.558a7.477 7.477 0 0 0-1.215 2.218 7.998 7.998 0 0 0-.448 2.613c0 1.109.184 2.007.554 2.666.37.66 1.056.977 2.059.977.528 0 1.03-.105 1.452-.316.423-.212.898-.555 1.373-1.056.053-.581.132-1.188.238-1.822.105-.634.237-1.24.343-1.769l1.32-5.57Zm-13.888 3.267c0 1.716-.29 3.274-.845 4.7a10.809 10.809 0 0 1-2.35 3.67c-1.003 1.029-2.19 1.82-3.59 2.401-1.399.581-2.904.872-4.54.872-.793 0-1.585-.08-2.403-.212l-1.584 6.363h-5.2l6.045-25.397h6.943c1.32 0 2.455.211 3.38.607a6.59 6.59 0 0 1 2.349 1.637 6.625 6.625 0 0 1 1.346 2.429c.317.898.449 1.874.449 2.93Zm-12.751 7.207c.396.106.897.133 1.478.133.924 0 1.743-.159 2.508-.502.74-.343 1.4-.818 1.927-1.426.528-.607.924-1.346 1.241-2.19.29-.846.449-1.796.449-2.826 0-1.003-.211-1.874-.66-2.56-.449-.713-1.214-1.083-2.323-1.083h-2.06l-2.56 10.454Zm-10.83-.021c-.66 0-1.188-.106-1.584-.29-.37-.185-.66-.45-.818-.819-.158-.343-.211-.765-.185-1.24.027-.476.132-1.004.264-1.532l1.584-6.6h5.914l1.082-4.382h-5.94l1.373-5.544-5.544.871-3.511 14.837a18.795 18.795 0 0 0-.502 3.485c-.052 1.108.132 2.059.502 2.93.37.845 1.03 1.505 1.927 2.006.898.502 2.191.74 3.828.74 1.135 0 2.138-.106 2.983-.29.08-.027.211-.054.29-.08l1.083-4.514c-.37.132-.74.21-1.082.264a8.466 8.466 0 0 1-1.664.158ZM55.245 20.305 50.65 39.577h5.2l4.568-19.272h-5.174Zm5.688-2.216.792-3.353h-5.2l-.793 3.353h5.2ZM43.67 20.342c1.11 0 2.086.212 2.904.608a5.799 5.799 0 0 1 2.033 1.61 7.175 7.175 0 0 1 1.188 2.376c.264.898.396 1.874.396 2.93 0 1.61-.29 3.116-.898 4.568-.607 1.425-1.399 2.692-2.428 3.748a11.365 11.365 0 0 1-3.644 2.508 11.257 11.257 0 0 1-4.54.924c-.211 0-.581 0-1.109-.026a11.5 11.5 0 0 1-1.795-.159c-.687-.105-1.4-.237-2.139-.422a10.783 10.783 0 0 1-2.138-.766l6.046-25.396L42.958 12l-2.139 9.002c.475-.21.898-.37 1.373-.475.449-.132.95-.185 1.478-.185Zm-4.54 14.943c.818 0 1.584-.185 2.296-.608a6.315 6.315 0 0 0 1.875-1.584c.528-.66.95-1.425 1.24-2.244a8 8 0 0 0 .45-2.613c0-1.109-.185-1.98-.555-2.614-.37-.633-1.135-.924-2.139-.924-.316 0-.66.027-1.188.159-.528.105-.976.37-1.399.739l-2.27 9.583c.686.106 1.425.106 1.69.106Z"/>
</svg>
