<svg xmlns="http://www.w3.org/2000/svg" width="32" height="33" fill="none" viewBox="0 0 32 33">
  <path fill="#6C86AD" d="m25.062 26.232-.5.866.5-.866Zm2.732-.732-.866-.5.866.5Zm-.732-2.732.5-.866-.5.866Zm0-3.536.5.866-.5-.866Zm.732-2.732-.866.5.866-.5Zm-2.732-.732-.5-.866.5.866Zm-10.124 0 .5-.866-.5.866Zm-2.732.732.866.5-.866-.5Zm.732 2.732.5-.866-.5.866Zm0 3.536-.5-.866.5.866Zm-.732 2.732.866-.5-.866.5Zm2.732.732.5.866-.5-.866Zm-1.45-6.682-.5.866.5-.866Zm.525 1.054-.998-.066.998.066Zm2.651-4.592.557.83-.557-.83Zm-1.176.074-.5.866.5-.866Zm10.5 4.518.997-.066-.998.066Zm.524-1.054.5.866-.5-.866Zm-3.86 6.834-.443-.897.442.897Zm1.86-10.298-.5-.866.5.866Zm-1.176-.074-.557.83.557-.83Zm-.685-.396.443-.897-.443.897Zm.685 10.372-.557-.83.557.83Zm1.176-.074.5-.866-.5.866Zm-9.024 0-.5-.866.5.866Zm1.176.074.557-.83-.557.83Zm9.848-3.538-.5.866.5-.866Zm-.525-1.053-.998-.066.998.066ZM20 29a1 1 0 0 1-1-1h-2a3 3 0 0 0 3 3v-2Zm1-1a1 1 0 0 1-1 1v2a3 3 0 0 0 3-3h-2Zm0-.634V28h2v-.634h-2Zm1.78-2.209a4.985 4.985 0 0 1-.571.33l.885 1.794a6.99 6.99 0 0 0 .798-.462l-1.113-1.662Zm2.782.21-.55-.319-1 1.732.55.318 1-1.732ZM26.928 25a1 1 0 0 1-1.366.366l-1 1.732A3 3 0 0 0 28.66 26l-1.732-1Zm-.366-1.366A1 1 0 0 1 26.928 25l1.732 1a3 3 0 0 0-1.098-4.098l-1 1.732Zm-.55-.318.55.318 1-1.732-.55-.318-1 1.732ZM25 21c0 .111-.004.222-.01.331l1.995.13c.01-.152.015-.306.015-.461h-2Zm-.01-.331c.006.11.01.22.01.331h2c0-.155-.005-.309-.015-.462l-1.996.13Zm1.572-2.303-.55.318 1 1.732.55-.318-1-1.732ZM26.928 17a1 1 0 0 1-.366 1.366l1 1.732A3 3 0 0 0 28.66 16l-1.732 1Zm-1.366-.366a1 1 0 0 1 1.366.366l1.732-1a3 3 0 0 0-4.098-1.098l1 1.732Zm-.55.318.55-.318-1-1.732-.55.318 1 1.732Zm-2.803-.44c.198.098.388.209.57.33l1.113-1.66a6.99 6.99 0 0 0-.798-.463l-.885 1.794ZM21 14v.634h2V14h-2Zm-1-1a1 1 0 0 1 1 1h2a3 3 0 0 0-3-3v2Zm-1 1a1 1 0 0 1 1-1v-2a3 3 0 0 0-3 3h2Zm0 .634V14h-2v.634h2Zm-1.78 2.209c.183-.122.373-.233.571-.33l-.885-1.794a7 7 0 0 0-.799.462l1.114 1.662Zm-2.782-.209.55.318 1-1.732-.55-.318-1 1.732ZM13.072 17a1 1 0 0 1 1.366-.366l1-1.732A3 3 0 0 0 11.34 16l1.732 1Zm.366 1.366A1 1 0 0 1 13.072 17l-1.732-1a3 3 0 0 0 1.098 4.098l1-1.732Zm.55.318-.55-.318-1 1.732.55.318 1-1.732ZM15 21c0-.111.004-.222.01-.331l-1.995-.13c-.01.152-.015.306-.015.461h2Zm.01.331A6.035 6.035 0 0 1 15 21h-2c0 .155.005.309.015.462l1.996-.13Zm-1.572 2.303.55-.318-1-1.732-.55.318 1 1.732ZM13.072 25a1 1 0 0 1 .366-1.366l-1-1.732A3 3 0 0 0 11.34 26l1.732-1Zm1.366.366A1 1 0 0 1 13.072 25l-1.732 1a3 3 0 0 0 4.098 1.098l-1-1.732Zm.55-.318-.55.318 1 1.732.55-.318-1-1.732Zm2.803.44a4.985 4.985 0 0 1-.57-.33l-1.114 1.66c.255.171.522.326.8.463l.884-1.794ZM19 28v-.634h-2V28h2Zm-6.012-7.584c-.005-.003 0-.003.01.016.01.022.02.06.017.107l1.996.13c.048-.735-.271-1.551-1.023-1.985l-1 1.732Zm3.12-5.235a.22.22 0 0 1-.102.039c-.02.001-.023-.003-.018 0l-1 1.732c.753.434 1.62.301 2.233-.11l-1.114-1.66Zm10.877 5.357a.222.222 0 0 1 .017-.106c.01-.02.015-.02.01-.016l-1-1.732c-.752.434-1.07 1.25-1.023 1.985l1.996-.13Zm-13.97.924a.222.222 0 0 1-.017.106c-.01.02-.015.02-.01.016l1 1.732c.752-.434 1.07-1.25 1.023-1.985l-1.996.13ZM23 27.366c0 .006-.003.002.01-.016a.223.223 0 0 1 .084-.07l-.885-1.793c-.66.326-1.209 1.01-1.209 1.879h2Zm1.012-12.146c.005-.003.003.001-.018 0a.22.22 0 0 1-.102-.039l-1.113 1.662c.612.41 1.48.543 2.233.109l-1-1.732Zm-.918-.5a.223.223 0 0 1-.085-.07c-.012-.018-.009-.022-.009-.016h-2c0 .869.549 1.553 1.209 1.879l.885-1.794Zm.798 12.099a.22.22 0 0 1 .102-.039c.02-.001.023.003.018 0l1-1.732c-.753-.434-1.62-.301-2.233.11l1.113 1.66Zm-7.904-.039c-.005.003-.003-.001.018 0a.22.22 0 0 1 .101.039l1.114-1.662c-.612-.41-1.48-.543-2.233-.109l1 1.732ZM17 14.634c0-.006.003-.002-.01.016a.223.223 0 0 1-.084.07l.885 1.793c.66-.326 1.209-1.01 1.209-1.879h-2Zm-.094 12.647c.043.02.07.049.085.069.012.017.009.022.009.016h2c0-.869-.549-1.553-1.209-1.879l-.885 1.794Zm10.106-5.697c.005.003 0 .003-.01-.016a.222.222 0 0 1-.017-.106l-1.996-.13c-.048.734.271 1.55 1.023 1.984l1-1.732Z"/>
  <circle cx="20" cy="21" r="2" stroke="#6C86AD" stroke-linecap="round" stroke-width="2"/>
  <path fill="#9240FB" fill-rule="evenodd" d="M6.919 14a1 1 0 0 0 1 1h1.11a1 1 0 0 0 1-1v-.892c0-.424.273-.792.647-.992a4.64 4.64 0 0 0 .26-.151c.36-.224.816-.276 1.183-.064l.774.446a1 1 0 0 0 1.365-.366l.556-.962a1 1 0 0 0-.366-1.366l-.773-.447c-.367-.211-.55-.631-.537-1.054a4.776 4.776 0 0 0 0-.303c-.013-.424.17-.843.537-1.055l.773-.447a1 1 0 0 0 .366-1.366l-.556-.962a1 1 0 0 0-1.365-.366l-.774.446c-.367.212-.822.16-1.182-.064a4.648 4.648 0 0 0-.261-.15c-.374-.2-.646-.57-.646-.993V2a1 1 0 0 0-1-1H7.919a1 1 0 0 0-1 1v.892c0 .424-.273.792-.647.992a4.663 4.663 0 0 0-.26.151c-.36.224-.816.276-1.183.064l-.773-.446a1 1 0 0 0-1.366.366l-.556.962A1 1 0 0 0 2.5 6.347l.774.447c.366.212.55.631.536 1.055a4.737 4.737 0 0 0 0 .303c.013.423-.17.843-.536 1.055l-.774.446a1 1 0 0 0-.366 1.366l.556.962a1 1 0 0 0 1.366.366l.773-.446c.367-.212.823-.16 1.183.064.085.053.172.103.26.15.374.201.647.57.647.993V14Z" clip-rule="evenodd"/>
</svg>
