<svg xmlns="http://www.w3.org/2000/svg" width="163" height="54" fill="none" viewBox="0 0 163 54">
  <g fill="#fff" clip-path="url(#a)">
    <path d="M42.68 13.819c-3.582 1.518-7.038 3.01-10.493 4.478-.353.152-.681.304-1.035.456-1.69.734-1.69.734-2.043-1.012-.328-1.695-.656-3.39-1.034-5.06-.151-.684-.151-1.038.757-1.038 9.787.025 19.574.025 29.337 0 .68 0 .958.076.782.886a90.605 90.605 0 0 0-1.186 5.794c-.177 1.062-.555.986-1.362.632-3.658-1.568-7.366-3.086-11.074-4.655-.227-.101-.454-.177-.858-.33v17.61c0 .659.026 1.063-.883 1.063-.857 0-.908-.328-.908-1.037.026-5.465.026-10.93.026-16.42-.026-.405-.026-.81-.026-1.367Zm4.288-.658c0 .076-.025.127-.025.203 3.154 1.315 6.307 2.631 9.51 3.972.303-1.467.555-2.808.833-4.175H46.968Zm-7.012.177c0-.076-.025-.126-.025-.202h-9.434c-.505 0-.808.05-.656.683.227.936.403 1.898.58 2.834.1.48.252.708.832.455 2.876-1.29 5.777-2.505 8.703-3.77Z"/>
    <path d="M51.51 32.213c0 2.353-.026 4.706.024 7.085.026.708-.201.91-.908.91-4.717-.025-9.409-.025-14.126 0-.706 0-.908-.202-.908-.91.025-4.706.025-9.438 0-14.144 0-.708.177-.961.908-.91.706.05 1.438.05 2.144 0 .656-.026 1.035 0 1.035.885s-.404.986-1.06.86c-1.286-.228-1.59.278-1.539 1.543.101 3.29.076 6.579.026 9.843-.026.835.227 1.037 1.034 1.037 3.531-.05 7.063-.05 10.594 0 .833 0 1.035-.202 1.035-1.037-.05-3.416-.05-6.832 0-10.222.025-.936-.202-1.29-1.16-1.164-.606.076-1.186.203-1.186-.86s.58-.886 1.185-.886c2.901 0 2.901-.025 2.901 2.91v5.06Zm14.403-14.776v-3.643c0-.835.277-1.873-1.186-1.72-.177.024-.328-.127-.328-.304 0-.279.202-.33.429-.33 2.421.077 4.868-.303 7.265.279 1.311.304 2.32 1.113 2.951 2.353 2.245 4.327-.454 9.184-5.272 9.438-1.539.075-3.103.025-4.641 0-.253 0-.656.151-.732-.254-.076-.43.378-.43.63-.404.833.025.934-.405.909-1.114-.05-1.442-.025-2.884-.025-4.3Zm1.589-.05v4.3c0 .304-.152.659.303.861 1.311.607 3.733.076 4.792-1.088 1.413-1.569 1.791-4.731.757-6.806-1.06-2.125-2.926-2.556-5.096-2.48-.63.026-.781.228-.781.81.05 1.442.025 2.91.025 4.403Zm58.345-.431v4.428c0 .734-.201 1.594 1.009 1.518.177 0 .303.127.278.33-.025.227-.177.252-.353.252h-3.027c-.177 0-.328-.05-.379-.253-.025-.202.101-.329.278-.329.908-.025.731-.708.731-1.265 0-1.518-.025-3.036 0-4.554 0-.531-.151-.683-.706-.734-2.926-.177-2.926-.202-2.926 2.657 0 .961.025 1.948 0 2.91-.025.632.101.961.807.86.252-.026.656-.101.605.38-.025.354-.327.328-.58.328h-3.027c-.201 0-.454.025-.479-.278-.025-.278.202-.354.429-.354.782 0 .807-.481.782-1.088a138.287 138.287 0 0 1 0-4.555c0-.556 0-1.012-.757-.91-.227.025-.681.202-.706-.253-.025-.33.252-.709.605-.684.757.076.807-.329.934-.936.277-1.34 1.21-2.328 2.169-3.162.555-.481 1.463-.152 2.194-.178 2.069-.025 2.069 0 2.069 2.025.05 1.34.05 2.606.05 3.845Zm-1.513-4.554c-.555.05-1.06.152-1.589.177-1.514.05-2.271 1.038-1.943 2.53.101.405.303.405.606.43 2.85.355 3.153.102 3.002-2.783 0-.126-.051-.253-.076-.354ZM92.374 23.61c-1.236-1.517-1.59-1.543.479-3.01-1.64-1.417-1.942-2.48-1.06-3.795.934-1.417 3.002-2 4.566-1.215.48.253.858.48 1.287-.05.328-.405.782-.481 1.236-.304.277.101.151.455.176.683.076.709-.479.506-.857.582-.328.076-.555.202-.58.658-.177 2.226-.984 3.112-3.128 3.567-.253.051-.58.026-.707.152-.328.354-.933.658-.807 1.164.126.531.757.405 1.21.405.934 0 1.842-.025 2.776 0 .706.025 1.362.228 1.664.936.328.709.177 1.392-.277 2.024-1.085 1.569-3.658 2.58-5.55 2.15-.908-.202-1.614-.657-1.917-1.618-.328-1.038.43-1.417 1.035-1.898.151-.152.277-.304.454-.43Zm2.598.102c-.303 0-.58.025-.883 0-1.135-.152-1.69.633-1.816 1.493-.126.885.68 1.214 1.463 1.442.933.253 1.74 0 2.522-.455.656-.405 1.085-1.013.908-1.797-.176-.86-.983-.582-1.563-.658-.202-.05-.43-.025-.631-.025Zm1.16-5.465c-.025-1.265-.807-2.252-1.766-2.277-.908-.026-1.538.683-1.538 1.745 0 1.266.857 2.303 1.917 2.176.958-.1 1.463-.683 1.387-1.644ZM86.42 32.416c.58-.43.909-.658 1.237-.911 1.437-1.088 3.279-.683 4.01.987.757 1.72.858 3.567-.328 5.161-1.16 1.518-2.825 2.024-4.843 1.518 0 .557.05 1.113 0 1.62-.075 1.012-.05 1.872 1.337 1.67.177-.026.454 0 .454.278 0 .1-.126.253-.202.253-1.412.025-2.85 0-4.363-.177 1.74-.177 1.336-1.392 1.336-2.353.026-2.43 0-4.884 0-7.313 0-.556.177-1.29-.832-.986-.227.076-.429-.026-.454-.279-.05-.303.202-.303.378-.354.328-.101.656-.177.959-.278.908-.33 1.539-.33 1.312 1.164Zm.102 2.682v1.163c0 1.519.353 2.025 1.589 2.227 1.11.177 1.992-.354 2.346-1.594.378-1.316.353-2.682-.278-3.922-.48-.936-1.21-1.113-2.22-.683-1.463.633-1.665 1.72-1.438 2.809Zm-20.181-2.556c0 3.163 1.665 5.49 4.062 5.895 1.64.279 2.724-.278 3.48-1.745.127-.253.203-.608.43-.76.277-.202.857-.43.857.127 0 .709.025 1.594-.58 2.1-2.22 1.948-6.23 1.67-8.324-.48-2.094-2.151-2.27-6.2-.379-8.477 2.044-2.454 6.13-3.112 8.678-1.391.454.303.857 2.024.48 2.378-.354.354-.833.304-.985-.228-.252-.91-.68-1.594-1.589-1.948-.933-.38-1.867-.43-2.825-.228-1.74.355-2.977 1.848-3.204 3.897-.1.354-.1.734-.1.86Zm44.75-15.839c.681-.455 1.236-.81 1.791-1.189 1.387-.885 2.901-.253 3.052 1.367.151 1.593.076 3.188.076 4.782 0 .632-.051 1.189.832 1.163.227 0 .53.051.454.43-.05.279-.328.203-.504.203h-2.523c-.202 0-.429.05-.504-.253-.026-.203.075-.329.252-.354.681-.102.555-.608.555-1.063 0-1.316.025-2.606 0-3.922-.051-1.34-.807-1.77-2.018-1.24-1.06.481-1.791 1.088-1.564 2.455.151.936.025 1.923.025 2.91 0 .252-.151.607.277.733.278.101.833.025.631.531-.126.355-.605.152-.908.178-.706.025-1.438 0-2.144 0-.202 0-.454.025-.505-.253-.05-.253.177-.38.379-.38.757 0 .807-.455.807-1.088a130.71 130.71 0 0 1 0-4.428c0-.556.025-1.037-.782-.835-.177.051-.429.051-.479-.227-.076-.38.227-.38.479-.43.252-.076.479-.152.732-.228 1.261-.304 1.261-.304 1.589 1.138Zm20.709 5.82c.606-1.797 1.161-3.441 1.716-5.111.075-.203.176-.43.101-.582-.328-.81-.353-.81.63-.81.303 0 .58-.025.883 0 .303.026.782-.177.858.279.101.556-.454.303-.732.404-.454.152-.454.557-.605.886-1.287 3.188-2.497 6.401-3.86 9.564-.454 1.063-1.135 1.037-1.967.987-.631-.05-.404-.532-.404-.86 0-.33-.201-.709.454-.81 1.564-.228 2.397-1.847 1.817-3.29-.682-1.72-1.337-3.44-1.993-5.16-.252-.633-.303-1.443-1.312-1.418-.202 0-.277-.202-.227-.354.051-.177.227-.228.404-.228h2.774c.253 0 .53 0 .555.355 0 .303-.277.278-.479.278-.757.025-.504.48-.378.86a253.347 253.347 0 0 0 1.765 5.01Zm-24.367-3.188c0 2.505-1.917 4.453-4.364 4.427-2.068-.025-3.683-1.821-3.683-4.149 0-2.505 1.917-4.453 4.364-4.453 2.043 0 3.683 1.847 3.683 4.175Zm-1.513.126c.075-.455-.101-.986-.278-1.492-.378-1.19-1.438-1.974-2.522-1.924-1.337.076-1.817 1.038-2.069 2.176a5.981 5.981 0 0 0-.126 1.493c.101 1.822 1.362 3.264 2.775 3.214 1.311-.051 2.22-1.443 2.22-3.467ZM76.431 37.274c0-.962.303-1.594 1.236-1.873.732-.202 1.438-.48 2.145-.734.428-.151 1.084-.1 1.009-.86-.05-.607.15-1.315-.454-1.746-.58-.43-1.211-.151-1.817.051-.403.127-.353.557-.428.86-.127.456-.43.456-.782.43-.228-.025-.58.102-.606-.227-.05-.354-.227-.86.177-1.038 1.084-.506 2.093-1.315 3.355-1.29 1.311.025 1.891.557 1.967 1.948.076 1.29 0 2.606.025 3.897.026.657-.252 1.518.909 1.543.227 0 .327.278.252.506-.101.304-1.993.506-2.069.203-.378-1.468-1.06-.583-1.513-.178-.908.835-1.791.785-2.7.102-.58-.405-.756-1.013-.706-1.594Zm4.264-2.126c-.732.304-1.413.582-2.12.86-.807.33-.908.962-.58 1.645.328.683.934.582 1.514.354 1.337-.455 1.513-1.467 1.186-2.859Zm6.23-20.013c1.614.1 2.119.582 2.195 1.872.075 1.467.05 2.935.1 4.402.026.532-.075 1.14.782 1.114.328 0 .455.253.328.506-.15.38-1.967.48-2.068.101-.328-1.063-.807-.607-1.312-.177-.731.632-1.488 1.088-2.472.506-.807-.48-1.21-1.164-1.135-2.075.076-.86.454-1.493 1.388-1.695.655-.152 1.26-.455 1.917-.607.882-.177 1.311-.608 1.16-1.544-.101-.607-.177-1.24-.933-1.29-.782-.05-1.665-.101-1.817 1.037-.05.481-.428.456-.756.43-.253-.025-.656.127-.707-.303-.025-.304-.176-.784.152-.936 1.135-.506 2.169-1.265 3.178-1.341Zm.757 4.352c-.732.303-1.413.607-2.12.86-.806.303-.983.961-.705 1.62.328.784 1.009.632 1.69.379 1.311-.557 1.362-1.569 1.135-2.86Zm21.946 15.484v2.277c0 .33.025.683.328.886.277.177 1.009-.152.731.607-.101.304-1.867.506-1.942.253-.505-1.594-1.211-.531-1.741-.101-.984.835-1.866.531-2.699-.177-.731-.633-.757-1.923-.202-2.783.253-.38.606-.405.934-.532.63-.228 1.261-.43 1.917-.607.757-.228 1.438-.455 1.211-1.493-.127-.632-.152-1.34-.984-1.366-.782-.025-1.64-.05-1.766 1.088-.05.506-.454.405-.782.405-.277 0-.656.1-.681-.33-.025-.303-.177-.758.177-.91 1.16-.506 2.219-1.392 3.607-1.29 1.059.076 1.715.607 1.74 1.745.026.785.076 1.594.101 2.379.076-.05.051-.05.051-.05Zm-1.514.177c-.782.33-1.564.607-2.295.962-.732.329-.732.986-.48 1.594.278.607.858.582 1.413.404 1.286-.455 1.539-.961 1.362-2.96Zm6.054-2.53c0 1.543.025 3.112 0 4.655 0 .658-.076 1.29.883 1.24.177 0 .479.026.404.33-.051.252-.278.277-.48.277h-3.027c-.201 0-.428-.025-.428-.303 0-.203.176-.304.327-.304.984.05.883-.607.858-1.24v-8.172c0-.607.101-1.24-.858-1.088-.227.025-.428-.076-.403-.329.025-.126.176-.253.303-.329.151-.076.327-.076.479-.126 1.892-.582 1.892-.582 1.892 1.391.05 1.29.05 2.632.05 3.998ZM99.21 35.325c0-.632-.025-1.265 0-1.897.05-.835.1-1.645-1.16-1.392-.203.05-.505 0-.455-.253.05-.354.328-.658.681-.632.833.076 1.085-.253 1.085-1.063 0-.278.353-.531.555-.81.126-.151.277-.329.504-.278.278.076.202.329.202.531 0 .177.026.33 0 .506-.202 1.088.303 1.367 1.312 1.265.404-.025 1.211-.38 1.236.33.025.784-.807.404-1.186.379-1.059-.101-1.488.202-1.387 1.34.126 1.165.025 2.354.025 3.518 0 1.088.505 1.442 1.514 1.138.302-.076.656-.43.857.05.202.456-.327.482-.58.659-.378.253-.782.531-1.211.658-1.084.328-1.992-.38-2.017-1.544 0-.835.025-1.67.025-2.505Zm-19.55-18.04c.606-.683 1.11-1.163 1.539-1.745.404-.506.933-.43 1.387-.304.454.126.202.658.253 1.012.05.708-.48.48-.858.557-1.387.253-2.32 1.366-2.32 2.808 0 .557.025 1.088 0 1.645-.026.86-.127 1.745 1.21 1.543.252-.05.505.101.48.43-.026.278-.278.278-.48.278h-3.28c-.176 0-.453.051-.504-.227-.075-.38.252-.405.48-.405.731 0 .731-.455.731-.987a137.19 137.19 0 0 1 0-4.554c0-.557 0-1.037-.782-.784-.202.05-.429.05-.48-.228-.05-.278.102-.38.329-.405.05 0 .075-.025.126-.025 1.766-.81 1.942-.709 2.17 1.391Zm16.27 17.56v2.277c-.025.708-.151 1.467.984 1.391.177 0 .328.127.328.304a.356.356 0 0 1-.353.304h-3.153c-.177 0-.353-.051-.379-.253-.025-.254.177-.38.404-.38.833.025.757-.531.757-1.113-.025-1.468-.025-2.96 0-4.428 0-.531-.025-.962-.732-.81-.252.05-.555.026-.58-.303-.025-.354.328-.304.53-.38 2.068-.835 2.194-.733 2.194 1.468v1.923Zm.202-5.693c.05.86-.252 1.164-1.009 1.189-.757.025-.757-.38-.807-.936-.05-.709.278-.936.933-.962.63-.025.984.127.883.709Z"/>
  </g>
  <defs>
    <clipPath id="a">
      <path fill="#fff" d="M0 0h108v40H0z" transform="translate(28 7)"/>
    </clipPath>
  </defs>
</svg>
