<svg xmlns="http://www.w3.org/2000/svg" width="28" height="28" fill="none" viewBox="0 0 28 28">
  <path stroke="#fff" stroke-linecap="round" stroke-linejoin="round" stroke-width="2" d="M14.973 27c.019-.213.027-.427.027-.643 0-2.385-1.068-4.561-2.827-6.213C10.123 18.215 7.133 17 3.8 17c-.966 0-1.906.102-2.801.295M17 20c1.9-1.856 4.495-3 7.36-3 .91 0 1.796.116 2.64.334"/>
  <path fill="#B62FF5" fill-rule="evenodd" d="M17.56 6.318c0 2.293-1.102 4.404-2.955 6.084a.897.897 0 0 1-1.208 0c-1.854-1.68-2.957-3.791-2.957-6.084 0-2.293 1.103-4.404 2.957-6.085a.897.897 0 0 1 1.208 0c1.852 1.681 2.955 3.792 2.955 6.085Zm-6.944 3.928c1.54 1.293 2.498 2.89 2.873 4.562.13.584-.365 1.09-.958 1.007-2.065-.29-4.045-1.104-5.638-2.442-1.54-1.294-2.498-2.891-2.872-4.563-.13-.585.365-1.09.958-1.007 2.064.29 4.044 1.105 5.637 2.443Zm3.895 4.563c-.131.584.365 1.09.958 1.006 2.064-.29 4.044-1.104 5.637-2.442 1.54-1.294 2.498-2.891 2.872-4.562.131-.585-.364-1.09-.957-1.007-2.065.29-4.046 1.104-5.639 2.442-1.54 1.293-2.498 2.89-2.871 4.563Z" clip-rule="evenodd"/>
</svg>
