<svg xmlns="http://www.w3.org/2000/svg" width="32" height="32" fill="none" viewBox="0 0 32 32">
  <path fill="#fff" fill-rule="evenodd" d="M2.474 1.12a1 1 0 0 0-1.355 1.354L4.28 8.34A13.94 13.94 0 0 0 1.999 16c0 7.732 6.269 14 14 14 3.133 0 6.027-1.03 8.36-2.768l4.104 2.612a1 1 0 0 0 1.38-1.38l-2.611-4.106A13.942 13.942 0 0 0 30 16c0-7.731-6.268-14-14-14a13.94 13.94 0 0 0-7.66 2.28L2.473 1.12Zm3.6 6.336L4.46 4.46l3.47 1.87a1 1 0 0 0 1.058-.07A11.941 11.941 0 0 1 16 4c6.628 0 12 5.373 12 12 0 2.841-.985 5.45-2.634 7.504a2 2 0 0 1-.199-1.337l.158-.79a2 2 0 0 0-.361-1.593l-.563-.75a2 2 0 0 1-.4-1.2V11a1 1 0 0 0-1-1h-2.18a2.82 2.82 0 0 0-2.82 2.82 3.526 3.526 0 0 1-1.95 3.154L16 16l-.051.025a3.526 3.526 0 0 0-1.95 3.154 2.82 2.82 0 0 1-2.82 2.82L8.999 22a1 1 0 0 1-1-1v-6.833a2 2 0 0 0-.4-1.2l-.563-.752a2 2 0 0 1-.361-1.592L7 9l-.926-1.543Zm15.834 14.133-.738-3.32c-.045-.203-.33-.212-.387-.012l-.556 1.944a1 1 0 0 0 .515 1.169l.882.44a.2.2 0 0 0 .284-.221Z" clip-rule="evenodd"/>
  <path fill="#2F8AF5" d="m10.091 10.409.738 3.32c.045.203.33.211.387.012l.556-1.944a1 1 0 0 0-.514-1.17l-.882-.44a.2.2 0 0 0-.285.222Z"/>
</svg>
