<svg xmlns="http://www.w3.org/2000/svg" width="163" height="60" fill="none" viewBox="0 0 163 60">
  <path fill="#fff" fill-rule="evenodd" d="M30.694 22.186c-.137-.273-.479-.342-.752-.205-.205.205-.342.48-.205.753.137.274.478.342.752.205.273-.137.341-.479.205-.753ZM28.37 37.52c.205.274.547.41.888.205.274-.137.41-.547.274-.89-.205-.274-.547-.41-.889-.205-.342.205-.478.547-.273.89Zm9.637 5.065-1.093-.069c0-.068 0-.205-.137-.273-.205-.274-.547-.411-.888-.206-.274.206-.41.548-.206.89.206.274.547.41.89.206.204-.069.273-.206.34-.411l1.095.068c0 .137.068.343.136.48.274.547.957.684 1.436.41.546-.274.683-.958.41-1.437-.274-.548-.957-.685-1.436-.411-.068 0-.136.069-.205.137l-3.212-2.807a.623.623 0 0 0 0-.684c-.205-.274-.547-.41-.889-.205-.342.205-.478.547-.273.89l.205.205-.615 1.506c-.274-.137-.547-.069-.82.068-.547.274-.684.959-.41 1.438.273.547.956.684 1.435.41.546-.273.683-.958.41-1.437-.069-.205-.274-.342-.41-.41l.615-1.507c.137.069.342 0 .478-.068l.069-.069 3.28 2.807a.74.74 0 0 0-.205.479ZM36.505 22.46l1.093-1.985c.137.069.342.069.41-.068.342-.206.479-.548.274-.89-.205-.274-.547-.41-.889-.206-.273.206-.41.548-.205.89 0 .069.069.137.137.206l-1.094 1.985c-.136-.069-.341-.137-.478-.069l-1.23-3.354c.41-.274.546-.753.341-1.163a.947.947 0 0 0-1.162-.274c-.41.274-.547.753-.342 1.163.206.343.616.48.957.411l1.23 3.354c-.41.274-.546.753-.341 1.164a.948.948 0 0 0 1.162.274c.41-.274.547-.753.342-1.164 0-.105-.08-.17-.148-.225a.754.754 0 0 1-.057-.049Zm-1.64 13.895h.614c-.341-.41-.615-.821-.751-1.232l-.085-.223c-.175-.458-.335-.88-.394-1.351-1.23.821-1.845 1.642-1.709 2.122.137.41 1.026.616 2.324.684Zm6.014.137a30.18 30.18 0 0 1-3.076.616 6.45 6.45 0 0 0 2.94.89c.068-.274.273-.548.546-.685.616-.41 1.504-.137 1.846.48.068 0 .068.068.068.068 1.162-.137 2.188-.48 3.076-1.027-.205-.479.069-1.095.547-1.369a1.236 1.236 0 0 1 1.094-.068c.341-.48.683-1.027.888-1.643a55.066 55.066 0 0 1-4.716 1.848c-.866.271-1.732.5-2.564.718l-.649.172Zm5.674-10.678c-.137-.274-.206-.616-.137-.89-1.23-.479-2.53-.684-3.691-.753a1.934 1.934 0 0 1-.342.069 2.01 2.01 0 0 0-.342.068c-.068.41-.273.822-.683 1.027-.547.274-1.162.205-1.572-.137-.615.342-1.23.821-1.777 1.3-.547.48-.957.959-1.368 1.506 0 .035.017.052.035.069.017.017.034.034.034.068.342.616.136 1.438-.479 1.78-.205.205-.478.205-.752.205-.136.411-.273.822-.341 1.164-.069.137-.069.205-.069.342 2.734-1.711 5.742-2.943 8.886-3.765 0-.273.205-.547.479-.752.478-.343 1.162-.206 1.503.273.206.274.274.548.206.89-.069.274-.137.48-.479.685-.342.205-1.094.205-1.435-.206-3.281.89-6.426 2.19-9.228 4.039.068.616.205 1.232.478 1.78.274.615.684 1.163 1.162 1.642a34.548 34.548 0 0 0 3.965-.684c.957-.206 2.05-.548 3.144-.89.684-.205 3.144-1.164 5.4-2.259.068-.068.068-.205.068-.274 0-.41 0-.684-.136-.89-.547.343-1.3.137-1.64-.41 0 0-.07-.069-.07-.137-.478 0-1.025.137-1.571.274-1.71.41-3.623 1.3-4.853 1.916 0 .48-.205.89-.616 1.164-.546.342-1.298.137-1.64-.41-.342-.548-.137-1.301.41-1.644a1.235 1.235 0 0 1 1.435.137c1.3-.616 3.282-1.505 5.059-1.985l.41-.083c.521-.107 1-.204 1.435-.259.069-.205.274-.41.479-.547.547-.343 1.298-.137 1.64.41.137.206.137.48.137.685.273.342.41.89.41 1.574 1.982-1.095 3.554-2.259 3.28-3.286-.136-.273-.614-.479-1.366-.616a.933.933 0 0 0-.03.114c-.028.124-.043.19-.312.297-1.64.685-2.324-1.232-1.23-1.916.341-.206 1.23-.206 1.572.136.068.069.136.137.136.206 1.163.205 1.914.616 2.188 1.3v.137c.41 1.78-1.846 3.491-4.443 4.792-.274 1.095-.752 1.985-1.367 2.806l.02.082c.06.234.11.425.048.67l2.53.754a.7.7 0 0 1 .341-.41c.137-.07.342-.07.547-.07l.683-2.463c-.136-.069-.273-.137-.341-.274-.206-.343-.069-.753.273-.959.342-.136.752-.068.957.274.068.137.068.274.068.411l1.64.342c.07-.205.274-.41.48-.547.478-.274 1.093-.137 1.366.342.274.479.137 1.095-.342 1.369-.478.274-1.093.137-1.367-.342-.136-.206-.136-.411-.136-.616l-1.64-.343c0 .137-.137.274-.274.343-.137.068-.273.068-.41.068l-.684 2.464a.7.7 0 0 1 .41.342.83.83 0 0 1-.136 1.027l1.435 1.848c.273-.137.615-.068.752.206.137.273.068.616-.205.753-.273.136-.615.068-.752-.206-.068-.068-.068-.137-.068-.205l-4.375-.548a1.061 1.061 0 0 1-.41.548.989.989 0 0 1-.752.068l-1.094 1.985c.035.035.052.069.069.103a.374.374 0 0 0 .068.103c.137.342.069.684-.273.89-.342.205-.684.136-.889-.206-.137-.342-.068-.684.273-.89.206-.137.342-.137.547-.068l.889-2.122-.205-.205-3.896 2.258c.137.343 0 .685-.274.822-.341.205-.683.137-.888-.206-.137-.342-.069-.684.273-.89.274-.205.615-.136.82.138l3.896-2.26c-.205-.342 0-.82.342-1.026.41-.274.957-.137 1.162.274.069.137.137.274.137.41l4.375.548a.361.361 0 0 0 .068-.103c.017-.034.034-.068.068-.102l-1.435-1.848c-.41.273-.957.136-1.162-.274-.069-.137-.069-.342-.069-.548l-2.529-.753c-.136.274-.273.48-.546.616-.41.206-.889.206-1.23 0-1.026.616-2.188 1.027-3.555 1.232-.068.411-.273.685-.615.89-.615.41-1.504.137-1.846-.479a.52.52 0 0 1-.137-.274 7.713 7.713 0 0 1-3.417-1.026c-.273-.137-.547-.343-.82-.548-.547.068-1.094.068-1.572.068-1.778 0-2.94-.479-3.281-1.369v-.136c-.274-1.027.683-2.328 2.529-3.56 0-.292.05-.584.107-.92l.03-.175c.068-.24.136-.462.204-.684.069-.223.137-.445.206-.685a.842.842 0 0 1-.103-.137.944.944 0 0 0-.103-.137.52.52 0 0 1-.136-.274l-1.846.548c.069.274-.068.548-.342.685-.341.136-.751.068-.957-.274-.068-.137-.068-.343-.068-.48l-2.05-.752c-.069.137-.206.273-.41.41-.479.274-1.094.137-1.368-.342-.273-.479-.136-1.095.342-1.369.479-.274 1.094-.137 1.367.342.137.274.205.48.137.753l2.05.753a.534.534 0 0 1 .274-.274c.068-.068.205-.068.342-.068l.546-3.012c-.205-.068-.341-.205-.478-.41-.205-.411-.068-.959.342-1.164.41-.274.957-.137 1.162.274.205.41.068.958-.342 1.163-.137.137-.342.137-.478.137l-.547 3.012a.7.7 0 0 1 .41.342v.069l1.914-.548c-.069-.547.136-1.027.615-1.3.342-.137.615-.206.957-.137.478-.616.957-1.164 1.572-1.712.615-.547 1.23-1.026 1.914-1.369-.069-.547.137-1.163.683-1.437.615-.342 1.436-.137 1.846.48.273-.07.547-.138.82-.138a8.286 8.286 0 0 1 4.238.685c.068 0 .137-.069.205-.137.615-.41 1.504-.137 1.846.48.41.684.205 1.505-.479 1.847-.615.41-1.504.137-1.845-.479Zm3.212-4.791.82 2.122c-.41.273-.546.753-.273 1.095.205.41.684.547 1.299.274.273-.206.478-.48.41-.822l4.306-1.095v.068c.137.206.342.343.547.343l.615 4.654c-.068 0-.137 0-.205.069l-2.119-2.67a.83.83 0 0 0 .137-1.027.947.947 0 0 0-1.162-.273c-.41.273-.547.753-.342 1.163a.947.947 0 0 0 1.162.274l2.119 2.67a.83.83 0 0 0-.137 1.026.947.947 0 0 0 1.162.274c.41-.274.547-.753.342-1.164-.137-.273-.478-.41-.752-.41l-.615-4.655c.034 0 .051-.017.068-.034.017-.017.034-.034.069-.034.341-.206.478-.548.273-.89-.205-.274-.547-.41-.889-.205-.273.137-.341.342-.341.616l-4.306 1.095-.069-.069a.533.533 0 0 0-.273-.273l1.162-2.396c.136.068.342 0 .478-.069.274-.205.41-.547.205-.89-.205-.273-.547-.41-.888-.205-.342.206-.479.548-.274.89l.205.205-1.162 2.396c-.074 0-.14-.009-.199-.017-.105-.015-.192-.027-.28.017l-.888-2.122c.274-.205.41-.616.205-.89-.205-.273-.547-.41-.888-.205-.205.137-.342.274-.342.48l-2.46.068c0-.137-.07-.274-.138-.411-.068-.137-.136-.205-.204-.274l1.64-2.122c.205.137.41.137.615 0 .342-.205.479-.547.273-.89-.205-.273-.546-.41-.888-.205-.342.205-.478.548-.273.89 0 .034.017.051.034.068.017.017.034.034.034.069l-1.572 2.122a1.048 1.048 0 0 0-1.094 0 1.146 1.146 0 0 0-.547.753l-2.529-.206c0-.068 0-.205-.068-.274l-.205-.205.957-2.053c.205.068.478.068.683-.069.41-.274.547-.753.342-1.163-.273-.411-.752-.548-1.162-.343-.41.274-.547.753-.342 1.164.069.137.205.274.342.205l-.957 2.054c-.137-.069-.342 0-.478.068-.342.206-.479.548-.274.89.205.274.547.41.889.205.177-.059.252-.22.313-.35l.029-.06 2.529.205c0 .137.068.342.136.48.274.547.957.684 1.436.41a.89.89 0 0 0 .547-.821l2.46-.069c0 .069 0 .137.069.205.136.274.41.411.683.343ZM135 20.954l-4.169 6.297v4.176h-1.846V27.32l-4.17-6.297h2.188l2.939 4.586 2.939-4.655H135Zm-15.448 5.134 3.76 5.339h-2.256l-2.734-3.97-2.734 3.97h-2.119l3.828-5.27-3.623-5.134h2.187l2.598 3.764 2.597-3.764h2.119l-3.623 5.065ZM104.72 27.25h3.622l-1.845-4.175-1.777 4.175Zm1.025-6.297h1.709l4.511 10.473h-1.914l-1.025-2.533h-4.921l-1.094 2.533h-1.846l4.58-10.473Zm-6.357 10.473h-7.314V21.023h1.846v8.761h5.468v1.643ZM82.3 27.25h3.623l-1.846-4.175L82.3 27.25Zm.957-6.297h1.709l4.511 10.473h-1.914l-1.025-2.533h-4.921l-1.094 2.533h-1.846l4.58-10.473Zm51.196 19.508h-3.212v-4.586h.82v3.833h2.392v.753Zm-13.875-1.78h1.572l-.821-1.848-.751 1.848Zm.41-2.806h.752l1.982 4.586h-.82l-.479-1.095h-2.187l-.479 1.095h-.82l2.051-4.586Zm-8.613.753h-1.435v3.833h-.82v-3.833h-1.436v-.753h3.691v.753Zm-11.278 3.833h-.82v-4.586h.82v4.586Zm-8.612-2.533v1.917a1.051 1.051 0 0 1-.41.274 3.403 3.403 0 0 1-.24.102c-.085.035-.17.069-.239.103a2.122 2.122 0 0 1-.273.069 2.138 2.138 0 0 0-.274.068c-.137.069-.342.069-.547.069a2.18 2.18 0 0 1-.956-.206c-.274-.068-.547-.274-.752-.479-.206-.205-.342-.48-.479-.753l-.03-.146c-.057-.278-.107-.52-.107-.812 0-.274.069-.616.206-.89.136-.274.273-.548.478-.753.205-.205.478-.342.752-.48a2.18 2.18 0 0 1 .957-.205c.113 0 .225.021.327.04.083.015.158.029.22.029.074 0 .14.009.199.017.105.015.192.027.279-.017l.41.205c.069.069.205.206.342.274l-.478.616a.949.949 0 0 0-.137-.102c-.052-.035-.103-.069-.137-.103a.343.343 0 0 0-.137-.069c-.05-.017-.102-.034-.136-.068-.069 0-.12-.017-.171-.034-.052-.017-.103-.035-.171-.035-.137-.068-.273-.068-.41-.068-.205 0-.41.068-.615.137-.206.068-.342.205-.479.342-.04.061-.082.117-.12.17a1.328 1.328 0 0 0-.222.378c-.068.205-.136.41-.136.616 0 .274.068.479.136.684.069.206.205.41.342.548.137.137.273.274.479.342.136.069.41.137.615.137.205 0 .41 0 .615-.068.205-.069.342-.137.478-.274v-.89h-1.162v-.685h1.983Zm-11.962 2.533h-.82v-4.586h.82v4.586Zm-9.501-1.643c.068-.205.137-.41.137-.616 0-.274-.069-.479-.137-.616-.069-.205-.205-.342-.342-.479-.137-.137-.273-.274-.478-.342-.205-.069-.41-.137-.684-.137h-.889v3.149h.89c.272 0 .478-.069.683-.137.205-.069.341-.206.478-.343.137-.137.273-.273.342-.479Zm.752-1.506c.136.274.205.548.205.89 0 .274-.069.616-.205.822-.069.273-.274.547-.479.753-.205.205-.478.41-.82.479a2.18 2.18 0 0 1-.957.205H67.81v-4.586h1.71c.34 0 .683.068 1.024.205.274.137.547.274.752.48.205.205.41.41.479.752ZM76.49 25.61v4.38a9.83 9.83 0 0 1-.888.616c-.342.206-.684.411-1.026.548a5.765 5.765 0 0 1-1.162.342c-.41.069-.82.137-1.299.137a5.913 5.913 0 0 1-2.187-.41c-.683-.274-1.23-.685-1.709-1.164-.478-.48-.82-1.027-1.093-1.711-.274-.616-.41-1.37-.41-2.122 0-.685.136-1.37.41-2.054.273-.684.615-1.3 1.093-1.78.479-.479 1.026-.89 1.71-1.163a5.662 5.662 0 0 1 2.186-.41c.41 0 .89 0 1.368.136.341.069.683.137 1.025.274.273.068.615.205.888.41l.82.617-1.161 1.369a3.76 3.76 0 0 0-.616-.48 3.19 3.19 0 0 0-.683-.342 11.117 11.117 0 0 0-.752-.205c-.273-.069-.547-.069-.889-.069-.478 0-.956.069-1.366.274-.41.206-.82.48-1.094.822a4.746 4.746 0 0 0-.684 1.163c-.205.48-.273.959-.273 1.438 0 .547.137 1.026.273 1.506.205.41.41.821.752 1.163.274.274.684.548 1.094.753.41.206.888.274 1.435.274.479 0 .957-.069 1.367-.205.41-.137.752-.343 1.094-.548v-1.985h-2.666V25.61h4.443Z" clip-rule="evenodd"/>
</svg>
