<svg xmlns="http://www.w3.org/2000/svg" width="32" height="32" fill="none" viewBox="0 0 32 32">
  <path fill="#fff" fill-rule="evenodd" d="M13.208 27a2 2 0 0 1-2-2c0-.367-.263-.676-.614-.786a4.42 4.42 0 0 1-2.074-1.353 4.895 4.895 0 0 1-.86-1.498.988.988 0 0 0-.354-.475l-.052-.036-.018-.012c-.106-.072-.508-.341-.791-.723A2.217 2.217 0 0 1 6 18.77c.007-.642.29-1.122.537-1.415a2 2 0 0 1 .595-.476.609.609 0 0 0 .308-.714 8.119 8.119 0 0 1-.386-2.52c0-1.272.302-2.5.91-3.594.115-.208.164-.446.143-.682a6.657 6.657 0 0 1 .055-1.605 6.876 6.876 0 0 1 .341-1.318l.057-.149a2 2 0 0 1 1.686-1.278c1.308-.12 2.482.351 3.202.72.085.043.166.087.245.13.215.12.463.166.707.13a14.26 14.26 0 0 1 2.128-.153c.754 0 1.474.054 2.158.16.242.037.49-.008.704-.125.112-.06.23-.121.353-.18.712-.345 1.812-.75 3.036-.637a2 2 0 0 1 1.692 1.299 6.91 6.91 0 0 1 .384 1.42c.07.443.11.974.064 1.562-.018.235.033.47.149.675A7.359 7.359 0 0 1 26 13.653c0 1.729-.495 3.455-1.693 4.866a7.275 7.275 0 0 1-1.903 1.578 1.252 1.252 0 0 0-.6 1.173c.009.13.013.262.013.393V25a2 2 0 0 1-2 2h-6.609Zm6.61-5.337a3.42 3.42 0 0 0-.256-1.3c-.213-.519.024-1.245.556-1.423.274-.091.531-.194.774-.307C23.06 17.619 24 15.768 24 13.653c0-1.116-.31-2.161-.922-3.046a1.322 1.322 0 0 1-.208-.983c.225-1.258-.164-2.277-.262-2.533a.06.06 0 0 0-.052-.039c-1.039-.08-2.1.488-2.687.871a1.182 1.182 0 0 1-.895.17 11.49 11.49 0 0 0-2.446-.247c-.884 0-1.692.082-2.42.238-.314.067-.644 0-.911-.178-.58-.384-1.673-.983-2.74-.898a.046.046 0 0 0-.04.03c-.094.242-.505 1.295-.257 2.59.066.344-.004.704-.2.993-.601.88-.906 1.914-.906 3.024 0 1.174.288 2.266.916 3.18.45.656 1.076 1.22 1.896 1.656a7.2 7.2 0 0 0 .963.42c.564.198.817.98.604 1.54l-.053.15a.476.476 0 0 1-.352.332 4.167 4.167 0 0 1-.296.045c-.696.08-1.595-.005-2.115-.791l-.118-.174a8.135 8.135 0 0 0-.307-.417l-.01-.012a5.738 5.738 0 0 0-.248-.292c-.411-.451-.801-.706-1.18-.76a1.073 1.073 0 0 0-.515.05c-.12.043-.262.13-.235.256.023.11.153.215.328.338l.108.074c.291.2.66.453.885.844.034.058.067.158.108.286.044.134.097.298.173.476v.001c.263.614.794 1.38 2.117 1.58.115.018.235.03.36.04.599.039 1.125.488 1.125 1.087V24a1 1 0 0 0 1 1h4.61a1 1 0 0 0 1-1v-2.337Zm-12.212-.557Zm-.109-.22Z" clip-rule="evenodd"/>
</svg>
