<svg xmlns="http://www.w3.org/2000/svg" width="200" height="59" fill="none" viewBox="0 0 200 59">
  <path fill="#fff" d="M16 43.29V15.71c0-1.067.46-1.804 1.377-2.21l16.069 16-16.069 16C16.46 45.043 16 44.306 16 43.29Zm22.573-8.685-17.6 10.057 13.85-13.79 3.75 3.733Zm5.432-7.01c.663.508.995 1.143.995 1.905s-.306 1.397-.918 1.905l-3.75 2.133L36.2 29.5l4.133-4.038 3.672 2.133ZM20.974 14.338l17.599 10.057-3.75 3.734-13.85-13.79Zm43.45.914v3.123a2.769 2.769 0 0 1-.504.527c-.23.192-.549.36-.955.504-.403.14-.922.211-1.559.211-.52 0-.998-.09-1.435-.27a3.24 3.24 0 0 1-1.131-.796 3.734 3.734 0 0 1-.738-1.278c-.172-.503-.258-1.074-.258-1.71V14.9c0-.636.074-1.205.222-1.705.153-.5.375-.924.668-1.271a2.798 2.798 0 0 1 1.078-.797c.426-.184.915-.275 1.465-.275.653 0 1.198.113 1.635.34.441.222.785.53 1.031.925.25.395.41.844.48 1.348h-1.13a2.373 2.373 0 0 0-.305-.844 1.63 1.63 0 0 0-.638-.61c-.278-.155-.635-.234-1.073-.234-.394 0-.736.073-1.025.217-.29.145-.527.352-.715.621a2.91 2.91 0 0 0-.422.979c-.09.383-.135.814-.135 1.295v.674c0 .492.057.931.17 1.318.118.387.284.717.498.99.215.27.471.475.768.615.3.141.633.211.996.211.403 0 .729-.033.979-.1.25-.07.445-.152.586-.245.14-.098.248-.19.322-.276v-1.91h-1.975v-.914h3.1Zm4.342 4.365c-.442 0-.842-.074-1.202-.223a2.723 2.723 0 0 1-.92-.638 2.841 2.841 0 0 1-.585-.973 3.568 3.568 0 0 1-.206-1.23v-.246c0-.516.077-.975.229-1.377.152-.407.36-.75.621-1.032a2.66 2.66 0 0 1 .89-.638 2.557 2.557 0 0 1 1.032-.217c.453 0 .844.078 1.172.234.332.157.603.375.814.657.211.277.367.605.47.984a4.7 4.7 0 0 1 .151 1.23v.487h-4.734v-.885h3.65v-.082a2.704 2.704 0 0 0-.175-.82 1.475 1.475 0 0 0-.47-.657c-.214-.171-.507-.257-.878-.257a1.475 1.475 0 0 0-1.213.615 2.302 2.302 0 0 0-.346.744 3.77 3.77 0 0 0-.123 1.014v.246c0 .3.041.584.123.85.086.261.21.492.37.69.164.2.36.356.591.47.235.113.5.17.797.17.383 0 .707-.079.973-.235.266-.156.498-.365.697-.627l.656.522c-.136.207-.31.404-.521.591-.211.188-.47.34-.78.457a3.017 3.017 0 0 1-1.083.176Zm6.386-6.457v.832h-3.427v-.832h3.427Zm-2.267-1.54h1.084v6.31c0 .215.033.377.1.486.066.11.152.182.257.217.106.035.219.053.34.053.09 0 .184-.008.281-.024.102-.02.178-.035.229-.047l.006.885a2.55 2.55 0 0 1-.34.076 2.587 2.587 0 0 1-.498.041c-.266 0-.51-.053-.733-.158a1.179 1.179 0 0 1-.533-.527c-.129-.25-.193-.586-.193-1.008v-6.305Zm7.693 1.54v6.34h-1.09v-6.34h1.09Zm-1.172-1.681c0-.176.053-.325.158-.446.11-.12.27-.181.48-.181.208 0 .366.06.475.181.114.121.17.27.17.446a.613.613 0 0 1-.17.433c-.109.117-.267.176-.474.176-.211 0-.371-.059-.48-.176a.638.638 0 0 1-.159-.434Zm5.567 1.681v.832h-3.428v-.832h3.428Zm-2.268-1.54h1.084v6.31c0 .215.033.377.1.486a.47.47 0 0 0 .258.217c.105.035.218.053.34.053.09 0 .183-.008.28-.024.102-.02.178-.035.23-.047l.005.885a2.55 2.55 0 0 1-.34.076 2.587 2.587 0 0 1-.498.041 1.69 1.69 0 0 1-.732-.158 1.179 1.179 0 0 1-.534-.527c-.129-.25-.193-.586-.193-1.008v-6.305Zm6.229 4.78v-.134c0-.457.066-.881.199-1.272a3.02 3.02 0 0 1 .574-1.025c.25-.293.553-.52.908-.68a2.819 2.819 0 0 1 1.196-.246c.445 0 .845.082 1.2.246.36.16.665.387.915.68.254.289.447.63.58 1.025.133.39.2.815.2 1.272v.134c0 .457-.067.881-.2 1.272-.133.39-.326.732-.58 1.025a2.66 2.66 0 0 1-.908.68c-.352.16-.75.24-1.196.24a2.89 2.89 0 0 1-1.2-.24 2.72 2.72 0 0 1-.915-.68 3.098 3.098 0 0 1-.574-1.025c-.133-.39-.2-.815-.2-1.272Zm1.084-.134v.134c0 .317.037.616.11.897.075.277.186.523.335.738.152.215.342.385.568.51.227.121.49.182.791.182.297 0 .557-.061.78-.182.226-.125.414-.295.562-.51.148-.215.26-.46.334-.738a3.34 3.34 0 0 0 .117-.897v-.134c0-.313-.039-.608-.117-.885a2.28 2.28 0 0 0-.34-.744 1.615 1.615 0 0 0-.562-.516 1.578 1.578 0 0 0-.785-.187c-.297 0-.559.062-.786.187-.222.125-.41.297-.562.516-.148.215-.26.463-.334.744a3.41 3.41 0 0 0-.111.885Zm7.13-1.752V19.5h-1.084v-6.34h1.026l.058 1.354Zm-.257 1.576-.452-.018c.004-.433.069-.834.194-1.2.125-.372.3-.694.527-.968a2.348 2.348 0 0 1 1.858-.861c.312 0 .593.043.843.129.25.082.463.215.639.398.18.184.316.422.41.715.094.29.141.643.141 1.06V19.5h-1.09v-4.166c0-.332-.049-.598-.147-.797a.9.9 0 0 0-.427-.44 1.535 1.535 0 0 0-.692-.14c-.27 0-.515.057-.738.17a1.76 1.76 0 0 0-.568.469c-.157.199-.28.427-.37.685a2.507 2.507 0 0 0-.128.809Zm-25.27 18.914v6.246c-.21.313-.547.664-1.008 1.055-.46.383-1.097.718-1.91 1.008-.805.28-1.844.421-3.117.421-1.04 0-1.996-.18-2.871-.539a6.476 6.476 0 0 1-2.262-1.593c-.633-.704-1.125-1.555-1.476-2.555-.344-1.008-.516-2.149-.516-3.422v-1.324c0-1.274.148-2.41.445-3.41.305-1 .75-1.848 1.336-2.543a5.599 5.599 0 0 1 2.156-1.594c.852-.367 1.829-.55 2.93-.55 1.305 0 2.395.226 3.27.679.883.445 1.57 1.062 2.062 1.851.5.79.82 1.688.961 2.696H69.36a4.744 4.744 0 0 0-.609-1.688 3.258 3.258 0 0 0-1.277-1.219c-.555-.312-1.27-.468-2.145-.468-.789 0-1.473.144-2.05.433a3.773 3.773 0 0 0-1.43 1.242c-.375.54-.657 1.192-.844 1.957-.18.766-.27 1.63-.27 2.59v1.348c0 .984.114 1.863.34 2.637.235.773.567 1.433.996 1.98.43.54.942.95 1.535 1.23a4.646 4.646 0 0 0 1.993.422c.804 0 1.457-.066 1.957-.199.5-.14.89-.304 1.172-.492.28-.195.496-.379.644-.55v-3.821h-3.95v-1.828h6.2ZM74.47 37.3v-.27c0-.914.133-1.761.398-2.543a6.041 6.041 0 0 1 1.149-2.05 5.125 5.125 0 0 1 1.816-1.36c.711-.328 1.508-.492 2.39-.492.891 0 1.692.164 2.403.492.719.32 1.328.774 1.828 1.36a5.937 5.937 0 0 1 1.16 2.05 7.85 7.85 0 0 1 .399 2.543v.27c0 .914-.133 1.761-.399 2.543a6.084 6.084 0 0 1-1.16 2.05 5.313 5.313 0 0 1-1.816 1.36c-.703.32-1.5.48-2.39.48-.891 0-1.692-.16-2.403-.48a5.434 5.434 0 0 1-1.828-1.36 6.194 6.194 0 0 1-1.149-2.05 7.853 7.853 0 0 1-.398-2.543Zm2.168-.27v.27a7 7 0 0 0 .222 1.793 4.75 4.75 0 0 0 .668 1.476c.305.43.684.77 1.137 1.02.453.242.98.363 1.582.363.594 0 1.113-.121 1.559-.363.453-.25.828-.59 1.125-1.02.297-.43.52-.922.668-1.476.156-.563.234-1.16.234-1.793v-.27a6.5 6.5 0 0 0-.234-1.77 4.558 4.558 0 0 0-.68-1.488 3.23 3.23 0 0 0-1.125-1.03c-.445-.25-.969-.376-1.57-.376-.594 0-1.117.125-1.57.375-.446.25-.821.594-1.126 1.031-.296.43-.52.926-.668 1.489a6.818 6.818 0 0 0-.222 1.77Zm11.52.27v-.27c0-.914.132-1.761.398-2.543a6.041 6.041 0 0 1 1.148-2.05 5.125 5.125 0 0 1 1.816-1.36c.712-.328 1.508-.492 2.391-.492.89 0 1.692.164 2.403.492.718.32 1.328.774 1.828 1.36a5.937 5.937 0 0 1 1.16 2.05c.265.782.398 1.63.398 2.543v.27c0 .914-.133 1.761-.398 2.543a6.084 6.084 0 0 1-1.16 2.05 5.313 5.313 0 0 1-1.817 1.36c-.703.32-1.5.48-2.39.48-.891 0-1.692-.16-2.403-.48a5.435 5.435 0 0 1-1.828-1.36 6.194 6.194 0 0 1-1.148-2.05 7.853 7.853 0 0 1-.399-2.543Zm2.167-.27v.27a7 7 0 0 0 .223 1.793c.148.554.371 1.047.668 1.476.304.43.683.77 1.137 1.02.453.242.98.363 1.582.363.593 0 1.113-.121 1.558-.363.453-.25.828-.59 1.125-1.02.297-.43.52-.922.668-1.476.156-.563.234-1.16.234-1.793v-.27a6.5 6.5 0 0 0-.234-1.77 4.558 4.558 0 0 0-.68-1.488 3.23 3.23 0 0 0-1.124-1.03c-.446-.25-.97-.376-1.57-.376-.595 0-1.118.125-1.571.375-.446.25-.82.594-1.125 1.031-.297.43-.52.926-.668 1.489a6.818 6.818 0 0 0-.223 1.77Zm20.309-6.21h1.969v12.41c0 1.117-.227 2.07-.68 2.859a4.425 4.425 0 0 1-1.899 1.793c-.804.414-1.734.62-2.789.62-.437 0-.953-.07-1.546-.21a6.238 6.238 0 0 1-1.735-.691 4.34 4.34 0 0 1-1.418-1.301l1.137-1.29c.531.641 1.086 1.087 1.664 1.337.586.25 1.164.375 1.734.375.688 0 1.282-.13 1.782-.387a2.7 2.7 0 0 0 1.16-1.148c.281-.5.422-1.118.422-1.852v-9.727l.199-2.789Zm-8.731 6.48v-.246c0-.97.114-1.848.34-2.637.235-.797.567-1.48.996-2.05a4.479 4.479 0 0 1 1.582-1.313c.618-.313 1.313-.47 2.086-.47.797 0 1.492.142 2.086.423a4.01 4.01 0 0 1 1.524 1.207c.422.523.754 1.156.996 1.898s.41 1.582.504 2.52v1.078c-.086.93-.254 1.766-.504 2.508-.242.742-.574 1.375-.996 1.898a4.167 4.167 0 0 1-1.524 1.207c-.601.274-1.304.41-2.109.41-.758 0-1.445-.16-2.063-.48a4.704 4.704 0 0 1-1.57-1.348c-.438-.578-.773-1.258-1.008-2.039a9.288 9.288 0 0 1-.34-2.566Zm2.168-.246v.246c0 .633.063 1.226.188 1.781.133.555.332 1.043.597 1.465.274.422.622.754 1.043.996.422.234.926.352 1.512.352.719 0 1.313-.153 1.781-.458.469-.304.84-.706 1.114-1.206.281-.5.5-1.044.656-1.63v-2.824a5.747 5.747 0 0 0-.399-1.242 3.81 3.81 0 0 0-.679-1.078 2.939 2.939 0 0 0-1.02-.762c-.406-.187-.883-.28-1.429-.28-.594 0-1.106.124-1.536.374a3.002 3.002 0 0 0-1.043 1.008 4.855 4.855 0 0 0-.597 1.476 8.09 8.09 0 0 0-.188 1.782ZM118.25 25.5v18h-2.18v-18h2.18Zm8.742 18.234c-.883 0-1.683-.148-2.402-.445a5.45 5.45 0 0 1-1.84-1.277 5.688 5.688 0 0 1-1.172-1.946 7.145 7.145 0 0 1-.41-2.46v-.493c0-1.031.152-1.949.457-2.754.305-.812.719-1.5 1.242-2.062a5.327 5.327 0 0 1 1.781-1.277 5.12 5.12 0 0 1 2.063-.434c.906 0 1.687.156 2.344.469.664.312 1.207.75 1.629 1.312.421.555.734 1.211.937 1.969a9.4 9.4 0 0 1 .305 2.46v.974h-9.469V36h7.301v-.164a5.404 5.404 0 0 0-.352-1.64 2.952 2.952 0 0 0-.937-1.313c-.43-.344-1.016-.516-1.758-.516a2.95 2.95 0 0 0-2.426 1.23c-.297.407-.527.903-.691 1.489-.164.586-.246 1.262-.246 2.027v.492c0 .602.082 1.168.246 1.7.172.523.418.984.738 1.383.328.398.723.71 1.184.937.468.227 1 .34 1.593.34.766 0 1.414-.156 1.946-.469.531-.312.996-.73 1.394-1.254l1.313 1.043a6.082 6.082 0 0 1-1.043 1.184c-.422.375-.942.68-1.559.914-.609.234-1.332.351-2.168.351Zm20.039-6.925h-4.558v-1.84h4.558c.883 0 1.598-.14 2.145-.422.547-.281.945-.672 1.195-1.172.258-.5.387-1.07.387-1.71a3.64 3.64 0 0 0-.387-1.653c-.25-.516-.648-.93-1.195-1.242-.547-.32-1.262-.48-2.145-.48H143V43.5h-2.262V26.437h6.293c1.289 0 2.379.223 3.27.668.89.446 1.566 1.063 2.027 1.852.461.781.692 1.676.692 2.684 0 1.093-.231 2.027-.692 2.8-.461.774-1.137 1.364-2.027 1.77-.891.398-1.981.598-3.27.598ZM157.906 25.5v18h-2.179v-18h2.179Zm10.957 15.832v-6.527c0-.5-.101-.934-.304-1.301a2 2 0 0 0-.891-.867c-.398-.203-.891-.305-1.477-.305-.546 0-1.027.094-1.441.281a2.509 2.509 0 0 0-.961.739c-.227.304-.34.632-.34.984h-2.168c0-.453.117-.902.352-1.348.234-.445.57-.847 1.008-1.207a5.033 5.033 0 0 1 1.593-.867c.625-.219 1.321-.328 2.086-.328.922 0 1.735.156 2.438.469a3.654 3.654 0 0 1 1.664 1.418c.406.625.609 1.41.609 2.355v5.906c0 .422.035.871.106 1.348.078.477.191.887.34 1.23v.188h-2.262c-.11-.25-.195-.582-.258-.996a8.107 8.107 0 0 1-.094-1.172Zm.375-5.52.024 1.524h-2.192c-.617 0-1.168.05-1.652.152-.484.094-.891.239-1.219.434a2.063 2.063 0 0 0-.75.738 1.956 1.956 0 0 0-.258 1.02c0 .398.09.761.27 1.09.18.328.449.59.809.785.367.187.816.28 1.347.28.664 0 1.25-.14 1.758-.42.508-.282.91-.626 1.207-1.032.305-.406.469-.801.492-1.184l.926 1.043c-.055.328-.203.692-.445 1.09a5.242 5.242 0 0 1-2.403 2.05c-.547.235-1.164.352-1.851.352-.86 0-1.613-.168-2.262-.504a3.857 3.857 0 0 1-1.5-1.347 3.572 3.572 0 0 1-.527-1.91c0-.68.133-1.278.398-1.793a3.466 3.466 0 0 1 1.149-1.301c.5-.352 1.101-.617 1.804-.797.703-.18 1.489-.27 2.356-.27h2.519Zm8.578 6.376 3.528-11.368h2.32l-5.086 14.637a7.928 7.928 0 0 1-.469 1.008 4.8 4.8 0 0 1-.726 1.043 3.459 3.459 0 0 1-1.078.797c-.414.21-.91.316-1.489.316a3.93 3.93 0 0 1-.656-.07 6.394 6.394 0 0 1-.562-.117l-.012-1.758c.062.008.16.015.293.023.141.016.238.024.293.024.492 0 .91-.067 1.254-.2.344-.125.633-.34.867-.644.242-.297.449-.707.621-1.23l.902-2.462Zm-2.589-11.368 3.293 9.844.562 2.285-1.559.797-4.664-12.926h2.368Z"/>
</svg>
