<svg xmlns="http://www.w3.org/2000/svg" width="32" height="32" fill="none" viewBox="0 0 32 32">
  <path fill="#fff" fill-rule="evenodd" d="M10.36 7.305a.957.957 0 0 1 .973-.972h9.334c.56 0 .987.45.972.972-.104 3.55-.521 6.552-1.451 8.638-.46 1.03-1.022 1.786-1.686 2.284-.652.488-1.46.773-2.502.773-1.042 0-1.85-.285-2.502-.773-.664-.498-1.227-1.255-1.686-2.284-.93-2.086-1.346-5.089-1.451-8.638Zm.973-2.972c-1.648 0-3.02 1.344-2.971 3.03.106 3.605.527 6.935 1.623 9.394.554 1.242 1.302 2.311 2.314 3.07.78.584 1.681.958 2.701 1.104v4.736h-3a1 1 0 1 0 0 2h8a1 1 0 1 0 0-2h-3V20.93a5.803 5.803 0 0 0 2.701-1.104c1.012-.759 1.76-1.828 2.314-3.07 1.096-2.459 1.517-5.79 1.623-9.393.05-1.687-1.323-3.03-2.971-3.03h-9.334Z" clip-rule="evenodd"/>
  <path stroke="#fff" stroke-linecap="round" stroke-width="2" d="M9 8S4 6 4 9.5c0 6.177 6 6.5 6 6.5m13-8s5-2 5 1.5c0 6.177-6 6.5-6 6.5"/>
</svg>
