<svg xmlns="http://www.w3.org/2000/svg" width="163" height="60" fill="none" viewBox="0 0 163 60">
  <path fill="#fff" d="M42.087 23.006A14.572 14.572 0 0 1 56.773 8.393c8.087.038 14.552 6.575 14.529 14.611-.024 8.15-6.557 14.686-14.783 14.606-8.1-.079-14.463-6.714-14.434-14.604Zm4.855-.06c.046 2.716.971 5.045 2.88 6.942 1.915 1.902 4.244 2.843 6.95 2.842 5.3-.002 9.656-4.385 9.66-9.724.004-5.372-4.37-9.761-9.743-9.745-2.68.008-4.993.97-6.889 2.87-1.88 1.887-2.797 4.188-2.858 6.815Zm9.748 26.703c.01-.525.227-1.099.69-1.562a5659.79 5659.79 0 0 1 9.801-9.8c.948-.944 2.471-.91 3.426.049.952.956.943 2.478-.034 3.458-2.37 2.377-4.746 4.748-7.12 7.122-.851.85-1.699 1.705-2.553 2.552-1.088 1.078-2.764.998-3.688-.174-.35-.443-.523-.95-.522-1.645Zm29.69-17.887c-1.014 1.152-2.813 1.13-3.978.247-1.984-1.503-1.867-4.706.246-6.017 1.018-.631 2.088-.688 3.156-.084.109.062.204.148.303.226.093.073.182.15.275.227 0-.156.009-.332-.003-.507-.01-.15.027-.204.191-.2.519.012 1.038.01 1.556 0 .163-.003.21.039.21.207-.007 1.861-.003 3.723-.005 5.584-.001.584.029 1.17-.08 1.75-.27 1.432-1.297 2.397-2.781 2.594-1.014.135-1.994.04-2.88-.519-.719-.452-1.157-1.1-1.289-1.947-.02-.133.014-.158.138-.157.538.006 1.077.003 1.615.002.077 0 .137.004.171.093.274.707.834.955 1.547.954.927-.002 1.558-.594 1.606-1.521.015-.298.002-.596.002-.932Zm-1.63-.867c1.027-.006 1.792-.794 1.785-1.842-.006-1.017-.78-1.774-1.809-1.77-1.025.005-1.787.787-1.777 1.824.01 1.018.791 1.794 1.8 1.788Zm22.306 1.076v.245c0 1.097-.004 2.194.003 3.291.001.157-.038.203-.197.2a49.284 49.284 0 0 0-1.576-.001c-.132.002-.184-.025-.183-.173.004-3.238.004-6.476 0-9.713 0-.135.042-.166.17-.165a62.18 62.18 0 0 0 1.616 0c.128 0 .178.03.169.165-.011.185-.002.371-.002.558.019 0 .037.005.042-.001.801-.924 2.227-1.138 3.367-.557 1.115.569 1.726 1.519 1.915 2.73.206 1.32-.132 2.498-1.094 3.451-1.024 1.014-2.605 1.188-3.717.438a2.593 2.593 0 0 1-.513-.468Zm3.404-2.78a2.63 2.63 0 0 0-.056-.517c-.193-.819-.833-1.366-1.63-1.39-.869-.027-1.531.442-1.781 1.27a2.337 2.337 0 0 0-.056 1.065c.182 1.105 1.244 1.757 2.31 1.415.737-.236 1.197-.922 1.213-1.844ZM89.712 16.692c.73-.848 1.627-1.048 2.618-.864 1.134.211 1.761.963 2.033 2.048.082.324.111.655.112.988.002 1.317-.002 2.633.004 3.95 0 .152-.033.205-.196.202-.525-.012-1.05-.01-1.576 0-.155.002-.185-.048-.184-.193.006-1.203.003-2.406.004-3.61 0-.22-.02-.438-.07-.652-.11-.452-.326-.827-.802-.957-.507-.139-.978-.042-1.373.321-.357.329-.498.763-.542 1.23-.06.636-.02 1.275-.027 1.913a65.6 65.6 0 0 0 .003 1.735c.003.161-.033.217-.204.213-.492-.012-.984-.004-1.476-.004-.268 0-.268 0-.268-.26l.001-9.853c0-.165-.07-.376.03-.482.1-.107.313-.031.476-.033.42-.006.838.006 1.257-.006.157-.005.184.049.183.19-.005 1.277-.003 2.554-.003 3.83v.294Zm26.361 9.746a2.315 2.315 0 0 1 1.582-.903c1.64-.226 2.896.724 3.125 2.362.033.238.05.476.05.715-.001 1.303-.003 2.607.003 3.91.001.166-.026.23-.213.224a33.63 33.63 0 0 0-1.556-.001c-.151.002-.188-.042-.187-.19.006-1.204.004-2.407.003-3.61 0-.207-.007-.413-.054-.615-.108-.465-.319-.859-.813-.994-.515-.14-.993-.041-1.386.336-.407.389-.537.899-.544 1.434a170.55 170.55 0 0 0-.006 3.43c.001.165-.037.213-.206.21a32.502 32.502 0 0 0-1.536 0c-.174.004-.218-.041-.218-.219.006-3.304.004-6.608.005-9.912 0-.159-.05-.368.03-.462.095-.113.312-.034.475-.037.419-.006.838.007 1.256-.006.165-.005.194.052.193.201-.006 1.297-.003 2.593-.003 3.89v.237Zm-15.07 5.545c-1.019 1.104-2.684 1.224-3.894.286-1.142-.884-1.574-2.094-1.441-3.504.104-1.11.597-2.03 1.515-2.693.971-.7 2.271-.761 3.232-.169.209.129.388.292.588.513 0-.237.005-.426-.003-.615-.004-.114.037-.146.149-.145.545.005 1.09.008 1.635-.002.149-.002.17.054.17.184-.004 1.589-.003 3.178-.003 4.766 0 .652-.005 1.303.004 1.954.003.154-.044.189-.189.186a61.53 61.53 0 0 0-1.596 0c-.125 0-.18-.026-.171-.165.013-.183.004-.366.004-.596Zm.155-2.839c-.002-.034-.004-.127-.013-.22-.088-.877-.724-1.552-1.538-1.631-.917-.09-1.643.383-1.91 1.246-.078.25-.104.507-.095.768.043 1.2.998 1.995 2.137 1.78.853-.16 1.418-.911 1.419-1.943Zm-.424-9.224c-.85 0-1.701.006-2.552-.003-.185-.002-.206.057-.167.217.181.762.788 1.264 1.62 1.33.419.034.823-.014 1.199-.214.173-.092.343-.2.434-.372.093-.172.218-.193.39-.19a47.8 47.8 0 0 0 1.575 0c.16-.002.191.032.132.187a3.258 3.258 0 0 1-1.427 1.711c-1.127.661-2.326.769-3.55.334-1.442-.513-2.304-1.836-2.31-3.46-.008-1.86 1.213-3.32 3.042-3.637 1.612-.28 3.138.404 3.882 1.744.384.693.514 1.445.507 2.228-.001.137-.072.127-.162.127-.871-.002-1.742-.001-2.613-.001Zm-1.032-1.28c.505 0 1.01-.002 1.514.001.11.001.156-.011.115-.142-.212-.69-.814-1.139-1.554-1.146-.813-.008-1.446.421-1.676 1.125-.047.144-.007.166.127.164.491-.006.983-.002 1.474-.002Zm-13.596 2.582c0 .556-.001 1.094.001 1.631 0 .08-.043.104-.105.118-.905.194-1.801.222-2.642-.23-.84-.453-1.18-1.214-1.194-2.132-.016-.93-.007-1.862 0-2.793 0-.148-.034-.193-.186-.188-.359.012-.718-.001-1.077.006-.124.003-.177-.021-.174-.16.008-.466.007-.932 0-1.397-.002-.126.042-.157.16-.154.366.007.732-.004 1.098.005.139.004.18-.033.178-.175-.008-.539.001-1.078-.006-1.616-.002-.135.03-.184.174-.181.539.008 1.078.008 1.616 0 .138-.002.163.047.162.17-.006.546.001 1.091-.006 1.637-.002.13.036.167.166.165.546-.007 1.091.002 1.636-.006.149-.002.209.025.204.193-.014.445-.012.89 0 1.336.003.156-.05.186-.193.184-.552-.008-1.104 0-1.656-.006-.12-.001-.158.028-.157.154.007.818.005 1.636.007 2.454 0 .16.023.318.073.47.132.404.438.607.96.638a2.6 2.6 0 0 0 .96-.123ZM73.73 13.258a2.42 2.42 0 0 1-2.427-2.438 2.436 2.436 0 0 1 4.875 0 2.424 2.424 0 0 1-2.448 2.438Zm18.69 13.396c.323-.562.781-.922 1.413-1.049a2.24 2.24 0 0 1 .871.018c.095.019.128.066.127.164-.004.565-.004 1.13 0 1.695 0 .116-.022.155-.146.11a2.14 2.14 0 0 0-.765-.112c-.647.015-1.124.365-1.354.988a2.46 2.46 0 0 0-.145.86c0 1.07-.004 2.139.003 3.209.002.165-.043.212-.208.208a45.94 45.94 0 0 0-1.575 0c-.13 0-.17-.032-.17-.166.004-2.253.004-4.506 0-6.758 0-.13.037-.168.168-.166a62.08 62.08 0 0 0 1.615 0c.127 0 .175.03.17.165-.01.277-.003.556-.003.834Z"/>
</svg>
