<svg xmlns="http://www.w3.org/2000/svg" width="145" height="54" fill="none" viewBox="0 0 145 54">
  <g clip-path="url(#a)">
    <path fill="#fff" d="M57.812 13.5h5.78v23.143h5.782V7.714h-5.781c-3.18 0-5.781 2.604-5.781 5.786Zm17.343 23.143h5.781V25.071c0-3.182-2.601-5.785-5.78-5.785v17.357Zm11.563-17.357v17.357h5.78V25.071h5.782v5.786c0 3.182 2.602 5.786 5.781 5.786V25.071c0-3.182-2.601-5.785-5.781-5.785H86.718Zm52.03 0h-5.781V13.5c0-3.182-2.601-5.786-5.781-5.786v23.143h-11.562v-5.785h5.781v-5.786h-5.781c-3.18 0-5.782 2.603-5.782 5.785v5.786c0 3.182 2.602 5.786 5.782 5.786h17.343V25.071h5.781v5.786c0 3.182 2.602 5.786 5.781 5.786V25.071c0-3.182-2.601-5.785-5.781-5.785ZM75.155 13.5h5.781c0-3.182-2.601-5.786-5.78-5.786V13.5Z"/>
    <path fill="#2F7AEA" fill-rule="evenodd" d="M66.825 42.429v3.74h-.53l-2.08-2.592v2.591h-.622v-3.74h.53l2.08 2.603v-2.602h.622Zm11.76 3.74h-2.243v-3.74h2.189v.614h-1.524v.93h1.362v.614h-1.362v.967h1.578v.614Zm9.517-3.126h1.227v3.125h.665v-3.125h1.226v-.614h-3.118v.614Zm17.267-.614h.638l-1.081 3.74h-.622l-.913-2.704-.897 2.703h-.627l-1.13-3.74h.746l.762 2.667.843-2.666h.66l.864 2.67.757-2.67Zm10.706.555c-.367.37-.551.828-.551 1.373 0 .574.186 1.038.557 1.395.371.356.841.534 1.41.534.566 0 1.036-.182 1.411-.545.375-.363.562-.825.562-1.384 0-.57-.187-1.034-.562-1.394-.371-.356-.841-.534-1.411-.534-.569 0-1.041.185-1.416.555Zm.514 2.314c-.242-.25-.362-.563-.362-.94 0-.385.119-.7.356-.946a1.22 1.22 0 0 1 .908-.369c.357 0 .658.123.903.369.245.25.368.564.368.945 0 .378-.116.691-.346.94-.227.25-.535.375-.925.375-.36 0-.661-.125-.902-.374Zm13.057-.519v1.4h-.665v-3.74c.187 0 .391-.001.611-.005.219-.003.4-.005.54-.005.915 0 1.373.384 1.373 1.154 0 .285-.074.52-.222.705a1.12 1.12 0 0 1-.508.363l1.184 1.528h-.805l-1.043-1.4h-.465Zm.454-1.736c-.018 0-.047.002-.087.005-.039 0-.095.002-.167.006h-.2v1.111h.432a.822.822 0 0 0 .519-.155.5.5 0 0 0 .205-.422c0-.363-.234-.545-.702-.545Zm11.376 3.125h.664V44.24l1.546 1.928h.843l-1.654-1.998 1.557-1.741h-.8l-1.492 1.773V42.43h-.664v3.74Z" clip-rule="evenodd"/>
    <path fill="#fff" d="m13.419 29.462 1.348-10.168L3.05 11.152l10.707 3.628 2.53-3.88 9.23-5.738 20.361 11.222 1.054 17.128-9.063 12.614-7.166 1.097 3.71-6.793v-6.539l-2.698-5.104-2.74-1.814-4.216 4.345v4.598l-3.288 3.08-4.173.506-1.855 1.055-3.035-.97-1.265-4.557 2.277-3.206v-2.362Z"/>
    <path fill="#94A6C3" d="M32.135 11.068c-2.234-.464-4.68-.338-4.68-.338s-.8 3.713-5.774 4.683c.042 0 6.576 2.236 10.454-4.345Zm2.023 33.665c2.698-2.109 4.722-5.02 5.65-8.31.041-.127.42-.338.674-.507.421-.253.843-.464.927-.801.169-.97.253-1.983.253-2.996 0-.38-.38-.759-.759-1.139-.295-.253-.59-.548-.59-.759-.422-3.84-2.192-7.425-5.016-10.04l-.295.295c2.74 2.573 4.51 6.075 4.89 9.787.042.338.379.675.716 1.013.295.253.632.633.632.801 0 .97-.084 1.94-.253 2.911-.042.169-.421.338-.716.506-.422.211-.801.422-.885.76a15.59 15.59 0 0 1-6.408 8.733c.548-1.182 2.276-5.02 3.204-6.961l-.169-6.244-5.353-5.19-3.035.423-3.33 5.4s1.559 1.983-.633 4.303c-2.15 2.278-3.836 2.784-3.836 2.784l-1.56-.844c.464-.59 1.391-1.476 2.108-2.067 1.222-1.012 2.445-1.097 2.445-2.193.042-2.279-2.403-1.646-2.403-1.646l-.885.844-.38 3.122-1.854 2.32-.211-.042-3.035-.675s1.855-.97 2.15-2.067c.295-1.055-.59-4.556-.633-4.767.043.042.886.759 1.265 1.94.674-1.856 1.56-3.628 1.813-3.797.252-.168 3.667-1.982 3.667-1.982l-1.138 2.995.843-.464 2.023-4.978s1.982-.97 3.457-.97c2.656-.043 6.576-3.291 4.806-9.113.505.21 9.274 4.598 10.791 13.205 1.138 6.623-2.613 12.825-8.937 16.41Z"/>
    <path fill="#0A192B" d="M24.126 11.996c.97-1.139.59-2.827.59-2.827l-2.824 4.177c-.043 0 1.011.042 2.234-1.35ZM14.641 34.82l.337-1.688s-1.39 2.447-1.517 2.784c-.127.38.084 1.055.632 1.013.548-.042 1.223-.844 1.223-1.434 0-.76-.675-.675-.675-.675Z"/>
    <path fill="#0A192B" d="M39.68 7.988s2.108.085 4.3.338c-4.931-3.881-9.61-5.02-13.404-5.02-5.228 0-8.769 2.151-8.98 2.278l1.645-2.616s-6.576-.633-8.895 6.328c-.59-1.476-1.138-3.628-1.138-3.628s-3.415 2.995-1.813 7.973c-3.92-1.434-9.527-3.417-9.737-3.459-.296-.042-.38.084-.38.084s-.084.127.169.338c.463.38 9.316 6.919 11.255 8.184-.422 1.519-.422 2.236 0 2.953.59.97.632 1.477.548 2.194-.084.717-.843 6.919-1.012 7.678-.168.76-1.939 3.46-1.854 4.261.084.802 1.18 4.219 2.15 4.599.716.253 2.486.801 3.667.801.421 0 .8-.084.97-.253.716-.633.927-.76 1.433-.76h.126c.21 0 .464.043.759.043.674 0 1.56-.127 2.192-.717.927-.928 2.53-2.194 3.035-2.785.632-.801.97-1.898.8-2.995-.125-1.013.423-1.898 1.055-2.784.8-1.055 2.276-2.953 2.276-2.953 2.909 2.193 4.721 5.526 4.721 9.239 0 6.58-5.733 11.896-12.814 11.896-1.097 0-2.15-.126-3.204-.38 3.246 1.14 5.986 1.52 8.22 1.52 4.763 0 7.293-1.73 7.293-1.73s-.886 1.139-2.319 2.447h.042c7.883-1.097 11.72-7.594 11.72-7.594s-.296 2.11-.675 3.544c10.496-7.89 8.726-17.761 8.683-18.099.085.127 1.139 1.392 1.687 2.067C53.887 13.6 39.68 7.988 39.68 7.988Zm-16.144 27.76c-.169.21-.886.843-1.391 1.307-.506.465-1.054.929-1.476 1.35-.168.17-.506.254-1.012.254h-1.265c.633-.844 2.488-2.785 3.12-3.207.759-.506 1.138-1.012.675-1.898-.464-.886-1.686-.675-1.686-.675s.716-.295 1.348-.295c-.8-.211-1.812 0-2.276.464-.506.464-.421 2.109-.632 3.164-.21 1.097-.928 1.645-2.024 2.657-.59.549-1.011.718-1.349.718a14.535 14.535 0 0 1-2.15-.549c-.42-.548-1.053-2.362-1.222-3.122.127-.421.632-1.307.885-1.814.506-.97.801-1.518.886-2.025.168-.717.716-5.147.927-7.003.548.717 1.307 1.899 1.138 2.658 1.223-1.73.337-3.417-.084-4.092-.38-.675-.885-2.025-.464-3.46.422-1.434 1.94-5.4 1.94-5.4s.505.886 1.222.718c.716-.17 6.491-8.86 6.491-8.86s1.56 3.417-.084 5.906c-1.686 2.49-3.33 2.954-3.33 2.954s2.319.421 4.468-1.14c.886 2.068 1.729 4.22 1.77 4.515-.126.295-1.812 4.345-1.98 4.598-.085.084-.675.253-1.096.338-.717.21-1.139.337-1.307.464-.295.253-1.644 3.965-2.276 5.78-.76.21-1.518.632-2.066 1.476.295-.211 1.222-.338 1.897-.422.59-.042 2.403.928 2.866 2.742v.085c.085.675-.126 1.307-.463 1.814Zm-3.963.506c.38-.549.337-1.477.38-1.772.042-.295.126-.844.463-.928.337-.085 1.138.042 1.138.633 0 .548-.59.675-1.011 1.054-.295.296-.886.928-.97 1.013Zm16.82-8.058c.421-2.152.463-4.008.337-5.527 1.644 2.194 2.656 4.852 2.95 7.594.043.338.38.675.717 1.013.296.253.633.59.633.801 0 .97-.085 1.94-.253 2.911-.042.127-.422.338-.717.507-.421.21-.8.421-.885.759a15.71 15.71 0 0 1-5.564 8.142c3.92-4.092 5.817-10.842 2.782-16.2Zm-2.656 16.58c2.74-2.11 4.848-5.063 5.775-8.396.042-.126.422-.337.675-.506.421-.21.843-.464.927-.801.169-.97.253-1.983.253-2.996 0-.38-.38-.76-.759-1.139-.21-.253-.548-.548-.548-.76a16.488 16.488 0 0 0-3.457-8.394c-.843-5.063-4.215-6.624-4.3-6.666.085.127 2.277 3.29.76 7.003-1.56 3.755-5.565 3.164-5.902 3.206-.337 0-1.644 1.688-3.288 4.81-.21-.085-1.096-.296-2.108-.127.759-2.11 1.897-5.105 2.108-5.358.084-.084.716-.253 1.138-.38.801-.21 1.18-.337 1.307-.506.084-.126.506-1.096.927-2.109.38 0 1.35-.084 1.433-.127.085-.084.886-2.151.886-2.404 0-.211-1.644-4.303-2.277-5.864.296-.338.59-.76.886-1.224 8.641.928 15.386 8.269 15.386 17.17 0 6.835-4.005 12.783-9.822 15.568Z"/>
    <path fill="#0A192B" d="M22.524 21.994c.8-.928.38-2.657-1.096-2.953.38-.886.927-2.657.927-2.657s-4.3 6.75-4.679 6.876c-.38.127-.759-1.35-.759-1.35-.8 3.08 1.35 3.502 1.602 2.531 1.18-.295 3.204-1.56 4.005-2.447Z"/>
    <path fill="#FFD923" d="m18.857 23.64 2.192-3.755s1.264.633.632 1.646c-.8 1.18-2.824 2.109-2.824 2.109Z"/>
    <path fill="#D82122" d="M45.962 41.021c-.633.844-1.35 1.73-2.192 2.574 5.438-10.463.253-20.04.042-20.42.38.38.759.802 1.096 1.182 4.173 4.64 4.679 11.602 1.054 16.664Zm5.058-13.458c-1.897-5.104-4.595-9.45-10.538-13.373-5.733-3.797-11.888-3.502-12.225-3.46h-.085c.211-.084.422-.126.633-.168 1.307-.422 2.993-.76 4.679-.97 4.468-.633 8.979.885 12.056 4.134l.084.084c3.5 3.713 5.312 8.353 5.396 13.753ZM39.133 6.68c-6.281-1.18-10.328-.59-13.237.507-.084-.338-.38-1.013-.632-1.561-.885 1.055-1.813 2.32-2.403 3.122-1.602 1.097-2.276 2.151-2.276 2.151.927-3.164 3.625-5.526 6.913-6.117.927-.169 1.94-.253 3.035-.253 2.909.042 5.817.76 8.6 2.152Zm-23.227 8.1c-4.933-.168-3.289-5.906-3.204-6.243 0 .042.337 4.514 3.204 6.244Zm4.847-10.335c-3.794 2.278-3.035 7.72-3.035 7.72-3.625-5.527 2.74-7.594 3.035-7.72Z"/>
    <path fill="#fff" d="M14.514 16.3c.253.21.506.59.211 1.138-.168.296-.421.253-.8.085-.507-.253-3.542-2.025-6.282-3.84 3.12 1.098 6.281 2.279 6.787 2.532l.085.084Z"/>
  </g>
  <defs>
    <clipPath id="a">
      <path fill="#fff" d="M0 0h144.529v54H0z"/>
    </clipPath>
  </defs>
</svg>
