<svg xmlns="http://www.w3.org/2000/svg" width="163" height="60" fill="none" viewBox="0 0 163 60">
  <path fill="#fff" d="M126.728 29.61c-.617-.407-1.297-.697-1.94-1.058-.417-.235-.861-.443-1.224-.742-.616-.506-.489-1.5.155-1.934.924-.615 2.455-.271 2.619.985 0 .027.027.045.054.045h1.396c.036 0 .064-.027.055-.063-.073-.868-.409-1.591-1.025-2.052a3.248 3.248 0 0 0-1.976-.678c-3.689 0-4.024 3.896-2.039 5.126.226.144 2.175 1.12 2.864 1.546.689.424.907 1.202.607 1.817-.272.56-.979.949-1.685.904-.771-.045-1.369-.461-1.578-1.112a1.982 1.982 0 0 1-.054-.443c0-.027-.027-.054-.055-.054h-1.513a.058.058 0 0 0-.054.054c0 1.094.272 1.7 1.015 2.25a3.643 3.643 0 0 0 2.248.742c2.066 0 3.136-1.166 3.353-2.377.19-1.185-.163-2.252-1.223-2.957Zm-67.125-5.298a.061.061 0 0 0-.055.036l-1.242 4.086a.057.057 0 0 1-.108 0l-1.242-4.086c-.009-.027-.027-.036-.054-.036H54.59a.058.058 0 0 0-.054.054V34.8c0 .027.027.054.054.054h1.514a.058.058 0 0 0 .054-.054v-7.93c0-.063.091-.072.11-.018l1.25 4.113.09.29c.01.027.028.036.055.036h1.16a.06.06 0 0 0 .054-.036l.091-.29 1.25-4.113c.019-.063.11-.045.11.018v7.93c0 .027.027.054.054.054h1.514a.058.058 0 0 0 .054-.054V24.366a.058.058 0 0 0-.054-.054h-2.293Zm43.949 0a.061.061 0 0 0-.055.036l-1.241 4.086a.057.057 0 0 1-.109 0l-1.242-4.086c-.009-.027-.027-.036-.054-.036h-2.302c-.028 0-.055.027-.055.054V34.8c0 .027.027.054.055.054h1.514a.058.058 0 0 0 .054-.054v-7.93c0-.063.091-.072.109-.018l1.25 4.113.091.29c.009.027.027.036.054.036h1.16a.061.061 0 0 0 .055-.036l.091-.29 1.25-4.113c.019-.063.109-.045.109.018v7.93c0 .027.028.054.055.054h1.513a.058.058 0 0 0 .054-.054V24.366a.058.058 0 0 0-.054-.054h-2.302Zm-19.523 0h-7.151c-.028 0-.055.027-.055.054v1.302c0 .027.028.054.055.054h2.764V34.8c0 .027.027.054.054.054h1.514c.027 0 .055-.027.055-.054v-9.077h2.764a.058.058 0 0 0 .054-.054v-1.302c0-.027-.018-.054-.054-.054Zm8.928 10.541h1.377c.036 0 .063-.037.054-.073l-2.845-10.468c-.01-.027-.028-.036-.055-.036h-1.976a.061.061 0 0 0-.054.036L86.612 34.78c-.009.036.018.073.055.073h1.377a.061.061 0 0 0 .055-.037l.824-3.046c.01-.027.028-.036.055-.036h3.045c.028 0 .046.018.055.036l.824 3.046c.01.019.037.037.055.037Zm-3.617-4.61 1.106-4.078a.057.057 0 0 1 .109 0l1.105 4.077a.057.057 0 0 1-.054.072h-2.211a.058.058 0 0 1-.055-.072Zm27.11 4.61h1.377c.036 0 .063-.037.054-.073l-2.846-10.468c-.009-.027-.027-.036-.054-.036h-1.976a.06.06 0 0 0-.054.036l-2.846 10.468c-.009.036.018.073.054.073h1.378a.062.062 0 0 0 .055-.037l.824-3.046c.009-.027.028-.036.055-.036h3.045c.027 0 .045.018.055.036l.824 3.046a.061.061 0 0 0 .055.037Zm-3.617-4.61 1.106-4.078a.056.056 0 0 1 .108 0l1.106 4.077c.009.036-.018.072-.054.072h-2.212c-.036 0-.063-.036-.054-.072Zm-44.738 3.064V30.07c0-.027.027-.054.055-.054h4.033a.058.058 0 0 0 .054-.054V28.66a.058.058 0 0 0-.054-.054H68.15c-.028 0-.055-.027-.055-.054v-2.767c0-.027.027-.054.055-.054h4.586a.058.058 0 0 0 .054-.054v-1.302a.058.058 0 0 0-.054-.054h-6.209a.058.058 0 0 0-.054.054v10.423c0 .028.027.055.054.055h6.4c.026 0 .053-.027.053-.055v-1.373c0-.028-.027-.055-.054-.055h-4.785c-.028-.009-.046-.027-.046-.063Zm72.463 1.455-5.238-5.397a.053.053 0 0 1 0-.072l4.713-4.882a.052.052 0 0 0-.036-.09h-1.931c-.018 0-.027.009-.036.018l-3.997 4.14a.053.053 0 0 1-.091-.036v-4.068a.058.058 0 0 0-.054-.054h-1.514a.058.058 0 0 0-.054.054v10.433c0 .027.027.054.054.054h1.514a.058.058 0 0 0 .054-.054v-4.593c0-.045.064-.072.091-.036l4.531 4.665c.01.009.028.018.037.018h1.93c.036-.01.064-.073.027-.1Z"/>
  <path fill="#fff" fill-rule="evenodd" d="m22.677 25.92-.78-3.742 1.161-3.48 7.46 2.784h6.217l7.46-2.784-8.761 6.482.001.001 8.76-6.483 1.16 3.48-.77 3.743.48.37-.735.561.562.434-.734.669.462.335-1.06 1.238 1.613 4.972-1.495 5.08-5.221-1.437-1.006.832-2.066 1.42h-3.526l-2.058-1.42-1.015-.832-5.211 1.438-1.487-5.08 1.604-4.973-1.06-1.238.462-.335-.734-.669.562-.434-.743-.56.498-.371Zm12.227 10.406h-2.556l-.435.308-.245 2.025.227-.2h3.462l.236.2-.254-2.025-.435-.308Zm-3.163-3.128-.761-1.6-1.831.841 2.592.76Zm6.372-.76-1.84-.84-.762 1.6 2.602-.76Z" clip-rule="evenodd"/>
</svg>
