<svg xmlns="http://www.w3.org/2000/svg" width="163" height="60" fill="none" viewBox="0 0 163 60">
  <path fill="#fff" fill-rule="evenodd" d="M58.576 30.488c0 7.449-6.039 13.488-13.488 13.488-7.45 0-13.488-6.039-13.488-13.488C31.6 23.038 37.64 17 45.088 17c7.45 0 13.488 6.039 13.488 13.488Zm-16.85-7.733a8.43 8.43 0 0 1 11.791 7.742 8.43 8.43 0 0 1-.67 3.299l-9.118-3.871h5.712a4.385 4.385 0 0 0-4.353-3.826c-.456 0-.903.062-1.315.196l-2.047-3.54ZM40.7 30.497a4.391 4.391 0 0 0 4.39 4.39c.33 0 .652-.045.956-.108l2.11 3.567a8.497 8.497 0 0 1-3.067.572 8.428 8.428 0 0 1-8.43-8.43c0-1.055.197-2.065.545-2.995l3.72 1.627a4.4 4.4 0 0 0-.224 1.377Z" clip-rule="evenodd"/>
  <path fill="#fff" d="M70.272 39.34h-4.425V21.003h4.425l5.48 9.484 5.269-9.484h4.32V39.34h-4.32V29.118l-4.11 7.27h-2.424l-4.215-7.27v10.221Zm31.507-18.336H88.608V39.34h13.171v-3.793h-8.851v-3.794h7.587V28.17h-7.587v-3.478h8.851v-3.688Zm2.002 0h4.005l6.427 13.067 1.476-3.794-4.426-9.273h4.004l2.318 4.32 1.686-4.32h4.637l-3.899 9.273 1.897 3.794 4.952-13.067h4.742l-7.692 18.335h-3.899l-1.897-4.215-1.897 4.215h-3.582l-8.852-18.335Z"/>
</svg>
