<svg xmlns="http://www.w3.org/2000/svg" width="162" height="60" fill="none" viewBox="0 0 162 60">
  <path fill="#fff" d="M81.576 20.482v19.035a.275.275 0 0 1-.272.272h-1.98a2.715 2.715 0 0 1-2.284-1.243l-8.985-13.887.308 6.936v7.922a.275.275 0 0 1-.272.272h-2.617a.276.276 0 0 1-.272-.272V20.482a.276.276 0 0 1 .272-.272h1.968a2.725 2.725 0 0 1 2.285 1.24l8.984 13.865-.279-6.91v-7.923a.272.272 0 0 1 .272-.272h2.618a.275.275 0 0 1 .254.272ZM108.33 39.79h-2.77a.275.275 0 0 1-.22-.117.26.26 0 0 1-.046-.119.263.263 0 0 1 .013-.127l7.338-18.956a.42.42 0 0 1 .399-.26h3.47a.414.414 0 0 1 .381.26l7.316 18.956a.272.272 0 0 1-.253.363h-2.77a.276.276 0 0 1-.258-.175l-5.914-15.59a.27.27 0 0 0-.255-.18.27.27 0 0 0-.256.18l-5.913 15.59a.277.277 0 0 1-.262.174Zm35.113-.44-5.504-7.03c3.107-.587 4.923-2.683 4.923-5.9 0-3.694-2.404-6.21-6.657-6.21h-7.675a.406.406 0 0 0-.406.406 2.614 2.614 0 0 0 .764 1.846 2.615 2.615 0 0 0 1.846.765h5.152c2.571 0 3.804 1.316 3.804 3.216 0 1.9-1.204 3.263-3.804 3.263h-7.356a.411.411 0 0 0-.406.41v9.427a.271.271 0 0 0 .271.272h2.618a.277.277 0 0 0 .272-.272V32.49h3.021l4.775 6.233a2.717 2.717 0 0 0 2.175 1.066h1.987a.272.272 0 0 0 .2-.439Zm-43.39-19.14H87.906a.363.363 0 0 0-.362.363A2.658 2.658 0 0 0 90.2 23.23h9.852a.264.264 0 0 0 .193-.078.282.282 0 0 0 .059-.09.287.287 0 0 0 .02-.104v-2.476a.272.272 0 0 0-.272-.272Zm0 16.559h-9.065a.275.275 0 0 1-.272-.272v-4.91a.272.272 0 0 1 .272-.271h8.38a.272.272 0 0 0 .271-.272v-2.495a.272.272 0 0 0-.272-.272H87.95a.41.41 0 0 0-.406.41V39.37a.406.406 0 0 0 .406.406h12.103a.271.271 0 0 0 .272-.272v-2.477a.269.269 0 0 0-.272-.257ZM45.691 15.34l-6.824 10.128a.725.725 0 0 0 1.088.953l6.715-5.801a.268.268 0 0 1 .45.203v18.234a.272.272 0 0 1-.479.174L26.337 14.938a3.477 3.477 0 0 0-2.654-1.254h-.707a3.477 3.477 0 0 0-3.477 3.477v25.678a3.477 3.477 0 0 0 6.439 1.82l6.824-10.127a.725.725 0 0 0-1.088-.954l-6.715 5.802a.268.268 0 0 1-.45-.203V20.96a.272.272 0 0 1 .479-.174l20.304 24.292a3.477 3.477 0 0 0 2.658 1.233h.725a3.478 3.478 0 0 0 3.477-3.477V17.161a3.477 3.477 0 0 0-3.498-3.477 3.476 3.476 0 0 0-2.963 1.657Z"/>
</svg>
