<svg xmlns="http://www.w3.org/2000/svg" width="163" height="60" fill="none" viewBox="0 0 163 60">
  <path fill="#fff" d="M47.51 18.629c-2.993 0-4.292 1.584-6.65 1.584-1.497 0-2.424-.745-3.558-1.568C35.732 17.502 32.682 14 27.06 14c-7.785 0-14.607 6.491-14.559 15.5-.048 9.008 6.774 15.5 14.556 15.5 5.627 0 8.672-3.502 10.243-4.645 1.134-.826 2.064-1.568 3.557-1.568 2.358 0 3.654 1.584 6.651 1.584 5.164 0 8.993-4.94 8.993-10.897S52.674 18.63 47.51 18.63Zm.208 16.332c-.995 0-1.65-.369-2.495-.826-1.224-.66-2.864-1.373-4.561-1.373-2.75 0-4.746 1.28-6.246 2.232-1.341.852-2.676 1.707-4.973 1.707-3.622 0-6.806-3.11-6.806-7.201 0-4.091 3.184-7.2 6.806-7.2 2.297 0 3.632.854 4.973 1.706 1.5.953 3.495 2.232 6.246 2.232 1.697 0 3.337-.716 4.561-1.373.846-.457 1.5-.826 2.495-.826 2.368 0 4.123 2.503 4.123 5.461s-1.759 5.461-4.123 5.461Zm54.166 4.389c-4.99 0-9.05-3.955-9.05-8.818V22.53c0-1.397 1.162-2.529 2.596-2.529 1.434 0 2.596 1.132 2.596 2.53v8.002c0 2.074 1.73 3.76 3.858 3.76 2.129 0 3.858-1.686 3.858-3.76V22.53c0-1.397 1.162-2.529 2.596-2.529 1.434 0 2.596 1.132 2.596 2.53v8.002c0 4.863-4.06 8.819-9.05 8.819ZM133.31 20c-2.158 0-4.271.895-5.467 2.248-1.198-1.35-3.311-2.248-5.468-2.248-4.446 0-8.064 3.526-8.064 7.857v8.964c0 1.398 1.162 2.53 2.597 2.53 1.433 0 2.595-1.132 2.595-2.53v-8.964c0-1.543 1.289-2.798 2.872-2.798s2.871 1.255 2.871 2.798v8.964c0 1.398 1.162 2.53 2.597 2.53 1.433 0 2.595-1.132 2.595-2.53v-8.964c0-1.543 1.289-2.798 2.872-2.798s2.871 1.255 2.871 2.798v8.964c0 1.398 1.162 2.53 2.597 2.53 1.433 0 2.595-1.132 2.595-2.53v-8.964c0-4.331-3.618-7.857-8.063-7.857Zm-52.952 9.675c0 5.334-4.455 9.676-9.929 9.676-1.713 0-3.543-.484-4.737-1.322v5.441c0 1.398-1.162 2.53-2.596 2.53-1.434 0-2.596-1.132-2.596-2.53V29.675c0-5.334 4.455-9.675 9.929-9.675s9.929 4.341 9.929 9.675Zm-5.192 0c0-2.545-2.125-4.616-4.737-4.616s-4.737 2.071-4.737 4.616c0 2.546 2.125 4.617 4.737 4.617s4.737-2.071 4.737-4.617Zm13.577 7.146V22.53c0-1.397-1.162-2.529-2.596-2.529-1.434 0-2.596 1.132-2.596 2.53V36.82c0 1.398 1.162 2.53 2.596 2.53 1.434 0 2.596-1.132 2.596-2.53Zm59.162-2.526c-1.434 0-2.596 1.132-2.596 2.53 0 1.397 1.162 2.529 2.596 2.529 1.433 0 2.595-1.132 2.595-2.53 0-1.397-1.162-2.53-2.595-2.53Z"/>
</svg>
