<svg xmlns="http://www.w3.org/2000/svg" width="162" height="60" fill="none" viewBox="0 0 162 60">
  <path fill="#fff" fill-rule="evenodd" d="M20 17h26.55v26.55H20V17Zm2.7 2.7h21.136v21.15H22.7V19.7Zm7.2 3.6h-2.25v9.45h2.25V23.3Zm6.75 0h2.25v9.45h-2.25V23.3Zm-2.25 0h-2.279v13.95H34.4V23.3Zm24.718 3.6H53.75v6.3h1.038v-2.433h4.33c1.112 0 2.019-.872 2.019-1.94-.015-1.055-.907-1.927-2.019-1.927Zm0 2.981h-4.33v-2.095h4.33c.6 0 1.083.464 1.083 1.04 0 .591-.483 1.055-1.083 1.055ZM69.211 26.9l-3.466 6.3h1.126l.76-1.42h4.491l.76 1.42h1.127l-3.467-6.3h-1.33Zm-1.082 3.994 1.755-3.178.03.056 1.71 3.122H68.13ZM80.065 26.9v6.3h1.024v-5.26l.058.057L86.18 33.2h1.331v-6.3h-1.038v5.273l-.059-.056-5.046-5.217h-1.302Zm14.569 1.955h2.062v-1.07h-3.16V26.9h7.358v.886h-3.16v1.069h2.063v.886h-2.062V33.2h-1.039v-3.46h-2.062v-.885Zm13.325 1.645h3.877v-.886h-3.877v-1.828h5.837V26.9h-6.861v6.3h6.861v-.886h-5.837V30.5Zm28.743-3.6h1.346l3.452 6.3h-1.126l-.746-1.406-.015-.014h-4.491l-.76 1.42h-1.127l3.467-6.3Zm.688.816-1.756 3.178h3.496l-1.711-3.122-.029-.056Zm-10.005 1.11c0 .943-.703 1.744-1.668 1.913h-.029l1.74 2.461h-1.199l-1.785-2.419-.014-.014h-3.394V33.2h-1.038v-6.3h5.368c1.112 0 2.019.858 2.019 1.927Zm-6.334-1.04v2.095h4.33c.599 0 1.082-.478 1.082-1.054 0-.577-.483-1.041-1.082-1.041h-4.33Z" clip-rule="evenodd"/>
</svg>
