<svg xmlns="http://www.w3.org/2000/svg" width="162" height="60" fill="none" viewBox="0 0 162 60">
  <path fill="#fff" fill-rule="evenodd" d="M33.837 31.4c1.55-3.618 3.104-7.235 4.636-10.857.17-.401.362-.547.795-.543 1.947.023 3.895.018 5.837.005.367-.005.599.05.764.447 2.694 6.495 5.41 12.982 8.116 19.473.031.074.022.16.04.315-1.152 0-2.282-.027-3.408.01-.527.018-.558-.388-.688-.699a1673.682 1673.682 0 0 1-6.355-15.354c-.273-.67-.595-.908-1.278-.849-.692.064-1.335-.141-1.702.863-.88 2.43-1.934 4.798-2.916 7.189h-3.841Zm.978 3.517H32.29c-.755 1.752-1.51 3.503-2.291 5.323 1.264 0 2.38-.018 3.502.01.37.008.549-.12.683-.448.661-1.628 1.344-3.257 2.019-4.885h-1.39Zm39.041-9.064c.746-1.784 1.496-3.568 2.238-5.356.08-.196.174-.269.384-.269.938.014 1.876.01 2.818 0 .174 0 .29.028.37.224 1.3 3.202 2.61 6.404 3.913 9.602.014.037.01.078.018.155-.553 0-1.098-.014-1.643.005-.255.009-.268-.192-.33-.342-1.028-2.523-2.06-5.046-3.065-7.577-.13-.333-.286-.447-.616-.42-.335.032-.643-.069-.822.424-.424 1.2-.933 2.368-1.407 3.55-.62.004-1.242.004-1.858.004Zm29.077 0c.746-1.784 1.496-3.568 2.237-5.356.081-.196.175-.269.384-.269.938.014 1.876.01 2.819 0 .174 0 .29.028.37.224 1.3 3.202 2.609 6.404 3.913 9.602.014.037.009.078.018.155-.554 0-1.099-.014-1.644.005-.254.009-.268-.192-.33-.342-1.027-2.523-2.059-5.046-3.064-7.577-.13-.333-.286-.447-.617-.42-.335.032-.643-.069-.821.424-.425 1.2-.934 2.368-1.407 3.55-.621.004-1.242.004-1.858.004Zm-37.304-.256c.509 0 .862-.05 1.058-.146.197-.096.295-.273.295-.529v-2.778c0-.255-.098-.433-.295-.53-.196-.095-.549-.145-1.058-.145H62.77v4.128h2.859Zm-2.859 4.576h-1.956V20.137h4.792c.876 0 1.555.105 2.046.32.491.214.84.565 1.059 1.053.214.488.321 1.159.321 2.016 0 1.2-.24 2.058-.723 2.569-.483.515-1.287.77-2.408.77h-3.13v3.308Zm26.84-4.818h2.947c.51 0 .858-.05 1.054-.146.197-.095.295-.273.295-.529v-2.536c0-.255-.098-.433-.295-.53-.196-.095-.545-.145-1.054-.145H89.61v3.886Zm4.805 4.818-2.032-3.55h-2.774v3.55h-1.952V20.137h4.882c.871 0 1.555.105 2.041.32.487.214.84.565 1.054 1.053.215.488.322 1.159.322 2.016 0 .826-.125 1.47-.38 1.934-.254.466-.665.79-1.241.972l2.206 3.74h-2.126Zm25.035 0h-1.957V20.137h6.655l-.214 1.332h-4.484v3.262h3.917v1.268h-3.917v4.174Zm9.879 0h1.921V20.137h-1.921v10.036Zm-56.241-2.646c-.362.867-.728 1.738-1.108 2.641.608 0 1.148-.009 1.688.005.18.004.268-.06.331-.22.322-.811.648-1.614.974-2.422h-.67c-.442-.004-.862-.004-1.215-.004Zm30.345 0h-1.224c-.366.867-.728 1.738-1.108 2.641.608 0 1.148-.009 1.684.005.179.004.264-.06.331-.22.321-.811.652-1.614.978-2.426h-.661ZM66.174 38.749v-1.506c0-.479.102-.825.312-1.044.21-.22.54-.324.996-.324h.764c.389 0 .68.086.867.255.192.169.294.443.317.812.009.114-.045.173-.166.173-.102 0-.156-.054-.165-.173-.018-.269-.09-.456-.214-.56-.125-.11-.34-.16-.639-.16h-.764c-.245 0-.437.031-.58.1a.593.593 0 0 0-.308.32c-.063.145-.094.35-.094.61v1.497c0 .26.031.46.094.61a.593.593 0 0 0 .308.32c.143.064.335.1.585.1h.76c.298 0 .513-.054.638-.16.125-.104.196-.291.214-.565.01-.114.063-.173.165-.173.117 0 .175.06.166.178-.023.374-.125.643-.317.812-.192.169-.478.25-.867.25h-.76c-.455 0-.79-.109-1-.328-.205-.223-.312-.57-.312-1.044Zm11.099-.119h1.782l-.893-2.212-.89 2.212Zm2.657 1.328c0 .059-.035.104-.107.136a.172.172 0 0 1-.08.018c-.058 0-.098-.036-.125-.104l-.42-1.04h-2.05l-.42 1.04c-.031.068-.076.104-.138.104a.199.199 0 0 1-.08-.018c-.068-.027-.1-.073-.1-.146 0-.036.005-.059.014-.077l1.559-3.869a.188.188 0 0 1 .188-.132h.013c.085 0 .143.046.183.133l1.559 3.868c0 .032.004.064.004.087Zm9.456-2.943c0-.278-.058-.479-.179-.607-.12-.127-.312-.191-.58-.191h-1.31v1.793h1.31c.268 0 .464-.064.58-.187.12-.124.179-.329.179-.612v-.196Zm.049-.848c.183.191.277.474.277.848v.196c0 .374-.09.657-.273.849-.183.191-.455.292-.812.292h-1.31v1.592c0 .114-.053.173-.164.173-.112 0-.166-.055-.166-.173v-3.9c0-.114.054-.174.166-.174h1.474c.352.005.625.1.808.297Zm7.419 3.905a.185.185 0 0 1-.04-.124v-3.9c0-.055.013-.096.04-.123.027-.032.067-.046.116-.046a.15.15 0 0 1 .116.046c.027.032.04.073.04.123v3.9c0 .055-.013.096-.04.123-.027.032-.067.046-.116.046a.15.15 0 0 1-.116-.045Zm8.977-.005a.171.171 0 0 1-.049-.123v-3.732h-1.344a.159.159 0 0 1-.116-.05.167.167 0 0 1-.049-.123c0-.055.017-.096.049-.123a.155.155 0 0 1 .116-.046h3.019c.049 0 .089.014.121.046a.168.168 0 0 1 .044.123c0 .05-.013.087-.044.123a.165.165 0 0 1-.121.05h-1.344v3.732c0 .05-.014.086-.045.123a.162.162 0 0 1-.121.05.162.162 0 0 1-.116-.05Zm8.379-1.437h1.783l-.894-2.212-.889 2.212Zm2.658 1.328c0 .059-.036.104-.107.136a.174.174 0 0 1-.081.018c-.058 0-.098-.036-.125-.104l-.42-1.04h-2.05l-.419 1.04c-.032.068-.076.104-.139.104a.197.197 0 0 1-.08-.018c-.067-.027-.099-.073-.099-.146 0-.036.005-.059.014-.077l1.559-3.869a.187.187 0 0 1 .187-.132h.014c.084 0 .143.046.183.133l1.559 3.868c0 .032.004.064.004.087Zm7.102-.014v-3.9c0-.114.053-.174.165-.174.107 0 .165.06.165.174v3.726h1.921c.107 0 .165.06.165.174 0 .114-.054.173-.165.173h-2.086c-.112 0-.165-.055-.165-.173Z" clip-rule="evenodd"/>
</svg>
