<svg xmlns="http://www.w3.org/2000/svg" width="32" height="33" fill="none" viewBox="0 0 32 33">
  <g clip-path="url(#a)">
    <path fill="#fff" d="m18.946 6.406.626-.78-.626.78Zm-3.56.39-.78-.626.78.626Zm10.123 4.875.63-.776-.004-.003-.626.78Zm.023.019-.63.776.004.004.626-.78Zm2.474 1.985.626-.78-.626.78Zm.763 6.954.78.626-.78-.626ZM24 22.397l.184-.983a1 1 0 0 0-1.183.983h1ZM4.458 20.509l.943.334a1 1 0 0 0-.88-1.332l-.063.998Zm3.43-4.19-.966.258a1 1 0 0 0 1.48.599l-.514-.857Zm9.28-1.137v1a1 1 0 0 0 1-.98l-1-.02Zm1.015-2.895.795.607a1 1 0 0 0-.169-1.387l-.625.78Zm-2.406-1.93.626-.78-.626.78Zm3.796-4.731a3.533 3.533 0 0 0-4.966.544l1.56 1.252a1.532 1.532 0 0 1 2.154-.236l1.252-1.56Zm6.563 5.266-6.563-5.266-1.252 1.56 6.564 5.265 1.251-1.56Zm.027.021-.022-.018-1.26 1.553.022.018 1.26-1.553Zm2.47 1.982-2.474-1.985-1.252 1.56 2.475 1.985 1.251-1.56Zm.917 8.36a5.947 5.947 0 0 0-.917-8.36l-1.251 1.56a3.947 3.947 0 0 1 .608 5.548l1.56 1.252Zm-5.732 2.125a5.946 5.946 0 0 0 5.732-2.125l-1.56-1.252a3.946 3.946 0 0 1-3.806 1.41l-.366 1.967ZM25 23.182v-.785h-2v.785h2Zm-5 5a5 5 0 0 0 5-5h-2a3 3 0 0 1-3 3v2Zm-12 0h12v-2H8v2Zm-5-5a5 5 0 0 0 5 5v-2a3 3 0 0 1-3-3H3Zm.515-3.008A8.987 8.987 0 0 0 3 23.182h2c0-.822.141-1.61.4-2.34l-1.885-.668Zm1.004-.663a2.334 2.334 0 0 1-2.186-2.33h-2a4.334 4.334 0 0 0 4.063 4.326l.123-1.997Zm-2.186-2.33a2.333 2.333 0 0 1 2.334-2.333v-2a4.333 4.333 0 0 0-4.334 4.334h2Zm2.334-2.333c1.078 0 1.988.733 2.254 1.729l1.932-.517a4.335 4.335 0 0 0-4.186-3.212v2ZM12 14.182a8.96 8.96 0 0 0-4.628 1.28l1.03 1.714A6.963 6.963 0 0 1 12 16.182v-2Zm5.168 0H12v2h5.168v-2Zm.22-2.503a5.924 5.924 0 0 0-1.22 3.482l2 .042c.017-.81.282-1.62.809-2.309l-1.589-1.215Zm-2.237-.543 2.406 1.93 1.251-1.56-2.406-1.93-1.251 1.56Zm-.545-4.966a3.532 3.532 0 0 0 .545 4.966l1.251-1.56a1.533 1.533 0 0 1-.236-2.154l-1.56-1.252Z"/>
    <path stroke="#fff" stroke-linecap="round" stroke-width="2" d="M10.667 21.848H13a3 3 0 0 1 3 3v2.334"/>
    <circle cx="23" cy="16" r="2" fill="#2F8AF5"/>
  </g>
  <defs>
    <clipPath id="a">
      <path fill="#fff" d="M0 0h32v32H0z" transform="translate(0 .515)"/>
    </clipPath>
  </defs>
</svg>
