<svg xmlns="http://www.w3.org/2000/svg" width="163" height="60" fill="none" viewBox="0 0 163 60">
  <path fill="#fff" fill-rule="evenodd" d="m44.871 42.032-6.183-10.814c3.911-1.425 5.85-3.91 5.85-7.527.005-4.421-3.51-7.235-9.104-7.235H24.5v25.576h4.828V31.655h4.097l5.924 10.377h5.522Zm-9.437-21.339c2.852 0 4.28 1.133 4.28 3.361 0 2.229-1.43 3.36-4.28 3.36h-6.106v-6.72h6.106Zm73.571 21.339V16.959h-4.608v25.073h4.608Zm-9.877-16.076c-1.94-1.718-4.28-2.558-6.987-2.558-2.669 0-5.01.841-6.95 2.558-1.94 1.68-2.925 4.02-2.925 7.015 0 2.997.986 5.334 2.925 7.052 1.94 1.68 4.281 2.521 6.95 2.521 2.707 0 5.047-.84 6.987-2.52 1.976-1.719 2.961-4.056 2.961-7.053 0-2.996-.986-5.335-2.961-7.015ZM88.486 36.807c-1.023-.986-1.538-2.266-1.538-3.836 0-1.57.51-2.85 1.538-3.8 1.022-.985 2.231-1.46 3.654-1.46 1.424 0 2.67.475 3.693 1.46 1.059.95 1.574 2.23 1.574 3.8 0 1.572-.511 2.85-1.574 3.836-1.022.95-2.267 1.425-3.693 1.425-1.423 0-2.63-.475-3.654-1.425Zm35.395-2.894V23.909h4.619v10.772c0 4.09-2.629 7.862-8.371 7.862h-.036c-5.777 0-8.41-3.69-8.41-7.862V23.909h4.616v10.004c0 2.412 1.27 4.008 3.794 4.008 2.483 0 3.788-1.597 3.788-4.008Zm-46.52-10.004-4.609 12.277-4.608-12.277h-4.9l7.353 18.123h4.317l7.352-18.123H77.36ZM60.78 25.956c1.646 1.717 2.487 3.873 2.487 6.503h-.001v1.609h-13.97c.294 2.777 2.233 4.53 4.975 4.53 2.23 0 3.878-1.096 5.01-3.325l3.437 1.973c-1.716 3.545-4.531 5.298-8.52 5.298-2.596 0-4.79-.876-6.62-2.667-1.794-1.79-2.707-4.092-2.707-6.906s.912-5.078 2.742-6.869c1.866-1.79 4.135-2.704 6.804-2.704 2.598 0 4.716.84 6.363 2.558Zm-1.757 4.75c-.438-2.34-2.159-3.8-4.755-3.8-2.378 0-4.277 1.644-4.974 3.8h9.729Zm71.917 6.466a5.372 5.372 0 0 0 5.372 5.37h3.188V38.45h-2.374a1.575 1.575 0 0 1-1.577-1.574v-9.233h3.951v-3.727h-3.951v-4.903h-4.609v18.159Z" clip-rule="evenodd"/>
</svg>
