<svg xmlns="http://www.w3.org/2000/svg" width="1116" height="1116" fill="none" viewBox="0 0 1116 1116">
  <path fill="#fff" d="m277.534 608.877 27.9-210.122-242.38-168.272 221.455 74.982 52.313-80.213 190.94-118.575 421.117 231.919 21.797 353.981-187.453 260.691-148.219 22.669 76.724-140.372V700.424l-55.8-105.497-56.672-37.49-87.187 89.803v95.034l-68.007 63.647-86.315 10.462-38.363 21.797-62.775-20.053-26.156-94.162 47.081-66.263v-48.825Z"/>
  <path fill="#94A6C3" d="M664.649 228.74c-46.21-9.591-96.778-6.975-96.778-6.975s-16.566 76.725-119.447 96.778c.872 0 136.012 46.209 216.225-89.803Zm41.849 695.756c55.8-43.594 97.65-103.753 116.831-171.759.872-2.616 8.719-6.975 13.95-10.463 8.719-5.231 17.438-9.591 19.181-16.566 3.488-20.053 5.232-40.978 5.232-61.903 0-7.846-7.847-15.693-15.694-23.54-6.103-5.232-12.206-11.335-12.206-15.694-8.719-79.341-45.338-153.45-103.754-207.506l-6.103 6.103c56.672 53.184 93.291 125.55 101.138 202.275.872 6.975 7.847 13.95 14.822 20.925 6.103 5.231 13.078 13.078 13.078 16.566 0 20.053-1.744 40.106-5.231 60.159-.872 3.487-8.719 6.975-14.822 10.462-8.719 4.36-16.566 8.719-18.31 15.694-20.925 74.109-68.878 138.628-132.525 180.478 11.335-24.412 47.082-103.753 66.263-143.859L744.86 656.83 634.132 549.59l-62.775 8.719-68.878 111.599s32.259 40.979-13.078 88.932c-44.466 47.081-79.341 57.544-79.341 57.544l-32.259-17.438c9.591-12.206 28.772-30.516 43.594-42.722 25.284-20.925 50.568-22.669 50.568-45.337.872-47.082-49.696-34.003-49.696-34.003l-18.31 17.437-7.847 64.519-38.362 47.953-4.36-.872-62.775-13.95s38.363-20.053 44.466-42.722c6.103-21.797-12.206-94.162-13.078-98.522.872.872 18.309 15.694 26.156 40.106 13.95-38.362 32.26-74.981 37.491-78.468 5.231-3.488 75.853-40.978 75.853-40.978L437.96 633.29l17.438-9.591 41.85-102.881s40.978-20.053 71.494-20.053c54.928-.872 136.012-68.006 99.393-188.325 10.463 4.359 191.813 95.034 223.2 272.897 23.541 136.884-54.056 265.05-184.837 339.159Z"/>
  <path fill="#1B314F" d="M498.993 247.922c20.053-23.541 12.206-58.416 12.206-58.416l-58.416 86.316c-.872 0 20.925.872 46.21-27.9ZM302.82 719.607l6.975-34.875s-28.772 50.569-31.388 57.544c-2.616 7.847 1.744 21.797 13.078 20.925 11.335-.872 25.285-17.437 25.285-29.644 0-15.693-13.95-13.95-13.95-13.95Z"/>
  <path fill="#1B314F" d="M820.713 165.095s43.594 1.744 88.932 6.975C807.635 91.857 710.857 68.316 632.388 68.316c-108.112 0-181.35 44.466-185.709 47.082l34.003-54.057S344.67 48.263 296.717 192.123c-12.207-30.516-23.541-74.981-23.541-74.981s-70.622 61.903-37.491 164.784c-81.084-29.644-197.043-70.622-201.403-71.494-6.103-.871-7.847 1.744-7.847 1.744s-1.743 2.616 3.488 6.975c9.59 7.847 192.684 142.988 232.79 169.144-8.718 31.387-8.718 46.209 0 61.031 12.207 20.053 13.078 30.516 11.335 45.338-1.744 14.822-17.438 142.986-20.925 158.68-3.488 15.695-40.107 71.494-38.363 88.059 1.744 16.566 24.413 87.188 44.466 95.035 14.822 5.231 51.44 16.566 75.853 16.566 8.719 0 16.566-1.745 20.053-5.232 14.822-13.078 19.181-15.694 29.644-15.694h2.615c4.36 0 9.591.872 15.694.872 13.95 0 32.26-2.614 45.338-14.821 19.181-19.181 52.312-45.338 62.775-57.545 13.078-16.565 20.053-39.234 16.565-61.903-2.615-20.925 8.719-39.234 21.797-57.543 16.566-21.797 47.081-61.031 47.081-61.031 60.16 45.338 97.651 114.215 97.651 190.94 0 136.012-118.576 245.873-265.051 245.873-22.668 0-44.465-2.62-66.262-7.85 67.134 23.54 123.806 31.39 170.016 31.39 98.522 0 150.834-35.75 150.834-35.75s-18.309 23.54-47.953 50.57h.872c163.04-22.67 242.381-156.939 242.381-156.939s-6.103 43.593-13.95 73.237C1082.28 808.539 1045.66 604.52 1044.79 597.545c1.74 2.616 23.54 28.772 34.87 42.721 34.88-359.213-258.947-475.171-258.947-475.171ZM486.785 738.788c-3.487 4.359-18.309 17.438-28.772 27.029-10.462 9.589-21.796 19.18-30.515 27.899-3.488 3.487-10.463 5.231-20.925 5.231h-26.157c13.079-17.438 51.441-57.544 64.519-66.263 15.694-10.461 23.541-20.925 13.95-39.234-9.59-18.309-34.875-13.95-34.875-13.95s14.822-6.103 27.9-6.103c-16.565-4.359-37.49.001-47.081 9.592-10.463 9.589-8.719 43.593-13.078 65.39-4.36 22.668-19.181 34.002-41.85 54.927-12.206 11.335-20.925 14.823-27.9 14.823-14.822-2.616-32.259-6.976-44.466-11.335-8.718-11.335-21.797-48.825-25.284-64.519 2.615-8.719 13.078-27.028 18.309-37.489 10.463-20.055 16.566-31.389 18.31-41.852 3.487-14.82 14.822-106.367 19.181-144.73 11.334 14.822 27.028 39.235 23.541 54.928 25.284-35.746 6.975-70.621-1.744-84.571-7.847-13.95-18.31-41.85-9.591-71.494 8.719-29.645 40.106-111.6 40.106-111.6s10.463 18.309 25.285 14.822c14.822-3.488 134.268-183.094 134.268-183.094s32.26 70.622-1.743 122.062c-34.875 51.441-68.878 61.032-68.878 61.032s47.953 8.718 92.418-23.541c18.31 42.722 35.747 87.188 36.619 93.291-2.615 6.103-37.491 89.803-40.978 95.034-1.744 1.744-13.95 5.231-22.669 6.975-14.822 4.359-23.54 6.975-27.028 9.591-6.103 5.231-34.003 81.955-47.081 119.445-15.694 4.36-31.388 13.079-42.722 30.516 6.103-4.359 25.284-6.975 39.234-8.719 12.207-.872 49.697 19.182 59.288 56.672v1.744c1.744 13.95-2.616 27.028-9.591 37.491Zm-81.956 10.462c7.847-11.334 6.975-30.516 7.847-36.619.872-6.103 2.615-17.437 9.59-19.181 6.975-1.743 23.541.872 23.541 13.078 0 11.336-12.206 13.95-20.925 21.797-6.103 6.103-18.309 19.182-20.053 20.925Zm347.878-166.527c8.719-44.466 9.591-82.828 6.975-114.216 34.003 45.338 54.928 100.265 61.031 156.937.872 6.975 7.847 13.95 14.822 20.925 6.103 5.231 13.078 12.206 13.078 16.565 0 20.055-1.743 40.107-5.231 60.16-.872 2.617-8.719 6.975-14.822 10.462-8.719 4.36-16.565 8.719-18.309 15.694-19.181 67.134-60.159 126.422-115.088 168.272 81.085-84.572 120.319-224.072 57.544-334.799Zm-54.928 342.646c56.672-43.594 100.266-104.625 119.447-173.503.872-2.616 8.719-6.975 13.95-10.463 8.719-4.359 17.437-9.59 19.181-16.565 3.488-20.054 5.231-40.979 5.231-61.904 0-7.846-7.846-15.692-15.693-23.539-4.36-5.231-11.335-11.336-11.335-15.695-6.975-63.647-32.259-123.805-71.493-173.502-17.438-104.625-87.188-136.884-88.932-137.756 1.744 2.615 47.081 68.006 15.694 144.731-32.259 77.597-115.088 65.391-122.063 66.263-6.975 0-34.003 34.873-68.006 99.392-4.359-1.742-22.668-6.103-43.594-2.615 15.694-43.594 39.235-105.496 43.594-110.727 1.744-1.744 14.822-5.232 23.541-7.847 16.566-4.36 24.412-6.975 27.028-10.463 1.744-2.615 10.463-22.669 19.181-43.594 7.847 0 27.9-1.743 29.644-2.615 1.744-1.744 18.309-44.467 18.309-49.697 0-4.359-34.003-88.931-47.081-121.191 6.103-6.975 12.206-15.693 18.31-25.284 178.734 19.181 318.234 170.887 318.234 354.853 0 141.243-82.828 264.177-203.147 321.721Z"/>
  <path fill="#1B314F" d="M465.86 454.556c16.566-19.181 7.847-54.928-22.668-61.031 7.846-18.309 19.181-54.928 19.181-54.928s-88.932 139.5-96.778 142.116c-7.847 2.615-15.694-27.9-15.694-27.9-16.566 63.647 27.9 72.365 33.131 52.312 24.413-6.103 66.263-32.259 82.828-50.569Z"/>
  <path fill="#FFD923" d="m390.006 488.562 45.338-77.597s26.156 13.078 13.078 34.003c-16.566 24.412-58.416 43.594-58.416 43.594Z"/>
  <path fill="#D82122" d="M950.623 847.773c-13.078 17.438-27.9 35.747-45.338 53.184 112.475-216.225 5.232-414.14.872-421.987 7.847 7.847 15.694 16.566 22.669 24.412 86.314 95.907 96.774 239.766 21.797 344.391Zm104.627-278.129c-39.24-105.497-95.037-195.3-217.971-276.384-118.575-78.469-245.869-72.366-252.844-71.494h-1.743c4.359-1.744 8.718-2.616 13.078-3.488 27.028-8.719 61.903-15.694 96.778-20.053 92.418-13.078 185.709 18.309 249.356 85.444l1.744 1.744c72.362 76.725 109.852 172.631 111.602 284.231ZM809.379 138.068C679.47 113.655 595.77 125.862 535.61 148.53c-1.743-6.975-7.847-20.925-13.078-32.259-18.309 21.797-37.49 47.953-49.697 64.519-33.131 22.668-47.081 44.465-47.081 44.465 19.181-65.39 74.981-114.215 142.988-126.421 19.181-3.488 40.106-5.231 62.775-5.231 60.159.871 120.318 15.693 177.862 44.465Zm-480.402 167.4c-102.009-3.488-68.006-122.063-66.263-129.038 0 .872 6.975 93.291 66.263 129.038Zm100.265-213.61c-78.469 47.081-62.775 159.553-62.775 159.553-74.982-114.216 56.671-156.938 62.775-159.553Z"/>
  <path fill="#fff" d="M300.205 336.853c5.231 4.36 10.463 12.206 4.359 23.541-3.487 6.103-8.718 5.231-16.565 1.744-10.463-5.232-73.238-41.85-129.91-79.341 64.519 22.669 129.91 47.081 140.372 52.312l1.744 1.744Z"/>
</svg>
