<svg xmlns="http://www.w3.org/2000/svg" width="163" height="60" fill="none" viewBox="0 0 163 60">
  <path fill="#fff" d="M27.848 37.42c-1.115-1.24-3.27-4.536-2.973-7.807.345-3.799 2.936-6.314 3.898-7.248.074-.072.138-.134.19-.187l3.532-3.531c.682-.682 1.673-2.565.186-4.647-3.16 2.602-9.702 8.736-10.594 12.453-1.116 4.647-.558 9.48 4.274 14.126l1.487 1.487 7.435-7.249c.868-.93 2.38-3.457 1.487-6.133l-8.922 8.735Z"/>
  <path fill="#fff" d="M37.414 23.48c1.116 1.238 3.272 4.535 2.974 7.806-.345 3.799-2.936 6.314-3.899 7.248v.001l-.19.186-3.531 3.531c-.682.682-1.673 2.565-.186 4.647 3.16-2.602 9.702-8.736 10.594-12.453 1.115-4.647.558-9.48-4.275-14.126l-1.487-1.487-7.434 7.248c-.868.93-2.38 3.458-1.487 6.134l8.921-8.736Zm19.701 13.499c1.048.294 2.13.44 3.247.44 1.29 0 2.387-.193 3.288-.58.9-.387 1.573-.908 2.017-1.562a3.815 3.815 0 0 0 .685-2.203c0-.934-.248-1.675-.746-2.223a4.299 4.299 0 0 0-1.755-1.201c-.685-.254-1.566-.507-2.642-.761-1.035-.227-1.809-.454-2.32-.68-.497-.241-.746-.602-.746-1.082 0-.48.215-.868.646-1.162.444-.293 1.122-.44 2.037-.44 1.304 0 2.608.367 3.913 1.101l1.008-2.463c-.645-.4-1.398-.707-2.259-.92a10.902 10.902 0 0 0-2.642-.321c-1.29 0-2.387.193-3.288.58-.887.388-1.553.915-1.996 1.582a3.835 3.835 0 0 0-.666 2.203c0 .934.242 1.682.726 2.243a4.37 4.37 0 0 0 1.775 1.221c.686.254 1.567.508 2.642.761.7.16 1.25.307 1.654.44.417.134.753.314 1.009.541.269.214.403.488.403.821 0 .454-.222.821-.665 1.102-.444.267-1.13.4-2.058.4a8.16 8.16 0 0 1-2.5-.4c-.835-.267-1.554-.621-2.16-1.061l-1.108 2.443c.632.48 1.465.874 2.5 1.18Zm10.688-11.174h4.518V37.18h3.268V25.805h4.518v-2.643H67.803v2.643Z"/>
  <path fill="#fff" fill-rule="evenodd" d="M91.463 34.175h-6.555l-1.251 3.004h-3.348l6.293-14.017h3.227l6.313 14.017h-3.429l-1.25-3.004Zm-1.029-2.462-2.239-5.367-2.239 5.366h4.478Z" clip-rule="evenodd"/>
  <path fill="#fff" d="m101.863 33.635 1.896-1.963 4.518 5.507h3.812l-6.192-7.77 5.849-6.247h-3.631l-6.252 6.548v-6.548h-3.248v14.017h3.248v-3.544Zm23.623.941v2.603h-10.932V23.162h10.67v2.603h-7.422v3.044h6.555v2.523h-6.555v3.244h7.684Z"/>
  <path fill="#fff" fill-rule="evenodd" d="m135.368 33.274 2.723 3.905h3.509l-3.167-4.505c.928-.4 1.641-.975 2.138-1.723.511-.76.767-1.662.767-2.703s-.249-1.942-.746-2.703c-.498-.761-1.211-1.348-2.138-1.762-.915-.414-1.997-.621-3.248-.621h-6.111v14.017h3.267v-3.905h3.006Zm1.896-6.828c.511.414.766 1.015.766 1.802 0 .774-.255 1.375-.766 1.802-.511.428-1.258.641-2.239.641h-2.663v-4.886h2.663c.981 0 1.728.214 2.239.641Z" clip-rule="evenodd"/>
</svg>
