<svg xmlns="http://www.w3.org/2000/svg" width="162" height="60" fill="none" viewBox="0 0 162 60">
  <path fill="#fff" d="M59.93 26.939h-3.448v-2.032h9.39v2.032h-3.449v8.743H59.93v-8.743Zm8.304 1.554c.287-.4.672-.703 1.154-.908.492-.205 1.057-.308 1.693-.308v2.217a8.617 8.617 0 0 0-.539-.031c-.687 0-1.226.195-1.616.585-.39.38-.585.954-.585 1.724v3.91H65.94V27.4h2.294v1.093ZM79.988 27.4v8.282H77.71v-.986a3.27 3.27 0 0 1-1.139.832 3.671 3.671 0 0 1-1.431.277c-1.088 0-1.95-.313-2.586-.94-.637-.625-.955-1.554-.955-2.785V27.4H74v4.326c0 1.334.56 2 1.678 2 .575 0 1.037-.184 1.386-.554.349-.38.523-.938.523-1.677V27.4h2.401Zm4.088 8.405c-.688 0-1.36-.082-2.017-.246-.657-.175-1.18-.39-1.57-.647l.8-1.724c.37.236.816.431 1.34.585a5.795 5.795 0 0 0 1.539.215c1.016 0 1.524-.25 1.524-.754 0-.236-.139-.405-.416-.508-.277-.102-.703-.19-1.278-.262a12.361 12.361 0 0 1-1.677-.353 2.66 2.66 0 0 1-1.155-.708c-.318-.34-.477-.821-.477-1.448 0-.523.149-.985.446-1.385.308-.41.75-.729 1.324-.954.585-.226 1.272-.339 2.063-.339.585 0 1.164.067 1.74.2.584.123 1.067.298 1.446.523l-.8 1.71a4.78 4.78 0 0 0-2.386-.617c-.513 0-.898.072-1.154.216-.257.144-.385.328-.385.554 0 .257.138.436.415.539.277.102.719.2 1.324.292a12.94 12.94 0 0 1 1.662.37c.431.123.806.354 1.124.693.318.338.477.81.477 1.415 0 .514-.154.97-.461 1.37-.308.4-.76.714-1.355.94-.585.215-1.283.323-2.093.323Zm9.809-.524a2.568 2.568 0 0 1-.878.4 4.57 4.57 0 0 1-1.077.124c-.985 0-1.75-.252-2.294-.755-.533-.502-.8-1.241-.8-2.216v-3.402h-1.278v-1.847h1.278v-2.016h2.4v2.016H93.3v1.847h-2.063v3.371c0 .35.087.621.262.816.184.185.44.277.77.277.379 0 .702-.103.969-.308l.647 1.693ZM114.2 24.907l-3.525 10.775h-2.679l-2.37-7.297-2.448 7.297h-2.663l-3.54-10.776h2.586l2.432 7.574 2.54-7.573h2.309l2.463 7.634 2.509-7.634h2.386Zm3.023 2.37c1.282 0 2.268.308 2.955.924.688.605 1.031 1.523 1.031 2.755v4.726h-2.247V34.65c-.451.77-1.293 1.155-2.524 1.155-.637 0-1.191-.108-1.663-.324-.462-.215-.816-.513-1.062-.892a2.325 2.325 0 0 1-.369-1.294c0-.769.287-1.374.862-1.816.585-.44 1.483-.662 2.694-.662h1.908c0-.523-.159-.923-.477-1.2-.318-.288-.795-.431-1.431-.431-.442 0-.878.072-1.309.215a3.34 3.34 0 0 0-1.077.554l-.863-1.677a5.216 5.216 0 0 1 1.617-.74 7.349 7.349 0 0 1 1.955-.261Zm-.185 6.911c.411 0 .775-.092 1.093-.277a1.59 1.59 0 0 0 .677-.846v-.847h-1.647c-.985 0-1.478.323-1.478.97a.89.89 0 0 0 .354.739c.247.174.58.261 1.001.261Zm5.421-9.928h2.401v11.422h-2.401V24.26Zm3.706 0h2.402v11.422h-2.402V24.26Zm11.819 7.311c0 .031-.015.247-.046.647h-6.265c.113.513.379.918.8 1.216.421.298.944.447 1.57.447a3.23 3.23 0 0 0 1.139-.185c.339-.134.652-.339.939-.616l1.278 1.386c-.78.892-1.919 1.339-3.417 1.339-.934 0-1.76-.18-2.479-.539-.718-.37-1.272-.877-1.662-1.524-.39-.646-.585-1.38-.585-2.201 0-.81.19-1.54.57-2.186a4.04 4.04 0 0 1 1.585-1.524c.677-.37 1.431-.554 2.263-.554.811 0 1.544.175 2.201.523.657.35 1.17.852 1.539 1.509.38.646.57 1.4.57 2.262Zm-4.295-2.478c-.544 0-1 .154-1.37.462-.369.308-.595.729-.677 1.262h4.079c-.082-.523-.308-.939-.677-1.246-.37-.318-.821-.478-1.355-.478ZM144 35.282a2.567 2.567 0 0 1-.877.4 4.576 4.576 0 0 1-1.078.124c-.985 0-1.749-.252-2.293-.755-.534-.502-.801-1.241-.801-2.216v-3.402h-1.277v-1.847h1.277V25.57h2.402v2.016h2.062v1.847h-2.062v3.371c0 .35.087.621.261.816.185.185.441.277.77.277.38 0 .703-.103.97-.308l.646 1.693Z"/>
  <path fill="#fff" fill-rule="evenodd" d="M28.496 14.178h10.433c5.981 0 10.83 4.85 10.83 10.83v10.434c0 5.981-4.849 10.83-10.83 10.83H28.496c-5.982 0-10.831-4.849-10.831-10.83V25.009c0-5.982 4.85-10.83 10.83-10.83Zm5.958 5.925a1 1 0 0 0-1.282 0c-2.745 2.292-5.875 2.274-7.076 2.268l-.165-.001a1 1 0 0 0-1 1.015c.057 3.795.209 6.504.506 8.488.297 1.984.753 3.342 1.487 4.365.74 1.03 1.692 1.616 2.707 2.177.177.098.357.196.541.296.891.484 1.882 1.021 3.058 1.865a1 1 0 0 0 1.165 0c1.177-.845 2.17-1.383 3.061-1.866l.54-.294c1.015-.562 1.968-1.147 2.71-2.177.735-1.023 1.192-2.381 1.49-4.365.3-1.985.451-4.693.509-8.489a1 1 0 0 0-1-1.015h-.167c-1.21.007-4.34.025-7.084-2.267Zm-7.039 11.474c-.251-1.677-.398-3.973-.466-7.213 1.548-.05 4.285-.37 6.863-2.228 2.582 1.86 5.323 2.179 6.875 2.228-.068 3.24-.216 5.536-.468 7.213-.278 1.846-.669 2.843-1.137 3.494-.463.643-1.07 1.05-2.054 1.594-.16.088-.327.18-.504.275-.758.41-1.67.904-2.712 1.606-1.04-.7-1.95-1.194-2.707-1.605a64.805 64.805 0 0 1-.506-.276c-.982-.543-1.588-.95-2.05-1.593-.467-.651-.857-1.648-1.134-3.495Z" clip-rule="evenodd"/>
</svg>
