<svg xmlns="http://www.w3.org/2000/svg" width="163" height="60" fill="none" viewBox="0 0 163 60">
  <path fill="#fff" fill-rule="evenodd" d="M29.932 17a5.532 5.532 0 0 0-5.532 5.532v14.225a5.532 5.532 0 0 0 5.532 5.532h14.225a5.532 5.532 0 0 0 5.532-5.532V22.532A5.532 5.532 0 0 0 44.157 17H29.932Zm10.472 10.274h-3.36l1.581-2.371h-5.532l-2.033-2.034a.198.198 0 0 1 .14-.337h11.569c.417 0 .66.47.419.81l-2.785 3.932Zm-6.718 4.742h3.359l-1.58 2.37h5.531l2.034 2.034a.198.198 0 0 1-.14.337H31.32a.514.514 0 0 1-.419-.81l2.785-3.931Zm90.291-2.766c0 3.71-3.096 6.717-6.915 6.717s-6.915-3.008-6.915-6.717c0-3.71 3.096-6.718 6.915-6.718s6.915 3.008 6.915 6.718Zm-3.161 0c0 2.4-1.681 4.346-3.754 4.346s-3.754-1.946-3.754-4.346c0-2.401 1.681-4.347 3.754-4.347s3.754 1.946 3.754 4.347Z" clip-rule="evenodd"/>
  <path fill="#fff" d="M64.507 22.73h9.681v.395l-6.124 10.274h5.73v2.173H63.716v-.395l6.322-10.274h-5.532V22.73Zm13.04 0h8.496v2.173H80.51v3.161h4.346v1.976H80.51v3.359h5.73v2.173h-8.694V22.73Z"/>
  <path fill="#fff" fill-rule="evenodd" d="M95.131 22.73h-5.334v12.842h2.963v-4.94h1.383l2.964 4.94h3.161l-3.359-5.532c2.055-.474 2.569-2.569 2.569-3.556 0-3.004-2.898-3.754-4.347-3.754Zm-2.37 5.927v-3.754h1.975c.988 0 1.976.711 1.976 1.976 0 1.264-1.186 1.712-1.778 1.778H92.76Z" clip-rule="evenodd"/>
  <path fill="#fff" d="M103.627 22.73h2.964v12.842h-2.964V22.73Zm23.709 12.842V22.73h3.359l4.939 8.298V22.73h2.766v12.842h-2.964l-5.532-9.089v9.089h-2.568Z"/>
</svg>
